<?xml version="1.0" encoding="utf-8"?>
<!-- Generator: Adobe Illustrator 23.0.0, SVG Export Plug-In . SVG Version: 6.00 Build 0)  -->
<svg version="1.1" id="Layer_1" xmlns="http://www.w3.org/2000/svg" xmlns:xlink="http://www.w3.org/1999/xlink" x="0px" y="0px"
	 viewBox="0 0 708.9 162.8" style="enable-background:new 0 0 708.9 162.8;" xml:space="preserve">
<style type="text/css">
	.st0{display:none;fill:#FFFFFF;}
	.st1{fill:#00AEEF;}
	.st2{fill:#EE1922;}
	.st3{fill:#FFFFFF;}
	.st4{fill:#64D1EF;}
	.st5{fill:#EF5C59;}
	.st6{fill:#F06664;}
	.st7{fill:#7FDAF0;}
	.st8{fill:#F3AFA8;}
	.st9{fill:#F2B1A8;}
	.st10{fill:#F6D4CD;}
</style>
<ellipse class="st0" cx="77.4" cy="77.6" rx="3309.9" ry="1842.3"/>
<path class="st1" d="M53.2,127.9c-2.7-1.8-5.2-3.8-7.6-5.9c-1.8-1.5-3.5-3.1-5.2-4.8c-1.8-1.8-3.6-3.6-5.3-5.4
	c-3.3-3.6-6.5-7.5-9.3-11.5c-2.9-4-5.6-8.2-8-12.5c-1.8-3.2-3.4-6.5-4.9-9.9c-0.8-1.7-1.5-3.5-2.2-5.2c-0.8-2.1-1.6-4.2-2.3-6.4
	c-0.6-2-1.2-4-1.8-6c-0.6-2.3-1.2-4.6-1.7-7c-0.4-2-0.8-4.1-1.1-6.2c-0.2-1.2-0.3-2.4-0.5-3.6C3,42.7,2.9,41.9,2.8,41
	c-0.1-1.1-0.2-2.2-0.3-3.4c0-0.5-0.1-1-0.1-1.5c-0.1-1.2-0.1-2.4-0.2-3.6c0-1.3,0.1-2.7,0.2-4c0.1-1.3,0.2-2.7,0.4-4
	c0.4-2.3,0.9-4.5,1.8-6.6c1.2-3,2.8-5.6,5-7.9c1.5-1.5,3.1-2.8,4.9-3.8c1.9-1.1,4-1.9,6.2-2.5C22,3.3,23.3,3,24.6,2.8
	c0.9-0.1,1.9-0.1,2.9-0.3c0.1,0,0.3,0,0.4,0c1.3,0,2.6,0,3.9,0c1.6,0,3.2,0.2,4.8,0.4C37.2,3,37.8,3,38.3,3.1
	c2.4,0.4,4.8,0.9,7.2,1.5s4.8,1.3,7.2,2.2c2.1,0.7,4.1,1.5,6.1,2.4c2,0.9,4.1,1.8,6,2.8c3,1.5,5.9,3.1,8.7,4.9
	c2.7,1.7,5.3,3.5,7.8,5.4c2,1.5,4,3.2,5.8,4.9c1.1,1,2.1,2,3.1,3c2.6,2.6,5,5.4,7,8.4c0.4,0.6,0.8,1.2,1.1,1.8c0,0.2,0,0.3-0.3,0.2
	c-1.4-1.3-2.9-2.6-4.3-3.8c-2.6-2.2-5.3-4.3-8.1-6.2c-2.4-1.7-4.9-3.3-7.4-4.8c-3.2-1.9-6.4-3.5-9.8-5c-2.5-1.1-5.1-2-7.7-2.8
	c-1.3-0.4-2.6-0.7-4-1c-1.7-0.4-3.4-0.7-5.1-0.9c-0.8-0.1-1.6-0.2-2.3-0.2c-1.6-0.1-3.3-0.2-4.9-0.1c-0.4,0-0.9,0-1.3,0
	c-1.6,0.1-3.1,0.3-4.7,0.5c-2,0.4-3.9,0.9-5.9,1.5c-4,1.4-7.5,3.5-10.4,6.8c-1.1,1.3-2.1,2.6-2.9,4.1c-1.4,2.5-2.3,5.2-3,8
	c-0.4,1.9-0.7,3.8-0.9,5.7c-0.2,2.5-0.2,4.9-0.1,7.4c0.1,1.4,0.1,2.7,0.3,4.1c0.2,1.4,0.3,2.7,0.5,4.1c0,0.2,0.1,0.5,0.2,0.7
	c0,0,0,0.1,0.1,0.1s0.1,0,0.2-0.1c0.2-0.4,0.4-0.8,0.6-1.2c1.2-2.2,2.9-4,5.1-5.3c1.9-1.1,3.9-1.8,6.1-1.8c1.2,0,2.3,0.1,3.5,0.3
	c1.7,0.4,3.3,1.2,4.7,2.3c2.7,2.1,4.4,4.8,5.4,8.1c0.5,1.9,0.7,3.9,0.5,5.9c-0.4,3.8-1.9,7.1-4.6,9.8c-1.7,1.7-3.8,2.8-6.1,3.3
	c-1.5,0.3-3,0.4-4.5,0.2c-1.9-0.3-3.6-0.9-5.2-1.9C21.8,78,21.7,78,21.6,78h-0.1c0,0.1-0.1,0.1-0.1,0.2c0.4,1.1,0.8,2.2,1.2,3.3
	c0.5,1.4,1.1,2.7,1.7,4.1c0.8,1.8,1.7,3.6,2.6,5.3c0.7,1.2,1.4,2.3,2.2,3.4c2.3,3.4,4.7,6.8,7.1,10.1c3.2,4.4,6.4,8.8,9.6,13.1
	c2.5,3.4,5,6.8,7.6,10.2C53.5,127.8,53.4,127.9,53.2,127.9z"/>
<path class="st2" d="M81.4,2.8c1.1,0.6,2,1.4,3,2.2c3.4,2.6,6.6,5.4,9.7,8.4c3.9,3.8,7.6,7.8,11,12.1c2.7,3.3,5.2,6.8,7.5,10.4
	c1.9,3,3.8,6.1,5.4,9.3c1.5,2.9,2.9,5.8,4.2,8.8c1,2.4,2,4.9,2.9,7.4c0.8,2.3,1.5,4.5,2.2,6.8c0.7,2.4,1.3,4.8,1.9,7.3
	c0.6,2.7,1.1,5.4,1.5,8.1c0.3,1.6,0.4,3.2,0.7,4.8c0.2,1.8,0.4,3.5,0.5,5.3c0.1,0.6,0.1,1.2,0.1,1.7c0,0.9,0.1,1.8,0.1,2.8
	c0,2.1-0.1,4.2-0.4,6.3c-0.3,2.8-1,5.6-2,8.3c-1.2,3-2.8,5.7-5.1,8c-1.4,1.4-2.9,2.6-4.6,3.6c-2.2,1.3-4.6,2.2-7,2.8
	c-1.2,0.3-2.4,0.5-3.6,0.7c-2.4,0.3-4.8,0.4-7.3,0.3c-1.3-0.1-2.5-0.1-3.8-0.3c-1.1-0.1-2.2-0.3-3.4-0.5c-1.2-0.2-2.5-0.4-3.7-0.7
	c-2.1-0.5-4.3-1-6.3-1.7c-2.1-0.7-4.2-1.4-6.2-2.2c-2.3-0.9-4.5-1.8-6.7-2.9c-2.8-1.3-5.6-2.8-8.3-4.4c-2.5-1.5-5-3-7.3-4.7
	c-4.4-3.1-8.5-6.4-12.2-10.2c-2.4-2.4-4.6-4.9-6.5-7.7c-0.6-0.8-1.2-1.7-1.7-2.6c-0.1-0.2,0-0.3,0.2-0.2c0.3,0.3,0.6,0.5,0.8,0.8
	c2.3,2.1,4.6,4,7,5.9c3.1,2.4,6.3,4.6,9.6,6.7c3.1,1.9,6.3,3.7,9.6,5.3c2.5,1.2,5.1,2.2,7.7,3.1c1.9,0.7,3.8,1.2,5.8,1.7
	c1.5,0.4,3.1,0.6,4.6,0.9c0.6,0.1,1.2,0.2,1.8,0.2c2.7,0.3,5.4,0.4,8.1,0.2c1.8-0.1,3.6-0.3,5.4-0.7c1.8-0.4,3.7-0.9,5.4-1.5
	c3.2-1.2,6.1-2.9,8.6-5.2c1.7-1.6,3.1-3.4,4.2-5.4c1.3-2.3,2.2-4.8,2.9-7.5c0.5-1.9,0.7-3.8,1-5.7c0.1-1,0.2-2,0.2-3.1
	c0.1-1.8,0.1-3.6-0.1-5.4c0-0.4,0-0.8-0.1-1.1c0-1.2-0.2-2.3-0.3-3.5c-0.1-0.8-0.2-1.6-0.3-2.4c-0.1-0.4-0.1-0.9-0.2-1.3V72
	c-0.1,0-0.1,0-0.2,0.1c-0.2,0.4-0.4,0.8-0.6,1.2c-1.2,2.1-2.7,3.8-4.7,5.1c-1.5,1-3.1,1.6-4.9,1.9c-0.5,0.1-0.9,0.2-1.4,0.2
	c-3.7,0.1-6.9-1.1-9.5-3.6c-2-1.9-3.3-4.2-4.1-6.8c-0.8-2.6-0.9-5.2-0.3-7.8c0.7-3.5,2.3-6.4,5.1-8.7c1.9-1.6,4.1-2.6,6.6-3
	c1.7-0.2,3.3-0.2,5,0.3c1.2,0.3,2.3,0.8,3.3,1.4c0.2,0.1,0.4,0.2,0.6,0.3c0.2-0.2,0.1-0.3,0-0.5c-0.1-0.3-0.1-0.5-0.2-0.8
	c-1.2-3.2-2.5-6.3-4-9.3c-0.8-1.6-1.7-3.1-2.7-4.6c-2.1-3.1-4.2-6.1-6.4-9.2c-4-5.6-8.1-11.1-12.1-16.7c-2-2.7-4-5.3-5.9-8
	c-0.1-0.1-0.1-0.2-0.2-0.3C81.1,2.9,81.2,2.8,81.4,2.8z"/>
<path class="st1" d="M371,43.2c0,12.1,0,24.2,0,36.3c0,1.2,0,2.4,0,3.6c-0.1,1.3-0.2,2.7-0.3,4c-0.1,1.2-0.3,2.5-0.5,3.7
	c-0.8,4.9-2.2,9.5-4.4,13.9c-1.6,3.2-3.6,6.2-6,9c-4,4.6-8.6,8.2-14.2,10.7c-2.4,1.1-5,1.9-7.6,2.6c-2.4,0.5-4.7,0.9-7.2,1
	c-0.2,0-0.4,0-0.6,0c-1.7,0.3-3.4,0.2-5.1,0.2c-0.4,0-0.8,0-1.2-0.1c-0.6,0-1.1-0.1-1.7-0.2c-3.5-0.2-6.8-0.9-10.1-2
	c-3.1-1-6-2.4-8.8-4.1c-2.2-1.4-4.2-2.9-6.2-4.6c-2.9-2.5-5.4-5.4-7.5-8.6c-2.4-3.6-4.2-7.4-5.5-11.5c-0.8-2.6-1.3-5.2-1.6-7.9
	c-0.3-2.6-0.5-5.1-0.4-7.7c0.1-3.2,0.5-6.4,1.3-9.5c0.9-3.7,2.4-7.1,4.3-10.4c2.9-5,6.8-9.3,11.3-13c3.5-2.9,7.5-5.1,11.8-6.7
	c2-0.7,4-1.3,6.1-1.7c1-0.2,1.9-0.4,2.9-0.5c2.1-0.2,4.2-0.4,6.3-0.3c3.9,0.2,7.8,0.8,11.5,2.1c3.5,1.2,6.8,3,9.8,5.2
	c0.7,0.5,1.4,1.1,2.1,1.6c0.3,0.2,0.4,0.5,0.4,0.8s0,0.5,0,0.8c0,4.5,0,9.1,0,13.6c0,0.3,0,0.6,0,0.9c0,0.1-0.2,0.2-0.4,0.2
	c-0.2-0.2-0.5-0.4-0.7-0.6c-1.9-1.7-3.9-3.2-6-4.7c-2.6-1.8-5.4-3.2-8.5-4c-1.5-0.4-3.1-0.7-4.7-0.9c-0.8-0.1-1.6-0.2-2.5-0.2
	c-4.3,0-8.4,0.6-12.4,2.3c-3.9,1.7-7.2,4.2-10,7.4c-1.8,2.1-3.3,4.3-4.4,6.9c-0.8,1.8-1.4,3.7-1.9,5.7c-0.7,3.1-0.8,6.3-0.7,9.5
	c0.1,2.8,0.7,5.6,1.7,8.3c1.4,3.8,3.5,7.1,6.3,10c1.5,1.6,3.1,3,4.9,4.2c2.6,1.8,5.5,3,8.6,3.8c2.9,0.7,5.8,1,8.7,0.8
	c2.5-0.1,5-0.4,7.5-1.1c3.4-0.9,6.5-2.5,9.3-4.8c1.5-1.3,2.9-2.8,4-4.5c2.4-3.5,4.2-7.3,5.4-11.4c0.7-2.3,1.1-4.6,1.5-6.9
	c0.3-2.2,0.4-4.4,0.4-6.6c0-5.4,0-10.8,0-16.2c0-19.3,0-38.7,0-58c0-0.6,0-1.1,0-1.7c0-0.2,0.2-0.4,0.4-0.4c0.2,0,0.4-0.1,0.6-0.1
	c4.3,0,8.7,0,13,0c0.2,0,0.4,0,0.6,0s0.4,0.2,0.4,0.4s0,0.3,0,0.5c0,0.5,0,0.9,0,1.4C371,17,371,30.1,371,43.2z"/>
<path class="st1" d="M514.9,104.2c0,6.9,0,13.7,0,20.6c0,1.9,0.1,1.8-1.7,1.8c-3.9,0-7.8,0-11.8,0c-0.4,0-0.7,0-1.1,0
	c-0.2,0-0.5-0.3-0.5-0.5c0-0.5,0-1,0-1.5c0-11,0-22.1,0-33.1c0-1.8,0-3.5-0.1-5.3c-0.1-2.3-0.4-4.6-0.9-6.9c-0.6-3.2-1.6-6.2-3-9
	c-2.1-4.3-5.1-7.9-9-10.7c-2.3-1.6-4.8-2.8-7.5-3.6c-3.7-1.1-7.5-1.4-11.3-1.1c-4.1,0.3-7.9,1.4-11.5,3.4c-2.5,1.4-4.7,3.1-6.7,5.2
	c-1.8,1.9-3.4,4-4.7,6.3c-1.1,2-2,4.2-2.6,6.4c-0.9,3.2-1.1,6.4-1,9.6c0.1,2.6,0.5,5.2,1.3,7.7c0.7,2.2,1.6,4.3,2.9,6.3
	c2.3,3.6,5.2,6.6,8.8,9c2.6,1.8,5.5,3,8.6,3.8c1.6,0.4,3.1,0.7,4.7,0.8c0.5,0,1,0.1,1.5,0.2c3.6,0.1,7.2-0.4,10.6-1.7
	c3.7-1.4,7-3.3,10.1-5.6c1.1-0.8,2.2-1.7,3.3-2.6c0.1-0.1,0.3,0,0.4,0.2c0,0.1,0,0.2,0.1,0.3c0,0.2,0,0.4,0,0.6c0,4.4,0,8.9,0,13.3
	c0,0.3,0,0.5,0,0.8s-0.1,0.5-0.3,0.7c-0.5,0.4-0.9,0.8-1.4,1.2c-2.3,1.8-4.7,3.4-7.3,4.6c-2.8,1.4-5.8,2.2-8.8,2.6
	c-2.6,0.4-5.2,0.6-7.9,0.5c-0.2,0-0.4,0-0.6,0c-3.8-0.3-7.6-0.7-11.3-1.8c-3.6-1.1-7-2.7-10.2-4.8c-4.9-3.2-9.1-7.3-12.4-12.1
	c-2.5-3.6-4.4-7.4-5.6-11.6c-1.1-3.6-1.7-7.2-1.8-10.9c0-0.5-0.1-0.9-0.1-1.4c0-0.7-0.1-1.4,0-2.2c0.1-1.4,0.1-2.8,0.3-4.2
	c0.1-1.2,0.3-2.4,0.5-3.5c0.4-1.7,0.7-3.4,1.3-5.1c1.1-3.4,2.5-6.6,4.4-9.7c3.6-5.7,8.2-10.4,13.8-14.1c3.8-2.5,7.9-4.4,12.4-5.5
	c2.3-0.6,4.7-1,7.1-1.3c2.9-0.4,5.8-0.4,8.6-0.1c5,0.4,9.8,1.4,14.4,3.4c3.9,1.7,7.4,3.9,10.5,6.7c2.9,2.5,5.4,5.3,7.6,8.5
	c1.8,2.6,3.3,5.4,4.5,8.3c1.1,2.7,1.9,5.5,2.5,8.4c0.4,1.8,0.6,3.6,0.8,5.4c0.3,2.8,0.3,5.7,0.3,8.5
	C514.9,94.1,514.9,99.1,514.9,104.2z"/>
<path class="st1" d="M705.6,103.4c0,7.1,0,14.1,0,21.2c0,0.5,0,1,0,1.5c0,0.2-0.2,0.4-0.4,0.4c-0.5,0-0.9,0-1.4,0
	c-2.3,0-4.5,0-6.8,0c-1.5,0-3,0-4.5,0c-0.4,0-0.7,0-1.1,0c-0.6,0-0.8-0.2-0.8-0.7c0-0.2,0-0.4,0-0.6c0-0.4,0-0.7,0-1.1
	c0-12,0-23.9,0-35.9c0-4.9-0.7-9.8-2.4-14.4c-1.6-4.5-4.1-8.5-7.6-11.9c-3.1-2.9-6.6-5-10.8-6.1c-4-1.1-8-1.4-12.1-0.9
	c-1.7,0.2-3.4,0.5-5,1c-3.2,0.9-6,2.4-8.6,4.4c-2.9,2.2-5.3,4.8-7.2,7.8c-2,3.1-3.3,6.4-4,10c-0.4,2.3-0.7,4.6-0.6,6.9
	c0.1,3.6,0.7,7.2,2.1,10.6c1.1,2.8,2.7,5.4,4.7,7.7c1.8,2,3.7,3.8,6,5.3c2.6,1.8,5.4,3,8.4,3.8c2.6,0.7,5.3,1,7.9,1
	c3.2,0,6.2-0.6,9.2-1.6c3.8-1.4,7.2-3.4,10.3-5.8c1-0.8,2-1.6,3-2.4c0.1-0.1,0.2-0.1,0.3-0.1s0.2,0.1,0.2,0.4c0,0.4,0,0.8,0,1.2
	c0,3.5,0,7,0,10.5c0,0.9,0,1.9,0,2.8c0,0.5-0.1,0.9-0.5,1.2c-2.7,2.2-5.6,4.2-8.8,5.7c-1.4,0.6-2.7,1.2-4.2,1.6
	c-2.4,0.7-4.8,1.1-7.3,1.3c-1.6,0.1-3.3,0.2-4.9,0.2c-0.5,0-0.9,0-1.4-0.1c-0.7-0.1-1.3-0.1-2-0.2c-2.9-0.2-5.8-0.8-8.6-1.7
	c-2.7-0.8-5.2-1.9-7.7-3.3c-2.3-1.3-4.5-2.8-6.5-4.5c-2.8-2.4-5.3-5-7.5-8c-2.7-3.6-4.7-7.5-6.1-11.7c-0.7-2.2-1.2-4.5-1.6-6.8
	c-0.7-3.9-0.8-7.8-0.5-11.7c0.2-3.6,1-7.1,2.1-10.6c1.6-4.8,4-9.1,7.2-13c2.7-3.3,5.8-6.3,9.2-8.8c3.2-2.3,6.6-4.2,10.3-5.5
	c2.8-1,5.6-1.7,8.5-2.1c3.6-0.6,7.2-0.7,10.8-0.4c4.4,0.3,8.7,1.2,12.8,2.7c3.9,1.5,7.5,3.5,10.7,6.1c3.4,2.7,6.4,5.8,8.9,9.4
	c2.4,3.4,4.2,7.1,5.6,11c1.1,3.3,1.8,6.6,2.3,10.1c0.3,2.2,0.3,4.3,0.3,6.5C705.6,91.6,705.6,97.5,705.6,103.4z"/>
<path class="st1" d="M605.1,99.5c0,8.3,0,16.7,0,25c0,0.5,0,1,0,1.5c0,0.1-0.3,0.4-0.4,0.4c-0.2,0-0.4,0-0.6,0c-4.3,0-8.6,0-12.8,0
	c-0.3,0-0.5,0-0.8,0c-0.2,0-0.4-0.2-0.4-0.4c0-0.2,0-0.3,0-0.5c0-0.5,0-0.9,0-1.4c0-14.4,0-28.9,0-43.3c0-2.5-0.2-5-0.7-7.5
	c-0.5-2.7-1.3-5.4-2.6-7.9c-1.4-2.7-3.2-5.1-5.7-7c-1.4-1.1-3-1.9-4.6-2.5c-2.8-1-5.7-1.4-8.7-1.3c-1.8,0-3.6,0.2-5.4,0.6
	c-4.9,1.1-8.8,3.6-11.5,7.9c-1.3,2-2.1,4.1-2.8,6.3c-0.8,2.8-1.3,5.7-1.4,8.7c0,0.1,0,0.2,0,0.3c-0.3,1.8-0.2,3.6-0.2,5.4
	c0,13.5,0,27,0,40.5c0,0.5,0,1,0,1.5c0,0.4-0.2,0.5-0.6,0.6c-0.3,0-0.6,0-0.9,0c-4,0-7.9,0-11.9,0c-0.4,0-0.7,0-1.1,0
	c-0.2,0-0.4-0.2-0.4-0.4c0-0.2,0-0.3,0-0.5c0-0.4,0-0.8,0-1.2c0-15.4,0-30.7,0-46.1c0-1.1,0-2.2,0.1-3.2c0.1-1.9,0.3-3.7,0.6-5.5
	c0.6-3.5,1.6-6.8,3.1-10c1.4-3,3.3-5.8,5.6-8.3c2.6-2.9,5.6-5.3,9-7.1c3.5-1.9,7.3-3.1,11.2-3.7c0.9-0.1,1.8-0.3,2.8-0.4
	c1.6-0.2,3.3-0.2,4.9-0.2c1.7,0,3.4,0.1,5.1,0.3c3.5,0.5,6.9,1.2,10.1,2.6c3.9,1.7,7.3,4,10.3,7c4.4,4.4,7.3,9.5,9,15.5
	c0.7,2.5,1.1,5,1.5,7.6c0.1,0.4,0,0.7,0.1,1.1c0.1,2.2,0.2,4.4,0.2,6.6C605.1,86.8,605.1,93.2,605.1,99.5z"/>
<path class="st1" d="M196.9,100.3c0-6.8,0-13.6,0-20.4c0-1.5,0-3,0.1-4.5c0.1-2.1,0.3-4.2,0.8-6.3c0.4-1.8,0.8-3.5,1.3-5.2
	c1.6-4.8,4-9,7.3-12.8c2.6-2.9,5.6-5.3,9.1-7.1c2.1-1.1,4.3-2,6.6-2.6c2.3-0.7,4.7-1,7.1-1.3c2.8-0.3,5.6-0.3,8.3-0.1
	c3.2,0.2,6.3,0.8,9.4,1.8c4.1,1.4,7.9,3.5,11.2,6.4c4.2,3.6,7.2,8,9.3,13.1c1.3,3.1,2.1,6.4,2.5,9.7c0.4,3,0.6,5.9,0.6,8.9
	c0,14.9,0,29.8,0,44.7c0,0.5,0,1,0,1.5c0,0.2-0.2,0.4-0.4,0.4c-0.2,0-0.4,0-0.6,0c-4.3,0-8.7,0-13,0c-0.2,0-0.4,0-0.6,0
	c-0.2,0-0.4-0.2-0.4-0.4c0-0.5,0-0.9,0-1.4c0-5.3,0-10.5,0-15.8c0-8.8,0-17.6,0-26.4c0-2.3,0-4.6-0.3-6.9c-0.5-4.1-1.6-8-3.7-11.5
	c-2-3.4-4.8-6-8.5-7.6c-1.8-0.8-3.6-1.2-5.5-1.5c-1.9-0.2-3.8-0.3-5.7-0.2c-2,0.2-4,0.5-5.9,1.1c-4,1.3-7.1,3.7-9.4,7.2
	c-1.1,1.6-1.8,3.3-2.5,5.1c-0.8,2.3-1.3,4.7-1.6,7.1c-0.1,1.1-0.3,2.2-0.4,3.4c-0.1,1.6-0.1,3.2-0.1,4.8c0,13.7,0,27.3,0,41
	c0,0.6,0,1.1,0,1.7c0,0.2-0.2,0.4-0.4,0.4c-0.3,0-0.5,0-0.8,0c-4.2,0-8.3,0-12.5,0c-0.1,0-0.1,0-0.2,0c-1,0-1.1-0.1-1.1-1
	c0-0.4,0-0.8,0-1.2C196.9,116.3,196.9,108.3,196.9,100.3z"/>
<path class="st1" d="M158.6,63.9c0-20,0-40.1,0-60.1c0-0.6,0-1.1,0-1.7c0-0.2,0.2-0.4,0.4-0.4c0.3,0,0.5,0,0.8,0c4.2,0,8.5,0,12.7,0
	c0.3,0,0.6,0,0.9,0.1c0.1,0,0.2,0.1,0.2,0.2c0,0.1,0.1,0.2,0.1,0.3c0,0.5,0,0.9,0,1.4c0,40.3,0,80.6,0,120.9c0,0.5,0,1,0,1.5
	c0,0.2-0.2,0.4-0.4,0.4s-0.4,0-0.6,0c-4.3,0-8.7,0-13,0c-0.3,0-0.5,0-0.8-0.1c-0.1,0-0.2-0.1-0.2-0.2c-0.1-0.1-0.1-0.3-0.1-0.4
	c0-0.5,0-1,0-1.5C158.6,104.1,158.6,84,158.6,63.9z"/>
<path class="st1" d="M393.7,84.1c0-13.5,0-27,0-40.5c0-0.5,0-1,0-1.5c0-0.2,0.2-0.4,0.4-0.4c0.2,0,0.4,0,0.6,0c4.3,0,8.7,0,13,0
	c0.2,0,0.4,0,0.6,0s0.4,0.2,0.4,0.4s0,0.3,0,0.5c0,0.4,0,0.8,0,1.2c0,26.9,0,53.8,0,80.7c0,0.6,0,1.1,0,1.7c0,0.2-0.2,0.4-0.4,0.4
	c-0.2,0-0.4,0-0.6,0c-4.3,0-8.7,0-13,0c-0.2,0-0.4,0-0.6,0s-0.4-0.2-0.4-0.4c0-0.5,0-0.9,0-1.4c0-5.9,0-11.7,0-17.6
	C393.7,99.4,393.7,91.7,393.7,84.1z"/>
<path class="st2" d="M401.4,140c6-0.1,11.1,4.6,11.1,11.1c0,5.8-4.7,10.9-11.1,10.9c-6.2,0-11-5.2-10.9-10.9
	C390.4,144.8,395.7,139.9,401.4,140z"/>
<path class="st2" d="M176.9,151.2c0.1,5.6-4.7,10.9-11,10.8c-6.5,0-11-5.3-11-11c0-6.2,5.1-11,11.2-11
	C171.8,140,177,144.9,176.9,151.2z"/>
<path class="st3" d="M457.6,153.2c0,1.4,0,2.7,0,3.9c0,0.9-0.5,1.5-1.3,2.1c-1.3,0.8-2.4,1.5-4,2.1c-5.1,2.1-12.5,1.5-16.4-2.6
	c-1.1-1.1-1.7-2.1-2.4-3.4c-1.7-4.1-2.1-8.3-0.6-12.3c0.6-1.8,1.3-3.5,2.8-5c1.6-1.6,3.5-2.8,6.2-3.5c3.8-0.8,7.4-0.6,10.6,1.1
	c1.1,0.6,2.1,1.2,2.7,2.1c0.6,0.9,1.1,1.6,1.6,2.6c0.9,1.9,0.9,1.9-2.1,2.6c-0.2,0-0.6,0-0.9-0.3c-0.2-0.6-0.5-1.2-0.9-1.8
	c-0.5-0.9-1.3-1.8-2.4-2.6c-1.7-0.9-3.5-1.4-5.7-1.1c-3,0.3-5.2,1.4-6.6,3.4c-1.3,1.6-2.1,3.4-2.2,5.1c-0.2,1.8-0.2,3.6,0,5.3
	c0.2,1.5,0.9,3,1.7,4.5c1.1,1.5,2.8,2.7,5.1,3.4c2.1,0.6,4.1,0.6,6.3-0.1c1.1-0.3,2.1-0.8,2.8-1.2c1.1-0.6,1.7-1.4,1.7-2.4
	c-0.2-1.1,0-2.1,0-3.4c0-0.3-0.5-0.6-0.9-0.6c-1.7,0-3.3,0-5.1,0c-0.5,0-0.9,0-1.3-0.1c-0.2,0-0.5-0.1-0.5-0.3
	c0-0.6-0.2-1.1-0.2-1.6c0-1.1,0.2-1.2,1.7-1.2c2.8,0,6,0,8.9,0c0.6,0,1.1,0.3,1.1,0.8C457.6,150.1,457.6,151.7,457.6,153.2
	L457.6,153.2z"/>
<path class="st3" d="M635,148.4c0-3.9,0-7.8,0-11.6c0-0.4,0-0.9,0-1.4c0-0.1,0.2-0.4,0.6-0.4c0.6,0,1.3,0,2.1,0
	c0.2,0,0.6,0.3,0.6,0.4c0,0.6,0,1.1,0,1.6c0,2.1,0,4.2,0,6.3c0,0.1,0.2,0.3,0.5,0.3c0.2,0,0.5,0,0.6,0c0.5-0.3,0.9-0.6,1.3-0.8
	c2.2-1.1,4.4-1.2,6.6-0.4c1.3,0.4,2.4,1.2,2.8,2.1c0.5,0.6,0.6,1.4,0.6,1.9c0.2,0.8,0.2,1.5,0.2,2.3c0,3.9,0,8,0,11.9
	c0,0.4,0,0.8-0.2,1.2c0,0.1-0.2,0.3-0.5,0.3c-0.6,0-1.1,0-1.7,0c-0.6,0-1.1-0.3-1.1-0.8c0-1.2,0-2.3,0-3.5c0-2.7,0-5.3,0-8
	c0-0.8,0-1.4-0.2-2.1c0-0.8-0.5-1.4-1.1-1.9c-0.9-0.9-2.7-1.4-4.1-1.1c-1.3,0.3-2.2,0.9-2.8,1.6c-0.5,0.8-0.9,1.4-1.1,2.3
	c-0.2,1.2-0.2,2.3-0.2,3.5c0,2.8,0,5.5,0,8.4c0,0.4,0,0.8-0.2,1.2c0,0.1-0.2,0.3-0.5,0.3c-0.6,0-1.3,0-2.1,0c-0.2,0-0.6-0.3-0.6-0.4
	c-0.2-0.4-0.2-0.9-0.2-1.4C635,156.2,635,152.3,635,148.4z"/>
<path class="st3" d="M697.6,162.6c-1.7,0-3.5-0.1-5.1-1.1c-0.6-0.4-1.3-0.9-1.7-1.5c-0.6-0.9-1.1-1.8-1.6-2.8
	c-0.2-0.6,0.2-1.1,1.1-1.2c0.5-0.1,0.9-0.1,1.3-0.1c0.5,0,0.6,0.1,0.9,0.3c0.2,0.4,0.5,0.9,0.6,1.4c0.2,0.4,0.6,0.9,1.1,1.2
	c0.6,0.6,1.6,0.9,2.7,1.1c0.6,0,1.3,0,2.1,0c1.6-0.1,2.4-0.8,3-1.6c0.5-0.8,0.5-1.5,0.2-2.3c-0.2-0.3-0.6-0.8-0.9-0.9
	c-0.9-0.4-1.7-0.8-2.7-0.9c-1.3-0.3-2.7-0.8-4-1.2c-2.7-0.8-3.8-2.1-4.4-3.9c-0.5-1.6,0-3.1,1.1-4.7c0.6-0.8,1.3-1.2,2.4-1.6
	c2.4-1.1,6.8-0.8,9,0.4c0.6,0.4,1.6,1.1,1.7,1.6c0.2,0.3,0.5,0.8,0.5,1.1c0.5,1.6,0.6,1.6-1.7,1.9c-0.6,0.1-1.1-0.1-1.3-0.6
	c-0.2-0.4-0.5-1.1-0.9-1.5c-0.6-0.6-1.6-1.1-2.7-1.1c-0.6,0-1.3,0-2.1,0c-1.6,0.1-2.7,1.1-2.8,1.9c-0.2,1.1,0.5,1.9,2.1,2.6
	c1.1,0.3,2.2,0.6,3.5,1.1c0.9,0.3,2.1,0.6,2.8,0.8c2.8,0.9,4.4,2.4,4.4,4.5c0,1.2,0,2.4-0.6,3.5
	C703.7,161.2,701.4,162.6,697.6,162.6z"/>
<path class="st3" d="M561.1,150c0-3.5,0-6.9,0-10.5c0-0.4,0-0.8-0.2-1.2c0-0.1-0.2-0.3-0.5-0.3c-0.5,0-0.9-0.1-1.3-0.1
	c-1.7,0-3.5,0-5.5,0c-1.3,0-1.7-0.3-1.7-1.2c0-0.4,0-0.9,0-1.4c0-0.3,0.5-0.6,0.9-0.6c0.2,0,0.2,0,0.5,0c6.3,0,12.8,0,19,0
	c0.5,0,0.6,0,1.1,0.1c0.2,0,0.5,0.1,0.5,0.3c0,0.1,0,0.3,0,0.4c0,2.4,0.5,2.4-3.5,2.4c-1.6,0-3,0-4.9,0c-0.5,0-0.9,0.3-0.9,0.6
	c0,0.8,0,1.4,0,2.1c0,6.3,0,12.6,0,18.8c0,0.6,0,1.2,0,1.8c0,0.4-0.5,0.6-1.1,0.8c-0.6,0-1.1,0-1.7,0c-0.2,0-0.6-0.3-0.6-0.4
	c-0.2-0.4-0.2-0.9-0.2-1.4C561.1,156.9,561.1,153.4,561.1,150z"/>
<path class="st3" d="M614.6,151.9c0.2-2.3,0.5-4.3,1.7-6.3c0.6-1.1,1.6-1.8,2.8-2.6c2.8-1.8,8.5-1.6,11.1,1.2
	c0.9,1.1,1.3,2.1,1.7,3.4c0,0.3-0.2,0.8-0.6,0.8c-0.6,0.1-1.3,0.1-2.1,0.1c-0.2,0-0.5-0.1-0.5-0.1c-0.2-0.3-0.5-0.6-0.6-0.9
	c-0.2-0.4-0.5-1.1-0.9-1.5c-1.3-1.4-3.8-1.8-6-0.4c-0.9,0.6-1.6,1.4-2.1,2.1c-0.2,0.3-0.5,0.8-0.5,1.1c-0.6,2.6-0.6,5.3,0.2,7.8
	c0.2,0.9,0.9,1.5,1.7,2.3c1.6,1.4,4.9,1.4,6.3-0.3c0.6-0.8,1.1-1.5,1.3-2.4c0.2-0.3,0.2-0.6,0.5-0.9c0-0.1,0.5-0.1,0.5-0.3
	c0.6-0.1,1.3,0,2.1,0.1c0.2,0.1,0.6,0.3,0.6,0.4c-0.2,2.1-1.3,4.1-3.5,5.5c-1.1,0.8-2.4,1.1-4,1.2c-3.3,0.1-5.7-0.8-7.3-2.7
	c-1.1-1.2-1.7-2.7-2.1-4.2C614.9,154.4,614.9,153.2,614.6,151.9z"/>
<path class="st3" d="M465.9,148.4c0,3.9,0,7.8,0,11.9c0,0.4,0,0.9,0,1.4c0,0.1-0.2,0.3-0.5,0.3c-0.9,0.3-1.7,0.3-2.7,0
	c-0.2,0-0.2-0.1-0.5-0.3c0-0.3-0.2-0.6-0.2-0.9c0-8.1,0-16.5,0-24.6c0-0.3,0-0.6,0-0.9c0-0.1,0.2-0.3,0.5-0.3c0.9-0.1,1.6-0.1,2.4,0
	c0.2,0,0.5,0.1,0.5,0.3c0,0.3,0.2,0.8,0.2,1.2C465.9,140.3,465.9,144.3,465.9,148.4z"/>
<path class="st3" d="M538.5,148.4c0,3.9,0,8,0,11.9c0,0.4,0,0.9-0.2,1.4c0,0.1-0.2,0.3-0.5,0.3c-0.6,0.1-1.3,0.1-2.1,0.1
	c-0.5,0-0.6-0.1-0.6-0.4c0-0.1-0.2-0.4-0.2-0.8c0-8.4,0-16.7,0-25.1c0-0.3,0-0.4,0-0.8c0-0.1,0.2-0.3,0.5-0.3c0.9-0.1,1.6-0.1,2.4,0
	c0.2,0,0.5,0.1,0.5,0.3c0,0.4,0.2,0.9,0.2,1.4C538.7,140.5,538.5,144.5,538.5,148.4z"/>
<path class="st4" d="M98.2,40.5c0.1-0.1,0.2-0.2,0.3-0.2c0.3,0.2,0.4,0.5,0.5,0.8v0.1h-0.1C98.6,41,98.3,40.8,98.2,40.5z"/>
<path class="st5" d="M81.4,2.8c-0.1,0.1-0.2,0.2-0.3,0.3c-0.2-0.1-0.3-0.3-0.4-0.4c0-0.2,0-0.3,0.2-0.2C81.1,2.6,81.3,2.6,81.4,2.8z
	"/>
<path class="st6" d="M36.1,90c-0.1,0.1-0.2,0.2-0.2,0.2c-0.2-0.1-0.3-0.3-0.4-0.4c-0.1-0.2,0-0.3,0.2-0.3
	C35.9,89.7,36.1,89.8,36.1,90z"/>
<path class="st7" d="M53.2,127.9c0.1-0.1,0.2-0.2,0.2-0.2c0.2,0.1,0.3,0.2,0.3,0.4c0,0,0,0.1,0,0.2c0,0-0.1,0.1-0.2,0
	C53.4,128.1,53.2,128.1,53.2,127.9z"/>
<path class="st8" d="M80.9,2.4c-0.1,0-0.2,0.1-0.2,0.2c-0.2-0.1-0.3-0.2-0.3-0.4V2.1C80.4,2,80.5,2,80.6,2
	C80.7,2.2,80.9,2.3,80.9,2.4z"/>
<path class="st9" d="M35.7,89.6c-0.1,0-0.2,0.1-0.2,0.3c-0.1-0.1-0.2-0.2-0.3-0.4c0-0.1,0-0.1,0.1-0.2h0.1
	C35.5,89.3,35.7,89.4,35.7,89.6z"/>
<path class="st3" d="M687,142c-1.6-0.4-2.8-0.4-4,0.4c-0.2,0.1-0.5,0.1-0.5,0.3c0,0.4-0.5,0.8-0.6,1.1c-0.2,0.1-0.2,0.1-0.5,0.3
	c0-0.1-0.2-0.3-0.2-0.4s0-0.3,0-0.4l0,0c0-0.1,0-0.3-0.2-0.4c0-0.1-0.2-0.3-0.2-0.3c-0.6-0.3-1.6-0.3-2.2,0c-0.2,0-0.5,0.1-0.5,0.3
	c0,0.4-0.2,0.8-0.2,1.2c0,5.5,0,11.2,0,16.7c0,0.3,0,0.6,0,0.9c0,0.3,0.5,0.6,0.9,0.6c0.6,0,1.1,0,1.7,0c0.2,0,0.6-0.3,0.6-0.4
	c0.2-0.3,0.2-0.8,0.2-1.2c0-2.8,0-5.7,0-8.6c0-1.4,0.2-2.6,0.6-3.9c0.2-0.6,0.6-1.2,1.1-1.6c0.6-0.8,1.7-1.1,3.3-0.8
	c0.2,0,0.6,0.1,0.9,0.3c0.5,0,0.6,0,0.9-0.3c0.2-0.4,0.5-1.1,0.6-1.5C688.9,142.8,688.4,142.5,687,142z"/>
<path class="st10" d="M112.6,52c0.1,0.1,0.2,0.3,0.2,0.4c0,0,0,0.1-0.1,0.1s-0.1,0-0.1-0.1C112.6,52.3,112.6,52.1,112.6,52z"/>
<path class="st3" d="M509.3,148.5c-0.2-1.1-0.9-2.1-1.3-3.1c-0.6-1.1-1.6-1.9-3-2.7c-2.1-1.1-5.5-1.2-7.4,0.1
	c-0.5,0.3-0.6,0.8-1.3,0.6c-0.9-0.1-0.5-0.8-0.5-1.2c0-1.9,0-3.9,0-5.8c0-0.4,0-0.8,0-1.2c0-0.1-0.2-0.4-0.6-0.4c-0.6,0-1.3,0-2.1,0
	c-0.2,0-0.5,0.1-0.5,0.3c0,0.4-0.2,0.9-0.2,1.4c0,3.9,0,8,0,11.9s0,8,0,11.9c0,0.4,0,0.9,0,1.4c0,0.1,0.2,0.4,0.6,0.4
	c0.5,0,0.9,0,1.3,0c0.6,0,1.1-0.3,1.1-0.8c0-0.1,0-0.1,0-0.3c0.2-0.4,0.5-0.6,0.9-0.3c0.6,0.6,1.6,1.2,2.7,1.4
	c2.1,0.3,4,0.3,5.7-0.8c1.7-1.1,2.8-2.4,3.5-3.9C509.9,154.7,509.9,151.6,509.3,148.5z M505.5,156.3c-0.5,0.9-1.1,1.6-2.1,2.4
	c-1.6,1.2-4.1,1.2-5.7,0c-1.1-0.9-1.7-1.9-2.1-3.1c-0.5-2.1-0.5-4.3,0-6.5c0.2-1.2,0.9-2.3,2.1-3.1c0.2-0.3,0.6-0.4,0.9-0.8
	c1.6-0.9,3.5-0.8,4.9,0.1c0.9,0.8,1.6,1.5,2.1,2.4c0.2,0.8,0.6,1.6,0.6,2.6c0,0.6,0,1.2,0,1.8C506.1,153.6,506.1,155,505.5,156.3z"
	/>
<path class="st3" d="M611.4,161.5c-0.6-1.1-0.6-2.1-0.6-3.1c0-0.9,0-1.6,0-2.6c0-2.1,0-4.3,0-6.5c0-1.4-0.2-2.7-0.5-3.9
	c-0.5-1.8-2.1-2.8-4.6-3.4c-2.1-0.3-4-0.3-6,0.1c-0.9,0.1-1.7,0.4-2.4,0.9c-2.2,1.2-2.8,2.7-3.3,4.5c0,0.3,0.2,0.4,0.5,0.4
	c0.2,0,0.5,0.1,0.6,0.1c1.6,0.3,2.1,0.3,2.4-0.8c0.2-0.4,0.5-0.9,0.6-1.4c0.5-0.6,1.1-1.1,2.1-1.2c1.3-0.3,2.7-0.3,4,0
	s2.1,0.9,2.4,1.8c0.2,0.6,0.2,1.2,0.2,1.8s-0.5,1.1-1.1,1.2c-1.6,0.4-3.3,0.6-4.9,0.9c-0.9,0.1-1.6,0.1-2.4,0.3
	c-1.7,0.3-3,1.1-4,2.1c-1.7,1.9-1.7,3.9-1.1,6.1c0.2,0.9,0.9,1.5,1.7,2.3c0.9,0.6,1.7,0.9,2.8,1.1c2.7,0.3,4.9,0,7.1-1.2
	c0.6-0.3,1.1-0.9,2.1-0.9c0.2,0.4,0.5,0.9,0.6,1.4c0.2,0.3,0.5,0.6,0.9,0.6c0.6,0,1.3,0,2.1,0C611.1,162.1,611.6,161.6,611.4,161.5z
	 M606.7,155.8c-0.2,0.4-0.5,1.1-0.6,1.5c-0.9,1.4-2.4,2.3-4.6,2.6c-2.1,0.3-4-0.4-4.4-1.8c-0.2-0.4-0.2-1.1-0.2-1.6
	c0.2-1.4,1.1-2.3,3-2.7c2.1-0.4,4.1-0.8,6.2-1.1c0.2,0,0.5,0,0.5,0.1c0,0.3,0.2,0.8,0.2,1.1C607,154.6,607,155.1,606.7,155.8z"/>
<path class="st3" d="M673.2,156.1c-0.6-0.1-1.3-0.3-2.1-0.3c-0.6-0.1-1.1,0.1-1.3,0.4c-0.5,0.9-0.9,1.6-2.1,2.4
	c-0.6,0.6-1.6,0.9-2.7,0.9c-1.6,0.1-2.8-0.3-4-1.1c-1.3-1.2-2.1-2.6-2.2-4.1c-0.2-1.2,0-1.4,1.7-1.4c1.7,0,3.5,0,5.5,0l0,0
	c1.6,0,3,0,4.9,0c0.6,0,1.1,0,1.7,0c0.6,0,1.1-0.3,0.9-0.8c0-0.8,0-1.5,0-2.3c0-1.5-0.6-2.8-1.6-4.2c-0.5-0.9-1.3-1.8-2.4-2.6
	c-2.7-1.9-7.7-1.8-10.1,0c-1.3,0.9-2.4,2.1-3,3.4c-1.6,3.5-1.7,6.9-0.6,10.4c0.2,0.8,0.6,1.6,1.3,2.4c2.2,2.7,4.9,3.5,8.5,3.4
	c1.7-0.1,3.3-0.6,4.4-1.5c1.7-1.2,2.7-2.7,3-4.3c0,0,0-0.1,0-0.3C673.4,156.3,673.2,156.2,673.2,156.1z M659.3,149
	c0.2-1.2,0.9-2.3,2.1-3.1c2.1-1.6,5.1-1.6,7.1,0c1.3,1.1,1.7,2.3,2.1,3.6c0,0.4-0.2,0.8-0.9,0.8c-1.6,0-3,0-4.9,0l0,0
	c-1.3,0-2.4,0-3.8,0C659.1,150.1,659.1,149.9,659.3,149z"/>
<path class="st3" d="M530.8,161.3c-0.9-1.9-0.6-3.8-0.9-5.7c0-0.9,0-1.8,0-2.8l0,0c0-1.8,0-3.6,0-5.4c0-0.9-0.2-1.6-0.5-2.6
	c-0.9-1.8-2.7-2.8-5.2-3.1c-1.3-0.1-2.4-0.1-3.8,0c-2.8,0.3-4.9,1.2-6,3c-0.5,0.8-0.9,1.6-1.1,2.4c0,0.3,0.2,0.4,0.5,0.6
	c0.5,0.1,1.1,0.3,1.6,0.3c0.6,0.1,1.1-0.1,1.3-0.4c0.2-0.8,0.5-1.4,1.1-1.9c0.5-0.4,0.9-0.8,1.6-0.9c1.6-0.4,3-0.4,4.6,0
	c0.6,0.1,1.3,0.6,1.7,1.1c0.6,0.9,0.9,1.9,0.6,2.8c0,0.1-0.2,0.4-0.5,0.6c-0.9,0.3-1.7,0.4-2.7,0.6c-1.1,0.1-2.2,0.3-3.3,0.4
	c-0.6,0.1-1.1,0.1-1.7,0.3c-3,0.6-4.9,2.1-5.5,4.2c-0.5,1.2-0.2,2.3,0,3.5c0.2,1.1,1.1,2.1,2.2,2.8c0.6,0.3,1.3,0.8,2.1,0.8
	c2.7,0.4,5.2,0.3,7.3-0.9c0.5-0.3,1.1-0.6,1.6-0.9c0.2-0.1,0.6-0.1,0.9,0.1c0.2,0.1,0.2,0.4,0.2,0.6c0.2,0.8,0.6,0.9,1.6,0.9
	c0.5,0,0.9,0,1.3,0C530.3,162.1,530.8,161.6,530.8,161.3z M525.7,157c-0.5,0.8-1.1,1.5-2.2,1.9c-1.1,0.6-2.2,0.9-3.5,0.8
	c-1.6,0-2.8-0.4-3.3-1.5c-0.5-0.9-0.6-1.8-0.2-2.7c0.5-0.9,1.1-1.5,2.4-1.8c0.2,0,0.6-0.1,0.9-0.1c2.1-0.1,3.8-0.6,5.5-1.1
	c0.5-0.1,0.9,0.1,0.9,0.4c0,0.1,0,0.1,0,0.3c0,0.3,0,0.4,0,1.1C526.7,154.9,526.2,155.9,525.7,157z"/>
<path class="st3" d="M589.1,146.2c-0.6-1.2-1.6-2.3-2.8-3.1c-2.7-1.8-7.4-1.8-10-0.1c-0.9,0.6-1.7,1.2-2.2,1.9
	c-0.9,1.2-1.6,2.6-1.7,3.9c-0.5,2.1-0.5,4.3,0,6.5c0.2,1.4,0.9,2.7,2.1,3.9c0.6,0.9,1.6,1.5,2.7,2.1c0.9,0.4,2.1,0.8,3,0.9
	c0.9,0,1.6,0,2.4,0c2.1,0,3.8-0.6,5.1-1.6c1.3-1.1,2.2-2.4,2.7-3.8c0.2-0.8,0-1.1-1.1-1.2c-0.5,0-0.6-0.1-1.1-0.1
	c-0.6,0-1.1,0-1.3,0.4c-0.5,0.8-0.9,1.6-1.7,2.3c-0.6,0.6-1.7,1.1-2.8,1.1c-1.6,0.1-2.8-0.3-4-1.1c-1.7-1.5-2.4-3.1-2.4-5
	c0-0.1,0.5-0.4,0.6-0.4c2.2,0,4.6,0,6.8,0c0,0,0,0,0-0.1c2.2,0,4.4,0,6.3,0c0.5,0,0.9-0.3,0.9-0.6
	C590.4,150.4,590.1,148.2,589.1,146.2z M584.5,150.1c-1.3,0-2.4,0-3.8,0l0,0c-1.6,0-2.8,0-4.4,0c-0.5,0-0.6-0.3-0.6-0.4
	c0-1.4,0.6-2.7,2.1-3.9c0.2-0.1,0.5-0.3,0.6-0.4c1.7-1.1,4.6-1.1,6.2,0.3c1.1,0.9,1.7,1.9,2.1,3.1
	C586.7,150,586.4,150.1,584.5,150.1z"/>
<path class="st3" d="M487.3,146.2c-0.5-0.8-1.1-1.5-1.7-2.3c-1.7-1.6-4-2.4-7.1-2.3c-1.6,0.1-2.8,0.4-4,1.1
	c-1.1,0.6-2.2,1.4-2.8,2.3c-0.9,1.1-1.3,2.3-1.6,3.5c-0.5,2.3-0.5,4.7,0,6.9c0.2,1.2,0.9,2.4,1.6,3.5c0.6,0.9,1.6,1.6,2.8,2.3
	c0.6,0.4,1.6,0.8,2.4,0.8c3.3,0.4,6,0,8.4-1.8c1.3-0.9,2.1-2.1,2.4-3.4c0.6-1.6,0.9-3.5,0.9-5.3C488.5,150,488.1,148.1,487.3,146.2z
	 M484.4,156.1c-0.5,1.1-1.1,1.8-2.1,2.7c-1.7,1.4-4.9,1.2-6.3,0c-0.9-0.6-1.6-1.4-1.7-2.3c-0.6-1.4-0.6-2.8-0.6-4.3
	c0-1.5,0-2.8,0.6-4.3c0.5-0.8,1.1-1.5,1.7-2.3c1.7-1.4,4.6-1.4,6.3,0c1.1,0.8,1.7,1.8,2.2,2.8C485.2,150.9,485.1,153.5,484.4,156.1z
	"/>
</svg>
