<?xml version="1.0" encoding="utf-8"?>
<!-- Generator: Adobe Illustrator 23.0.0, SVG Export Plug-In . SVG Version: 6.00 Build 0)  -->
<svg version="1.1" id="Layer_1" xmlns="http://www.w3.org/2000/svg" xmlns:xlink="http://www.w3.org/1999/xlink" x="0px" y="0px"
	 viewBox="0 0 150 150" style="enable-background:new 0 0 150 150;" xml:space="preserve">
<style type="text/css">
	.st0{display:none;fill:#FEFEFE;}
	.st1{fill:#414141;}
</style>
<path class="st0" d="M267.8,102c0,54.2,0,108.5,0.1,162.7c0,2.6-0.5,3.1-3.1,3.1c-126-0.1-252-0.1-378,0c-2.6,0-3.1-0.5-3.1-3.1
	c0.1-27.5,0.1-55,0.1-82.5c2.4,0.6,2.2,2.8,2.7,4.4c3.7,11.6,11.2,19.5,22.2,24.4c5.5,2.5,11.4,2.9,17.2,3
	c24.7,0.2,49.5,0.1,74.2,0.1c1.8,0,3.5-0.1,5.2-0.8c1.9-0.8,3.3-2,3-4.2c-0.3-2.2-1.6-3.6-3.9-4c-1.5-0.3-3-0.2-4.5-0.2
	c-24.5,0-49,0.1-73.5,0c-9.1,0-17.5-2.1-24.2-9.1c-5.3-5.5-8.2-12-8.2-19.5c-0.2-36.4-0.1-72.7-0.1-109.1c0-0.2,0-0.5,0-0.7
	c0.2-1.3-0.2-3.1,1.4-3.5c1.3-0.3,2.1,1.1,2.9,2.1c6.6,8.4,14.6,15,24.3,19.5c6,2.7,12.2,4.4,18.6,5.5c4.8,0.8,5,1.2,5,6.2
	c0,5.4,0.3,10.8-0.1,16.1c-0.6,8.5,6.8,19.2,19.5,19.7c10.6,0.4,19.9-8.3,20.4-19c0.3-5.7,0-11.5,0.1-17.2c0.1-4.7,0.7-5.5,5.5-5.5
	c28.2,0,56.5,0,84.7,0c5,0,5.9,0.9,6.2,6.7c0.3,5.8,1.1,11.4,2.5,17c2.4,9.4,6,18.2,11.2,26.5c2.4,3.9,2.3,4.7-1,8.1
	c-1.6,1.6-3.2,3.1-4.7,4.8c-2.4,2.6-4.9,4.3-8.8,4c-2.9-0.2-5.5,1.4-7.7,3.5c-15.4,15.3-31,30.6-46.1,46.2
	c-8.2,8.5-7.9,21.7,0.1,30.3c7.6,8.1,20.5,9,29.7,2.2c1.6-1.2,3.1-2.5,4.5-4c13.8-13.8,27.5-27.6,41.4-41.3c3.4-3.3,5.6-7,5.3-11.9
	c-0.1-1.8,0.7-3.1,1.9-4.3c2.6-2.7,5.3-5.3,7.9-8c1.8-1.8,3.6-2,5.7-0.7c3.3,2,6.7,3.9,10.2,5.5c29.1,13.4,57.6,12,85.6-3.2
	c2-1.1,4.1-3.7,6.3-2.4c2.6,1.5,1.5,4.8,1.3,7.3c-1,16.9-13.6,28.2-31.7,28.3c-25.2,0.1-50.5,0-75.7,0c-3.2,0-6.5-0.1-9.7,0.1
	c-2.5,0.1-4.5,1-4.7,3.8c-0.2,2.7,1.5,4.1,3.8,4.8c1.5,0.5,3,0.4,4.5,0.4c27,0,54,0.1,81,0c11.7-0.1,22.4-3.1,30.9-12
	c7.1-7.5,10.4-16.3,10.9-26.4c0.2-3.1,0.3-6.3,0-9.4c-0.5-4.8,1.3-8.5,4.5-11.8c13-13.6,20.6-29.9,23.8-48.4
	C265.9,104.7,265.3,102.5,267.8,102z"/>
<path class="st0" d="M267.8,82.5c-1.5-3-1.3-6.4-2-9.6c-3.8-17.9-12.2-33.4-25.1-46.4c-1.7-1.8-2.3-3.5-2.3-5.9
	c-0.1-8,0.6-16-0.5-24c-2.3-16.8-16.4-30.6-33.3-32.7c-6.7-0.8-13.5-0.4-20.2-0.5c-16.6-0.1-33.2-0.1-49.9,0c-2.8,0-3.5-0.6-3.5-3.4
	c0-8.3,0.9-16.8-1.1-25c-4-16.5-18-28.5-34.9-28.8c-22.5-0.4-45-0.5-67.5,0C7.4-93.4-8.2-77.3-8.9-57.2c-0.2,5.9-0.2,11.7,0,17.6
	c0.1,2.5-0.7,3.1-3.1,3.1c-20.7-0.1-41.5-0.1-62.2-0.1c-21.9,0-36,10.9-41.4,32.1c-0.1,0.3-0.4,0.5-0.7,0.8c0-36.6,0-73.2,0-109.8
	c0-2.1,0.2-2.8,2.6-2.8c126.3,0.1,252.6,0.1,378.9,0c3,0,2.5,1.4,2.5,3.2C267.7-47.9,267.8,17.3,267.8,82.5z"/>
<path class="st1" d="M150,84.2c-0.4-0.2-0.3-0.4,0-0.6C150,83.8,150,84,150,84.2z"/>
<path d="M150,78.1c-0.3-1.2-0.2-2.5-0.4-3.7c-1.3-6.7-4.4-12.6-9.1-17.5c-1-1-1.5-2-1.4-3.5c0.1-2.1,0.1-4.2,0-6.2
	c-0.2-4.1-1.5-7.7-4.4-10.7c-3.2-3.4-7.3-4.9-11.8-4.9c-7.7,0-15.5,0-23.2,0c-2,0-2,0-2-2.1c0-2.5,0.1-4.9-0.3-7.4
	C96.2,14.8,90,9.5,82.7,9.5c-8.4,0-16.7,0.1-25.1-0.1C51.8,9.3,44.7,13.5,43,21.1c-0.6,2.5-0.4,5.1-0.4,7.7c0,2.7,0,2.7-2.7,2.7
	c-7.5,0-15,0-22.5,0C9.8,31.5,2.2,36.6,1.5,44.7c0,24,0,48,0,72c0.4,0.2,0.3,0.6,0.3,0.9c1.8,6.8,6.9,11.2,13.9,11.7
	c3.7,0.2,7.4,0.1,11.2,0.1c6.9,0,13.7,0,20.6,0c1.7,0,2.7-0.8,2.7-2.2c0-1.3-1-2.1-2.7-2.2c-0.3,0-0.7,0-1,0c-9.8,0-19.5,0-29.3,0
	c-6.8,0-11.4-4.6-11.4-11.4c0-13.9,0-27.8,0-41.8c0-0.4-0.2-0.8,0.2-1.2c4.5,6.2,10.5,9.8,18,10.8c1,0.1,1.1,0.5,1.1,1.3
	c0,2.5-0.1,4.9,0.1,7.4c0.3,4.3,4,7.6,8.2,7.5c4.4-0.1,8-3.6,8.1-8.1c0-2.2,0.1-4.4,0-6.7c0-1,0.2-1.4,1.3-1.4
	c11.3,0.1,22.5,0,33.8,0c1,0,1.3,0.2,1.3,1.3c0.2,6.7,2.1,12.9,5.8,18.5c0.4,0.6,0.5,0.9-0.1,1.4c-1.2,1.1-2.3,2.2-3.4,3.4
	c-0.3,0.4-0.7,0.6-1.2,0.5c-1.7-0.3-3.1,0.3-4.3,1.5c-5.8,5.8-11.6,11.5-17.3,17.3c-3.7,3.7-3.8,9.3-0.2,12.9
	c3.5,3.6,9.2,3.6,12.9-0.1c5.9-5.8,11.6-11.6,17.4-17.4c0.8-0.8,1.7-1.9,1.5-3c-0.4-2,0.9-2.9,2-4c0.6-0.6,1.3-1.2,1.8-1.9
	c0.5-0.6,0.9-0.5,1.5-0.1c12.9,7.8,25.9,7.8,38.9,0.2c0.3-0.2,0.5-0.6,1-0.4c0.8,8.1-4.5,13.6-12.6,13.2c-4.7-0.2-9.4,0-14.1,0
	c-5.9,0-11.9,0-17.8,0c-1.8,0-2.8,0.8-2.7,2.3c0.1,1.3,1,2.1,2.8,2.1c11.1,0,22.2,0.1,33.4,0c7.1,0,12.9-4.3,14.8-10.8
	c0.9-3,0.6-6.1,0.6-9.2c0-0.9,0.2-1.5,0.9-2.2c5-5.1,8.3-11.1,9.8-18.1c0.2-1.1,0.1-2.4,0.8-3.4c0-0.5,0-1,0-1.5
	c-0.2-0.2-0.2-0.4,0-0.6C150,81.7,150,79.9,150,78.1z M47.5,22.6c0.9-4.7,4.8-8.2,9.5-8.4c4.3-0.1,8.7,0,13,0c0,0,0,0,0,0
	c3.9,0,7.8,0,11.7,0c6.5,0,10.9,4.4,10.9,10.9c0,1.9,0,3.9,0,5.8c0,0.9-0.2,1.2-1.1,1.2c-3.6,0-3.6,0.1-3.6-3.4c0-1.3,0-2.5,0-3.8
	c-0.1-3.7-2.3-6-6-6c-8.1,0-16.1,0-24.2,0c-3.6,0-5.9,2.4-6,6c0,2-0.1,4.1,0,6.1c0,0.9-0.3,1.1-1.1,1.1c-3.5,0-3.6,0-3.5-3.5
	C47.4,26.5,47.2,24.6,47.5,22.6z M56.3,24.9c0-1.2,0.5-1.8,1.7-1.8c8,0,16,0,24.1,0c1.2,0,1.7,0.6,1.7,1.7c0,2-0.1,4.1,0,6.1
	c0,1-0.4,1.1-1.2,1.1c-4.2,0-8.4,0-12.6,0c-4.1,0-8.1-0.1-12.2,0c-1.4,0-1.6-0.4-1.5-1.6C56.4,28.6,56.4,26.7,56.3,24.9z M29.5,75.2
	c0.2-2.2,1.9-3.6,4-3.5c2,0.1,3.5,1.7,3.6,3.8c0,1.1,0,2.1,0,3.2c0,0-0.1,0-0.1,0c0,1.3,0.5,3.1-0.1,3.9c-0.7,0.8-2.5,0.2-3.9,0.2
	c-1.1,0-2.6,0.5-3.4-0.2c-0.7-0.7-0.2-2.2-0.2-3.3C29.5,77.9,29.4,76.5,29.5,75.2z M37.2,89.8c-0.2,2-1.9,3.5-3.8,3.5
	c-1.9,0-3.5-1.4-3.8-3.3c-0.4-2.9-0.4-2.9,2.5-2.9c0.5,0,1,0,1.4,0c0.4,0,0.9,0,1.3,0C37.4,87.1,37.4,87.1,37.2,89.8z M76.9,77.3
	c-11.2,0-22.4,0-33.6,0c-1.4,0-1.8-0.3-1.7-1.7c0-4.9-3.7-8.5-8.6-8.3c-4.3,0.2-7.6,3.7-7.7,8.4c0,1.3-0.2,1.6-1.6,1.3
	C13.3,75.2,5.9,66.5,5.8,56.1c0-2.9,0-5.8,0-8.7c0-6.2,4.5-10.8,10.7-11c0.3,0,0.7,0,1,0c35,0,70.1,0,105.1,0c5.7,0,10,3.1,11.3,8.1
	c0.6,2.4,0.3,4.8,0.4,7.5c-3.6-2.3-7.2-4-11.1-5.1c-20.5-5.6-41.9,8.4-44.9,29.2C78.2,77.2,77.8,77.3,76.9,77.3z M78.5,123.8
	c-3.9,3.8-7.7,7.7-11.6,11.6c-0.9,0.9-2,1.4-3.4,1.4c-1.9,0-3.3-0.9-4.2-2.6c-0.8-1.7-0.7-3.5,0.6-4.9c4-4.1,8.1-8.2,12.1-12.3
	c0.5-0.5,0.7-0.2,1,0.1c1.8,1.8,3.6,3.6,5.4,5.4C79.1,123,79,123.3,78.5,123.8z M82.4,119.8c-0.6,0.4-0.9-0.5-1.3-0.9
	c-1.6-1.6-3.2-3.2-4.8-4.8c-0.5-0.5-0.6-0.8,0-1.4c2.5-2.4,1.7-2.3,4-0.1c1.3,1.3,2.6,2.6,3.9,3.9c0.2,0.2,0.4,0.5,0.8,1
	C84.1,118.4,83.3,119.2,82.4,119.8z M89.6,109.2c-0.4,0.3-0.7,0.7-1,1c-2.5,2.5-2.5,2.5-4.9-0.2c-0.4-0.5-0.4-0.7,0-1.2
	c1.1-1,2.1-2.1,3.3-3.4c0.9,1,1.7,1.9,2.6,2.8C90,108.6,90,108.9,89.6,109.2z M145.6,83.4c-0.8,17.3-15.8,30.9-33.3,30.1
	c-17.1-0.8-30.7-15.7-30.1-32.6c0.6-17.4,15-31.2,32.6-30.8C132.9,50.8,146.4,65.5,145.6,83.4z"/>
<path d="M114,55.6c12.1,0,22.6,8.3,25.4,20c0.4,1.6-0.1,2.7-1.4,3c-1.3,0.4-2.4-0.3-2.8-1.9c-2.3-8.5-7.7-14-16.3-16.2
	c-11.7-2.9-23.7,4.7-26.3,16.6c-2.5,11.7,5.1,23.5,16.8,25.9c11.5,2.3,22.5-4.5,25.5-15.8c0.1-0.5,0.2-0.9,0.5-1.4
	c0.6-1.1,1.6-1.5,2.7-1c1.2,0.5,1.6,1.4,1.3,2.7c-1.3,5.6-4.1,10.4-8.6,14.1c-7.9,6.5-16.9,8-26.3,4.4c-9.6-3.7-15.2-11.1-16.5-21.3
	C86.1,69.2,98.4,55.6,114,55.6z"/>
</svg>
