<?xml version="1.0" encoding="utf-8"?>
<!-- Generator: Adobe Illustrator 23.0.0, SVG Export Plug-In . SVG Version: 6.00 Build 0)  -->
<svg version="1.1" id="Layer_1" xmlns="http://www.w3.org/2000/svg" xmlns:xlink="http://www.w3.org/1999/xlink" x="0px" y="0px"
	 viewBox="0 0 150 150" style="enable-background:new 0 0 150 150;" xml:space="preserve">
<style type="text/css">
	.st0{display:none;fill:#FEFEFE;}
</style>
<path class="st0" d="M-116.3,75.4c0-62.9,0-125.8-0.1-188.6c0-2.6,0.5-3.1,3.1-3.1c126,0.1,252,0.1,378,0c2.6,0,3.1,0.5,3.1,3.1
	c-0.1,126-0.1,252,0,378c0,2.6-0.5,3.1-3.1,3.1c-126-0.1-252-0.1-378,0c-2.6,0-3.1-0.5-3.1-3.1C-116.2,201.6-116.3,138.5-116.3,75.4
	z"/>
<path d="M138.1,48.4c-2.9-0.9-5.4,0-7.5,2.1c-13.5,13.2-27,26.4-40.6,39.6c-0.4,0.3-0.6,0.8-1,1.2c-0.1-0.1-0.2-0.2-0.4-0.2
	c0-0.5,0-1,0-1.5c0-23.2,0-46.5,0-69.7c0-6.9-4.8-11.5-11.9-11.5c-19.2,0-38.4,0-57.5,0c-7,0-11.8,4.7-11.8,11.6
	c0,36.3,0,72.6,0,108.8c0,6.9,4.8,11.5,11.9,11.6c19.2,0,38.4,0,57.5,0c7,0,11.8-4.7,11.8-11.6c0-5.8,0-11.6,0-17.5
	c0-0.9,0.3-1.5,0.9-2.1c16.8-16.3,33.5-32.6,50.3-49c0.5-0.5,0.9-0.9,1.4-1.4C144.2,55.2,142.6,49.8,138.1,48.4z M69.8,12.7
	c0,0.1,0.1,0.2,0.1,0.3c-0.3,1.3-0.3,3.1-1.1,3.8c-0.8,0.7-2.6,0.2-3.9,0.2c-12,0-24,0-36.1,0c-1.2,0-1.7-0.3-1.9-1.5
	c-0.1-0.9-0.4-1.9-0.7-2.9C40.8,12.7,55.3,12.7,69.8,12.7z M84.1,130c0,0.1,0,0.3-0.1,0.4c-0.7,3.2-3.3,5.4-6.7,5.4
	c-5.2,0-10.3,0-15.5,0c-14.1,0-28.2,0-42.3,0c-4.9,0-7.6-2.6-7.6-7.4c0-36.1,0-72.3,0-108.4c0-4.2,2.7-8,9.1-7.4
	c0.6,0.1,0.6,0.5,0.7,0.8c0.5,2,1.1,4,1.5,6c0.3,1.4,1.2,2,2.6,2c14.8,0,29.6,0,44.4,0c1.6,0,2.2-0.5,2.7-2.1c0.5-1.9,1-3.9,1.5-5.9
	c0.1-0.6,0.4-0.9,1.1-0.9c1.2,0.1,2.4-0.1,3.6,0.3c2.9,0.8,4.9,3.2,5,6.1c0,0.4,0,0.8,0,1.2c0,24.7,0,49.4,0,74.1c0,1-0.3,1.7-1,2.4
	c-3.4,3.2-6.7,6.5-10.3,10.1c0.4-1.9-0.5-1.8-1.6-1.8c-15.5,0-31,0-46.5,0c-1.2,0-1.5,0.2-1.5,1.4c0.1,3,0,3,3.1,3
	c14,0,27.9,0,41.9,0c0.5,0,1,0,1.5,0c0,0.1,0,0.3,0,0.3c-2.4,2-4,4.5-5.4,7.1c-0.6,1.1-1.4,1.4-2.6,1.4c-12.4,0-24.7,0-37.1-0.1
	c-1.2,0-1.5,0.3-1.4,1.4c0.1,3,0,3,3.2,3c11.4,0,22.8,0,34.2,0c-0.3,1.1-1,1.9-1.5,2.7c-0.5,0.9-1.1,1.7-1.6,2.6
	c-0.6,1-0.6,1.9,0.2,2.8c0.9,0.9,1.9,0.9,3,0.3c0.2-0.1,0.5-0.3,0.7-0.4c3.5-2,7-4.2,10.5-6.1c3.3-1.8,6.2-3.9,8.7-6.6
	c1-1.1,2.2-2.2,3.5-3.4C84.1,119.8,84.1,124.9,84.1,130z M137.8,55.9c-0.3,0.4-0.7,0.8-1,1.1c-20.6,20.1-41.3,40.2-62,60.3
	c-2.3,2.3-5.5,3.4-8.3,5c1.6-2.7,2.7-5.7,4.9-7.9c20.8-20.3,41.6-40.6,62.4-60.9c0.3-0.3,0.6-0.6,1-0.8c1-0.6,2-0.5,2.8,0.3
	C138.4,53.9,138.4,54.9,137.8,55.9z"/>
<path d="M48,91.9c7.9,0,15.7,0,23.6,0c1,0,1.3,0.2,1.3,1.3c-0.1,3.2,0,3.2-3.3,3.2c-15,0-30,0-45,0c-1.2,0-1.5-0.3-1.4-1.4
	c0.1-3,0-3,3.1-3C33.6,91.9,40.8,91.9,48,91.9z"/>
<path d="M54.8,83.1c-5.6,0-11.3,0-16.9,0c-0.9,0-1.2-0.2-1.2-1.1c0-3.3,0-3.3,3.4-3.3c10.5,0,21,0,31.5,0c1.1,0,1.3,0.2,1.3,1.3
	c-0.1,3.2,0,3.2-3.3,3.2C64.7,83.1,59.8,83.1,54.8,83.1z"/>
<path d="M27.7,78.7c0.4,0,0.8,0,1.1,0c3.7,0,3.7,0,3.4,3.7c0,0.5-0.2,0.7-0.7,0.7c-2.5,0-5.1,0-7.6,0c-0.6,0-0.8-0.2-0.7-0.7
	c0,0,0-0.1,0-0.1c-0.2-3.6-0.2-3.6,3.5-3.6C27.1,78.7,27.4,78.7,27.7,78.7z"/>
<path d="M72.9,35c0-1.7-0.9-2.5-2.6-2.5c-1.8,0-3.7,0-5.5,0c-0.4,0-1.1,0.2-0.9-0.6c0.4-1.7-0.7-1.7-1.9-1.6c-0.5,0-0.9,0.1-1.4,0
	c-1-0.1-1.4,0.2-1.2,1.2c0.1,0.5,0.2,1.1-0.8,1.1c-2.5-0.1-5,0-7.5,0c-0.5,0-0.9,0-0.8-0.6c0.4-1.7-0.7-1.7-1.9-1.6
	c-0.5,0-0.9,0.1-1.4,0c-1-0.1-1.4,0.2-1.2,1.2c0,0.4,0.3,1.1-0.6,1c-2.6,0-5.2,0-7.8,0c-0.5,0-0.7-0.1-0.6-0.6
	c0.4-1.7-0.7-1.7-1.9-1.6c-0.5,0-0.9,0.1-1.4,0c-1-0.1-1.4,0.2-1.2,1.2c0.2,0.8-0.1,1.1-1,1.1c-1.7-0.1-3.4,0-5.1,0
	c-2.1,0-2.9,0.7-2.9,2.8c0,11.3,0,22.6,0,33.9c0,2.1,0.8,2.9,3,2.9c7.2,0,14.5,0,21.7,0c7.4,0,14.9,0,22.3,0c1.8,0,2.7-0.8,2.7-2.6
	C72.9,58,72.9,46.5,72.9,35z M27.7,42.4c0.1-1.6,0.1-3.1,0-4.7c0-0.6,0.1-0.9,0.8-0.9c0.7,0.1,1.3,0.1,2,0c1.2-0.1,2,0,1.7,1.5
	c-0.1,0.5,0.1,0.8,0.7,0.7c0.6,0,1.2,0,1.8,0c1.2,0.1,2.4,0.2,2-1.6c-0.1-0.5,0.3-0.6,0.7-0.6c2.5,0,5.1,0,7.6,0
	c1,0,0.8,0.6,0.7,1.1c-0.1,0.9,0.2,1.3,1.1,1.1c0.6-0.1,1.1-0.1,1.7,0c1.2,0.2,2-0.1,1.7-1.5c-0.1-0.7,0.3-0.7,0.8-0.7
	c2.4,0,4.7,0,7.1,0c0.9,0,1.3,0.2,1.1,1.1c-0.2,0.9,0.2,1.3,1.1,1.1c0.6-0.1,1.1-0.1,1.7,0c1.2,0.2,2-0.1,1.7-1.5
	c-0.1-0.5,0.1-0.7,0.7-0.7c3.8-0.3,3.8-0.3,3.8,3.4c0,3.2,0,3.2-3.2,3.2c-5.7,0-11.5,0-17.2,0c-6.3,0-12.7,0-19,0
	C28,43.5,27.7,43.3,27.7,42.4z M67.2,67.7c-6.4,0-12.9,0-19.3,0c-6.3,0-12.6,0-18.9,0c-1.1,0-1.3-0.2-1.3-1.3c0.1-5.8,0-11.6,0-17.5
	c0-0.9,0.2-1.1,1.2-1.1c12.8,0,25.6,0,38.4,0c0.9,0,1.2,0.2,1.2,1.1c0,5.9,0,11.7,0,17.6C68.4,67.5,68.1,67.7,67.2,67.7z"/>
</svg>
