<?xml version="1.0" encoding="utf-8"?>
<!-- Generator: Adobe Illustrator 23.0.0, SVG Export Plug-In . SVG Version: 6.00 Build 0)  -->
<svg version="1.1" id="Layer_1" xmlns="http://www.w3.org/2000/svg" xmlns:xlink="http://www.w3.org/1999/xlink" x="0px" y="0px"
	 viewBox="0 0 150 150" style="enable-background:new 0 0 150 150;" xml:space="preserve">
<style type="text/css">
	.st0{display:none;fill:#FEFEFE;}
</style>
<path class="st0" d="M21,267.8c-45.8,0-91.5,0-137.3,0c0-126.9,0-253.8-0.1-380.6c0-2.8,0.6-3.5,3.4-3.5c12.6,0.2,25.2,0.1,37.9,0.1
	c-0.1,1.8-1.6,1.6-2.7,2c-13.5,4.4-20.9,14.3-20.9,28.5c-0.1,15.9-0.1,31.7,0,47.6c0.1,14.3,8.7,25.3,21.7,28.3
	c2.2,0.5,4.5,0.5,6.7,0.5c16.6,0,33.2,0,49.8,0c15.2,0,26.6-10.2,27.6-25.3c1.3-18.6,1.4-37.2-0.1-55.7c-1-12.2-8.3-19.6-19.4-23.7
	c-1.3-0.5-3.1-0.2-3.4-2.2c20.5,0,41,0,61.5,0c-0.2,2-2.1,1.9-3.4,2.4c-12.7,4.4-19.6,14-19.6,27.4c0,16.4,0.3,32.7-0.1,49.1
	C22.4-21.8,36.2-8.8,51-9.2c16.7-0.5,33.5-0.1,50.2-0.1c15.3,0,27.4-12,27.4-27.3c0.1-17,0-34,0-50.9c0-12.4-7.7-22.6-19.5-26.4
	c-1.3-0.4-3.1-0.3-3.4-2.3c20.3,0,40.5,0,60.8,0c0.1,1.4-1,1.6-1.9,1.9c-14.6,4.8-20.8,15.6-20.9,30.3c-0.2,14.5-0.2,29,0.1,43.5
	c0.1,4.8,0.5,9.7,2.4,14.3c4.2,10.1,13.9,16.8,24.8,16.9c3.7,0,7.5,0.1,11.2,0c3.7-0.1,5.7-1.5,5.8-4c0.1-2.7-2.2-4.8-5.9-5
	c-3.5-0.2-7,0-10.5-0.1c-9.7-0.2-16.7-6.4-18.2-16c-0.9-5.6-0.6-11.2-0.6-16.8c-0.1-10.6-0.1-21.2,0-31.9c0.1-6.5,0.9-12.7,6.1-17.5
	c3.7-3.4,7.9-5.3,12.8-5.4c16.9-0.1,33.7-0.2,50.6,0c10.6,0.1,18.4,7.7,18.7,18.6c0.4,16.9,0.5,33.8,0,50.6
	c-0.3,11.5-8.1,18.3-19.5,18.4c-3.4,0-6.8-0.1-10.1,0.1c-3.4,0.2-5.3,2-5.3,4.6c0,2.8,1.7,4.2,5.4,4.3c4.5,0.1,9,0.2,13.5,0
	c13.7-0.8,24.8-12.6,25.1-27.5c0.4-16.9,0.4-33.7,0-50.6c-0.3-13-8.1-22.7-20.5-26.6c-1.2-0.4-2.9-0.2-3.1-2.1
	c12.7,0,25.5,0.1,38.2-0.1c2.5,0,3.1,0.4,3.1,3c-0.1,89.3-0.1,178.6-0.1,267.9c0,36.6,0,73.2,0.1,109.8c0,3-0.9,3.4-3.5,3.4
	c-39.3-0.1-78.7-0.1-118-0.1c3-7.2,1.8-14.7,1.8-22.1c0-9.1,0.9-18,3.4-26.7c3.7-12.8,5-25.9,4.9-39.3c-0.1-21.1-0.1-42.2,0-63.4
	c0-3.6-0.3-7.2-0.9-10.8c-1.9-11.8-12.7-19-24.4-16.1c-4.9,1.2-4.9,1.2-6.6-3.2c-4.2-10.6-12.9-15.1-24.1-12.6
	c-4.6,1.1-4.7,1.1-6.4-3c-3.6-8.7-13-15.4-24-12.2c-4.2,1.2-5.1,0.4-5.1-4.2c-0.1-9.6,0.1-19.3-0.1-28.9C64.6,17.3,60.7,11.3,53.3,8
	c-7.4-3.2-14.5-2.3-20.7,3c-4.7,4-6.7,9.5-6.7,15.7c0,17.4,0,34.7,0,52.1c0,4.1,0,8.2,0,12.4c0,7.4,0,7.4-7.3,6.2
	c-11.3-1.8-21,5.3-22.7,16.6c-1.2,8-0.6,16-0.6,24c0,1.5,0.4,3,1.2,4.3c1,1.5,2.5,2.1,4.2,1.8c1.7-0.2,2.7-1.3,3.1-2.9
	c0.4-1.3,0.3-2.7,0.4-4.1c0-5.4,0-10.7,0-16.1c0-2.6,0.3-5.2,1.2-7.7c1.7-4.5,5.5-7.2,10-7c4.5,0.2,8.3,3,9.7,7.5
	c0.6,1.9,0.7,3.9,0.7,5.9c0,9.4,0,18.8,0,28.1c0,3-0.5,5.6-2.4,8c-1.7,2.1-2.5,4.6-0.1,6.7c2.3,2.1,4.6,1,6.8-0.6
	c3.6-2.7,4.8-6.4,4.8-10.8c-0.1-33.1,0-66.2,0-99.4c0-8.5-0.2-17,0.1-25.5c0.2-6.5,4.7-10.8,10.6-10.7c5.1,0.1,9.6,4.1,10.2,9.2
	c0.2,1.7,0.1,3.5,0.1,5.2c0,34.6,0,69.2,0,103.9c0,2-0.1,4,0.4,6c0.7,2.2,2,3.8,4.6,3.6c2.6-0.2,3.7-1.8,3.9-4.2
	c0.1-1.4,0.1-2.7,0.1-4.1c0-17.9,0-35.7,0-53.6c0-2.6,0-5.2,1.1-7.7c1.7-4.1,5.9-7.1,9.9-6.9c4.5,0.2,7.7,2.7,9.6,6.8
	c1.1,2.4,1.2,5.1,1.2,7.7c0,18,0,36,0,54c0,1.6-0.1,3.3,0.3,4.9c0.4,1.9,1.6,3,3.6,3.3c2,0.2,3.4-0.7,4.2-2.4
	c0.9-1.9,0.9-3.9,0.9-5.9c0-13.9,0-27.7,0-41.6c0-4,1.1-7.4,4.6-9.7c6.5-4,14.9-0.2,16.1,7.4c0.3,1.6,0.2,3.2,0.2,4.9
	c0,13,0,26,0,39c0,1.5-0.1,3,0.3,4.5c0.6,2.3,1.8,3.9,4.4,3.8c2.5-0.1,3.8-1.7,4.2-4c0.2-1.2,0.2-2.5,0.2-3.7c0-8.4,0-16.7,0-25.1
	c0-2.3,0.2-4.5,1.3-6.6c2.1-4.1,5.9-6.3,10.4-5.8c4.4,0.4,7.3,3.1,8.8,7.1c1,2.7,1.2,5.6,1.2,8.5c0,24.7,0.1,49.5-0.1,74.2
	c-0.1,7.2-0.6,14.5-2.7,21.5c-4.1,13.6-6,27.5-5.5,41.8c0.2,5.8-0.6,6.4-6.4,6.4c-32.9,0-65.7,0-98.6,0c-6,0-6.5-0.6-6.6-6.7
	c-0.1-5.9,0.5-11.7-0.6-17.6c-0.9-4.5-2.6-8.6-5.4-12.2c-3.8-5.1-7.6-10.3-11.5-15.3c-4.1-5.2-5.6-11.1-5.7-17.5
	c-0.1-6.2,0-12.5,0-18.7c0-1.2,0-2.5-0.2-3.7c-0.4-1.9-1.5-3.2-3.4-3.5c-2-0.3-3.4,0.7-4.3,2.4c-0.7,1.3-1,2.8-1,4.3
	c0.1,8.4-0.4,16.7,0.4,25.1c0.6,5.4,2.4,10.2,5.4,14.6c4,5.8,8.2,11.3,12.5,16.9c3.3,4.3,4.8,9,4.8,14.3c0,3.9,0,7.7,0,11.6
	C18.4,257.1,17.5,262.8,21,267.8z"/>
<path d="M54.6,149c-1.1-0.6-1.6-1.6-1.5-2.9c0.1-2.7,0-5.3,0-8c0-2-0.5-3.7-1.7-5.2c-1.6-2.1-3.1-4.2-4.7-6.2
	c-1.4-1.9-2.3-3.9-2.3-6.3c-0.1-3.5-0.1-7,0-10.4c0-1.4,1-2.4,2.2-2.3c1.2,0,2,0.9,2.1,2.3c0,0.3,0,0.7,0,1c0,2.7,0,5.3,0,8
	c0,2.1,0.5,4,1.9,5.6c1.7,2.1,3.2,4.2,4.8,6.4c1.5,2,2.1,4.2,2.2,6.6c0,2,0,4,0,5.9c0,0.8,0.1,1.2,1.1,1.2c13.5,0,27,0,40.5,0
	c0.5,0,1.1,0.1,1-0.8c-0.5-6.8,0.7-13.4,2.5-19.9c0.4-1.6,0.4-3.3,0.4-4.9c0-10.2,0-20.4,0-30.6c0-0.5,0-1-0.1-1.4
	c-0.3-2.1-1.8-3.5-3.8-3.4c-2,0.1-3.5,1.6-3.5,3.7c-0.1,2.9,0,5.8,0,8.7c0,1,0,2,0,3c0,1.5-0.9,2.4-2.2,2.3c-1.3,0-2.1-0.9-2.2-2.4
	c0-2.2,0-4.3,0-6.5c0-3.8,0-7.5,0-11.3c0-1.9-1.3-3.4-3.1-3.7c-1.8-0.3-3.4,0.7-4,2.3c-0.2,0.7-0.2,1.3-0.2,2c0,5.4,0,10.8,0,16.2
	c0,0.4,0,0.8,0,1.2c-0.1,1.4-1,2.2-2.2,2.2c-1.3,0-2-0.8-2.1-2.3c0-1.8,0-3.7,0-5.5c0-5.9,0-11.8,0-17.7c0-3.1-2.3-5-4.9-4.1
	c-1.6,0.6-2.5,2-2.5,4.2c0,7.3,0,14.7,0,22c0,0.4,0,0.8,0,1.2c-0.1,1.4-0.9,2.2-2.1,2.3c-1.2,0-2.1-0.8-2.2-2.2c0-0.4,0-0.9,0-1.3
	c0-14,0-27.9,0-41.9c0-2.7-1.5-4.4-3.8-4.3c-1.8,0-3.3,1.4-3.5,3.2c-0.1,0.5,0,1.1,0,1.6c0,15.9,0,31.9,0,47.8
	c0,2.3-1.3,3.5-2.9,4.6c-0.9,0.6-1.9,0.3-2.6-0.5c-0.7-0.9-0.8-2,0.1-2.8c1-0.9,1.1-1.9,1.1-3.1c0-4,0-7.9,0-11.9c0-2-1.2-3.4-3-3.8
	c-1.7-0.3-3.4,0.5-4.1,2.1c-0.3,0.7-0.3,1.5-0.4,2.3c0,2.7,0,5.3,0,8c0,1.1-0.3,2-1.5,2.4c-1.5,0.5-2.8-0.5-2.8-2.2
	c-0.1-3.2-0.1-6.4,0.1-9.6c0.4-5.3,5.5-8.6,10.5-7c0.3,0.1,0.6,0.2,1.1,0.4c0-0.6,0-1.1,0-1.6c0-8.8,0-17.7,0-26.5
	c0-3.4,1.7-5.8,4.8-7.1c3.1-1.3,6-0.8,8.5,1.4c1.9,1.6,2.7,3.8,2.7,6.3c0,4.1,0,8.1,0,12.4c2.5-1,4.9-1.2,7.3,0.1
	c2.4,1.2,3.7,3.3,4.4,5.8c4.6-1.5,7.9-0.7,10.2,2.4c0.6,0.9,1.1,1.8,1.3,2.9c0.1,0.7,0.3,0.9,1.1,0.6c5.3-1.9,10.4,1.5,10.9,7.2
	c0.1,1.8,0.1,3.6,0.1,5.4c0,8.3,0,16.6,0,24.9c0,3.9-0.4,7.8-1.5,11.6c-1.1,3.8-1.7,7.7-1.5,11.7c0.1,1.7-0.1,3.4,0,5.1
	c0.1,1.3-0.3,2.4-1.3,3.3C86.8,149,70.7,149,54.6,149z"/>
<path class="st0" d="M-57-116.3c7.5,0,15,0,22.5,0c0.3,1.1-0.6,1.8-1,2.7c-2.1,4-0.5,6.9,3.9,7.3c3.1,0.3,6.2,0.1,9.4,0.1
	c11.8,0.1,18.6,5.9,20.6,17.5c0.4,2.6,0.5,5.2,0.5,7.8c0,13,0.1,26,0,39C-1.2-37-1.6-32.3-4-28c-3.4,6.2-8.6,9.4-15.5,9.5
	c-17.2,0.2-34.5,0.2-51.7,0c-9.3-0.1-16-6-17.9-15.1c-0.4-2.1-0.5-4.2-0.5-6.3c0-14.9,0-29.7,0-44.6c0-14.1,7.5-21.5,21.5-21.6
	c2.4,0,4.7,0,7.1,0c2.3-0.1,4.6-0.4,5.8-2.7c1.3-2.3,0.1-4.1-1.4-5.7C-56.9-115-57.2-115.6-57-116.3z"/>
<path d="M24.4,0.5c1.1,0.6,1.8,1.5,1.4,2.8c-0.4,1.3-1.5,1.6-2.8,1.5c-1.3,0-2.6,0-3.9,0c-3.8,0.1-6.8,2.8-6.8,6.6
	c-0.1,6.6-0.1,13.2,0,19.9c0,3.8,2.9,6.6,6.7,6.6c6.6,0.1,13.2,0.1,19.9,0c3.6,0,6.5-2.6,6.5-6.2c0.2-6.9,0.2-13.7,0-20.6
	c-0.1-3.7-3.1-6.3-6.8-6.3c-1.3,0-2.5,0-3.8,0c-1.2,0-2.3-0.1-2.9-1.4c-0.5-1.3,0.3-2.1,1.2-2.9c2.4,0,4.8,0,7.3,0
	C41.1,0.8,42,1,42.8,1.3c4.1,1.8,6.7,4.9,6.9,9.4c0.3,7.2,0.3,14.4,0,21.6c-0.3,5.5-4.9,9.9-10.5,10c-6.8,0.1-13.6,0.1-20.4,0
	c-6-0.1-10.7-4.8-10.8-10.8c-0.1-6.7-0.1-13.3,0-20C8,6,11.7,1.8,17.1,0.7c0.1,0,0.2-0.1,0.3-0.2C19.8,0.5,22.1,0.5,24.4,0.5z"/>
<path d="M134,0.5c2.7,0.7,5.1,1.8,6.9,3.9c1.8,2.1,2.6,4.6,2.7,7.3c0,6.4,0.1,12.9,0,19.3c-0.1,6.4-4.7,11.1-11.1,11.3
	c-1.5,0-3.1,0-4.6,0c-1.4,0-2.2-0.9-2.2-2.1c0-1.2,0.8-2.1,2.2-2.2c1.6-0.1,3.2,0,4.8,0c3.7-0.1,6.5-2.8,6.6-6.5
	c0.1-6.7,0.1-13.3,0-20c-0.1-3.8-3-6.6-6.9-6.6c-6.5,0-13,0-19.4,0c-3.7,0-6.7,2.7-6.7,6.4c-0.1,6.8-0.1,13.6,0,20.4
	c0.1,3.7,2.9,6.2,6.6,6.3c1.5,0,3,0,4.5,0c1.5,0,2.4,0.9,2.5,2.1c0,1.3-0.9,2.2-2.5,2.2c-3.2-0.1-6.4,0.4-9.4-1.2
	c-3.6-1.9-5.9-4.8-6-8.9c-0.2-7-0.2-14.1,0-21.2c0.1-5.1,3.4-8.9,8.3-10.3c0.3-0.1,0.6,0,0.7-0.3C118.6,0.5,126.3,0.5,134,0.5z"/>
<path d="M37.5,17.2c0,0.7-0.4,1.3-0.9,1.8c-2.7,2.7-5.4,5.4-8.1,8.1c-1.2,1.2-2.4,1.2-3.5,0c-1.3-1.3-2.6-2.6-3.9-3.9
	c-1-1-1.1-2.3-0.2-3.2c0.9-0.9,2.2-0.9,3.3,0.2c0.8,0.8,1.6,2.2,2.5,2.2c1,0,1.8-1.5,2.6-2.3c1.5-1.4,2.9-2.9,4.4-4.4
	c0.7-0.7,1.6-0.9,2.5-0.5C37,15.6,37.4,16.3,37.5,17.2z"/>
<path d="M96.6,11.3c-0.1-4.4-2.2-7.6-6.1-9.6c-1-0.5-2.1-0.8-3.2-1.2c-7.7,0-15.5,0-23.2,0c-0.1,0.2-0.3,0.2-0.5,0.3
	c-5.2,1.1-8.8,5.4-8.8,10.7c-0.1,6.7-0.1,13.3,0,20c0.1,5.8,4.7,10.7,10.5,10.8c6.9,0.1,13.8,0.1,20.7,0c5.8-0.1,10.5-4.9,10.5-10.8
	C96.7,24.8,96.7,18.1,96.6,11.3z M92.3,30.7c0,4.5-2.7,7.2-7.2,7.3c-3.1,0-6.3,0-9.4,0c-3.1,0-6.2,0-9.3,0c-4.5,0-7.2-2.8-7.2-7.2
	c0-6.2,0-12.5,0-18.7c0-4.4,2.8-7.2,7.3-7.2c6.2,0,12.4,0,18.6,0c4.5,0,7.3,2.8,7.3,7.3C92.3,18.4,92.3,24.5,92.3,30.7z"/>
</svg>
