<?xml version="1.0" encoding="utf-8"?>
<!-- Generator: Adobe Illustrator 23.0.0, SVG Export Plug-In . SVG Version: 6.00 Build 0)  -->
<svg version="1.1" id="Layer_1" xmlns="http://www.w3.org/2000/svg" xmlns:xlink="http://www.w3.org/1999/xlink" x="0px" y="0px"
	 viewBox="0 0 150 150" style="enable-background:new 0 0 150 150;" xml:space="preserve">
<style type="text/css">
	.st0{display:none;fill:#FEFEFE;}
	.st1{fill:#6F6F6F;}
	.st2{fill:#A9A9A9;}
	.st3{fill:#8F8F8F;}
	.st4{fill:#585858;}
	.st5{fill:#717171;}
	.st6{fill:#8B8B8B;}
	.st7{fill:#A5A5A5;}
	.st8{fill:#989898;}
	.st9{fill:#7E7E7E;}
	.st10{fill:#696969;}
	.st11{fill:#828282;}
	.st12{fill:#9C9C9C;}
</style>
<path class="st0" d="M-101.6,280.4c-8.7,0-17.3-0.1-26,0c-1.7,0-2.4-0.3-2-2c0.1-0.5,0-1.1,0-1.6c0-134.2,0-268.4-0.1-402.6
	c0-2.7,0.4-3.5,3.4-3.5c84.2,0.1,168.4,0.1,252.7,0.1c-0.3,2.3-2.3,1.8-3.7,2.1c-4.9,1.1-10,1.5-14.9,2.7
	c-22.6,5.6-42.5,15.9-59.9,31.4C24.3-72.1,9.6-46.2,3.2-15.5c-1.9,8.9-2.9,18-2.7,27c0.3,19.5,3.9,38.4,12,56.3
	c5.8,12.7,13.1,24.4,22.2,35c2.8,3.2,2.8,4.4-0.2,7.5c-5.1,5.3-10.3,10.4-15.5,15.6c-3.1,3-4.1,3-7.3-0.1c-4.3-4.1-9-7-15.3-6.7
	c-4.7,0.2-8.5,1.8-11.7,5.1c-13.5,13.6-27.1,27.2-40.7,40.7c-20.7,20.7-41.5,41.5-62.2,62.2c-16.9,16.9-9.6,44.8,13.5,51.3
	C-103.7,278.7-101.8,278.2-101.6,280.4z"/>
<path class="st0" d="M280.8,26c0,83.7,0,167.5,0.1,251.2c0,2.7-0.5,3.3-3.3,3.3c-123.5-0.1-246.9-0.1-370.4-0.1c0-2,1.8-1.7,2.9-2
	c5.7-1.4,10.5-4.4,14.6-8.5C-41.5,236-7.8,202,26.3,168.5c8.1-8,8.1-19.8,0.3-27.7c-4.2-4.3-4.1-4.7,0.1-9
	c4.7-4.7,9.4-9.5,14.1-14.1c3.6-3.6,4.5-3.6,8.3-0.4c15.3,13.1,32.7,22.5,52,28.2c10.7,3.1,21.8,4.8,33,5.2c14.9,0.6,29.5-1,43.8-5
	c20.3-5.8,38.4-15.5,54.2-29.6c16.5-14.6,28.9-31.9,37.2-52.2c4.3-10.5,7.4-21.4,8.8-32.7C278.5,29.3,278.1,26.8,280.8,26z"/>
<path class="st0" d="M280.8-2c-1.8-3-1.5-6.6-2.1-9.8c-9.5-50-37.8-85.2-83.9-106.2c-12.7-5.8-26.2-8.8-40-10.4
	c-0.7-0.1-1.7,0.3-2-0.8c41.6,0,83.2,0,124.8-0.1c2.7,0,3.3,0.5,3.3,3.3C280.8-84.7,280.8-43.3,280.8-2z"/>
<path class="st1" d="M96.3,1.2c-0.2,0.4-0.6,0.3-0.9,0.3c-0.1-0.1-0.1-0.1-0.1-0.2c0-0.1,0.1-0.1,0.1-0.1C95.7,1.2,96,1.2,96.3,1.2z
	"/>
<path class="st2" d="M94.8,1.4c-0.2,0-0.5,0.1-0.6-0.2c0.2,0,0.4,0,0.6,0c0.1,0.1,0.1,0.1,0.1,0.2C94.9,1.4,94.8,1.4,94.8,1.4z"/>
<path class="st3" d="M94.8,1.4c0-0.1,0-0.2,0-0.2c0.2,0,0.4,0,0.6,0c0,0.1,0,0.2,0,0.3C95.2,1.4,95,1.4,94.8,1.4z"/>
<path class="st4" d="M100.6,1.4c-0.3,0-0.5,0-0.6-0.2c0.2,0,0.4,0,0.6,0C100.7,1.2,100.7,1.3,100.6,1.4
	C100.7,1.4,100.7,1.4,100.6,1.4z"/>
<path class="st5" d="M100.6,1.4c0-0.1,0-0.2,0-0.2c0.2,0,0.4,0,0.6,0c0.1,0.1,0.1,0.1,0.1,0.2c0,0.1-0.1,0.1-0.1,0.1
	C101,1.4,100.8,1.4,100.6,1.4z"/>
<path class="st6" d="M101.2,1.4c0-0.1,0-0.2,0-0.2c0.2,0,0.4,0,0.6,0c0.1,0.1,0.1,0.1,0.1,0.2c0,0.1-0.1,0.1-0.1,0.1
	C101.6,1.4,101.4,1.4,101.2,1.4z"/>
<path class="st7" d="M101.8,1.4c0-0.1,0-0.2,0-0.2c0.2,0,0.4,0,0.6,0C102.3,1.6,102,1.5,101.8,1.4z"/>
<path class="st8" d="M149.2,49.1c0-0.2-0.1-0.5,0.2-0.6c0,0.2,0,0.4,0,0.6C149.4,49.3,149.3,49.3,149.2,49.1z"/>
<path class="st9" d="M149.2,49.1c0.1,0,0.2,0,0.2,0c0,0.2,0,0.4,0,0.6C149.1,49.6,149.1,49.4,149.2,49.1z"/>
<path class="st10" d="M149.2,55c-0.1-0.3-0.1-0.5,0.2-0.6c0,0.2,0,0.4,0,0.6C149.4,55.1,149.3,55.1,149.2,55z"/>
<path class="st11" d="M149.2,55c0.1,0,0.2,0,0.2,0c0,0.2,0,0.4,0,0.6c-0.1,0.1-0.2,0.1-0.2,0C149.2,55.4,149.2,55.2,149.2,55z"/>
<path class="st12" d="M149.2,55.6c0.1,0,0.2,0,0.2,0c0,0.2,0,0.4,0,0.6C149.1,56.1,149.2,55.8,149.2,55.6z"/>
<path d="M149.4,47.4c-0.4-1.7-0.3-3.4-0.6-5.1c-1.9-9.2-6-17.4-12.3-24.4c-7.2-7.9-16-13.1-26.4-15.6c-2.4-0.6-4.8-0.6-7.1-1
	c-0.2,0-0.4,0-0.6,0c-0.2,0.2-0.4,0.1-0.6,0.1c-0.2,0-0.3,0-0.5,0c-0.2,0-0.3,0-0.5,0c-0.2,0-0.5,0-0.6-0.1c-1.3,0-2.5,0-3.8,0
	c-0.2,0.2-0.6,0.1-0.8,0.1c-0.2,0-0.4,0-0.5,0c-0.2,0-0.5,0-0.7-0.1c-0.3,0-0.6,0-0.9,0c-0.1,0.4-0.4,0.3-0.7,0.3
	c-5,0.6-9.9,1.8-14.5,3.9C67.9,9.9,59.8,17,54.2,26.7c-6.4,11.1-8.3,23-5.9,35.5C50,71.2,53.9,79,59.9,85.9c0.6,0.7,0.7,1.1,0,1.8
	c-2,1.9-4,3.9-6,6c-0.8,0.8-1.2,0.9-2,0c-3.7-3.8-7.5-3.8-11.2,0c-12,12-24,24-35.9,36c-0.6,0.6-1.1,1.2-1.6,1.8
	c-3.2,4-3.2,10-0.1,14c1.9,2.5,4.5,3.8,7.5,4.5c1.1,0,2.1,0,3.2,0c2.5-0.7,4.8-1.6,6.7-3.5c12.4-12.4,24.8-24.8,37.2-37.2
	c1.4-1.4,2.2-3.2,2.1-5.2c-0.1-2.2-1.1-3.9-2.7-5.3c-1-0.9-0.9-1.4,0-2.2c2-1.8,3.9-3.7,5.6-5.7c0.9-1,1.4-0.8,2.3,0
	c11.6,9.8,25,13.9,40.1,12c9.7-1.2,18.3-5,25.8-11.3c10.1-8.5,16.2-19.3,18-32.4c0.1-0.5,0-1.2,0.5-1.5c0-0.5,0-1,0-1.5
	c-0.2-0.2-0.1-0.4-0.1-0.6c0-0.2,0-0.3,0-0.5c0-0.2,0-0.4,0.1-0.6c0-1.5,0-3.1,0-4.6c-0.2-0.2-0.1-0.4-0.1-0.6c0-0.2,0-0.4,0.1-0.6
	C149.4,48.2,149.4,47.8,149.4,47.4z M48.6,112.1c-10.4,10.3-20.8,20.7-31.1,31.1c-1.5,1.5-3.3,2.4-5.7,2.4c-2.7-0.2-4.9-1.5-6.1-4.1
	c-1.2-2.6-0.9-5.2,0.9-7.5c0.3-0.4,0.7-0.8,1.1-1.2c10.2-10.2,20.4-20.4,30.6-30.6c0.8-0.8,1.2-1,2.1,0c2.7,2.8,5.4,5.5,8.2,8.2
	C49.2,111.1,49.4,111.4,48.6,112.1z M52.7,108c-0.4,0.2-0.5-0.1-0.7-0.3c-3.1-3-6.1-6.1-9.1-9.1c-0.2-0.2-0.6-0.4-0.1-0.8
	c0.8-0.7,1.5-1.5,2.4-2.1c0.9-0.6,1.9-0.6,2.7,0.2c2.5,2.2,4.8,4.6,7.1,7.1c0.4,0.4,0.5,0.9,0.5,1.2C55.3,105.2,53.5,107.6,52.7,108
	z M98.3,99C72,98.9,51.6,78,51.6,52.2c0-25.8,21.1-46.8,46.8-46.7c25.7,0.1,46.8,21.2,46.7,46.8C144.9,78.4,124.1,99.1,98.3,99z"/>
<path d="M79.9,48.8c0-2.7-0.1-5.3,0-8c0.1-2,1.8-3,3.3-2c0.7,0.5,1,1.2,1,2c0,5.9,0.4,11.7-0.2,17.6c-0.3,3.5-2.5,5.9-5.8,7.1
	c-3.4,1.2-6.5,0.6-9.2-1.7c-0.9-0.8-1-1.8-0.4-2.9c0.6-1,1.8-1.2,2.9-0.5c0.8,0.5,1.5,1.1,2.4,1.2c2.9,0.6,5.4-1.3,5.8-4.2
	c0-0.2,0.1-0.4,0.1-0.6C79.8,54.2,79.8,51.5,79.9,48.8C79.9,48.8,79.9,48.8,79.9,48.8z"/>
<path d="M123.1,50.2c-0.4-0.4-0.8-0.6-0.3-1.3c2.8-4,0.1-10.5-6.3-10.5c-1.9,0-3.8,0-5.7,0c-2.2,0-2.9,0.8-2.9,3c0,3.6,0,7.2,0,10.8
	c0,3.8,0,7.6,0,11.3c0,1.2,0.4,2.4,1.7,2.5c3.2,0.2,6.4,0.5,9.5-0.2c3.6-0.8,5.9-3.1,6.7-6.7C126.7,55.7,125.7,52.6,123.1,50.2z
	 M114.4,42.8c0.9,0,1.8,0,2.7,0.1c1.4,0.2,2.3,1.3,2.2,2.6c-0.1,1.3-1.1,2.2-2.5,2.3c-0.7,0-1.4,0-2,0c-2.7,0-2.7,0-2.7-2.7
	C112.2,42.8,112.2,42.8,114.4,42.8z M117.2,61.7c-1.6,0.1-3.7,0.6-4.8-0.2c-1-0.8-0.2-3-0.3-4.2c0-1.7,0-3,0-4.3
	c0-0.5,0-0.9,0.8-0.9c1.6,0.1,3.2,0,4.8,0.2c2.5,0.3,4.2,2.5,4.1,4.9C121.7,59.6,119.8,61.6,117.2,61.7z"/>
<path d="M105.1,47.5c-0.3-5.3-3.7-8.6-8.8-9.1c-4.1-0.3-8.2,2.7-9.2,7.1c-0.5,2.2-0.2,4.5-0.2,6.8c0,1.8-0.1,3.7,0,5.5
	c0.3,4.5,4.2,8.1,8.9,8.2c4.6,0.1,8.6-3.3,9.1-7.8C105.4,54.7,105.3,51.1,105.1,47.5z M100.7,57.8c-0.3,2.5-2.4,4-5,3.9
	c-2.4-0.1-4.2-1.9-4.4-4.4c0-0.1,0-0.3,0-0.4c0-1.5,0-3.1,0-4.6c0,0,0,0,0,0c0-1.6-0.1-3.3,0-4.9c0.1-2.5,2.1-4.4,4.6-4.5
	c2.3-0.1,4.5,1.6,4.8,4C101,50.5,101.1,54.2,100.7,57.8z"/>
</svg>
