<?xml version="1.0" encoding="utf-8"?>
<!-- Generator: Adobe Illustrator 23.0.0, SVG Export Plug-In . SVG Version: 6.00 Build 0)  -->
<svg version="1.1" id="Layer_1" xmlns="http://www.w3.org/2000/svg" xmlns:xlink="http://www.w3.org/1999/xlink" x="0px" y="0px"
	 viewBox="0 0 150 150" style="enable-background:new 0 0 150 150;" xml:space="preserve">
<style type="text/css">
	.st0{display:none;fill:#FEFEFE;}
</style>
<path class="st0" d="M75.5,268c-63,0-126,0-189,0.1c-2.5,0-3.1-0.4-3.1-3c0.1-126.2,0.1-252.4,0-378.7c0-2.9,0.8-3.2,3.3-3.2
	c126.1,0.1,252.2,0.1,378.3,0c2.6,0,3.3,0.4,3.3,3.2c-0.1,126.1-0.1,252.2,0,378.3c0,2.9-0.8,3.4-3.5,3.4
	C201.7,268,138.6,268,75.5,268z"/>
<path d="M131.8,2c-18.7,0-37.5,0-56.2,0C56.7,2,37.8,2,18.8,2C8.5,2,1.5,9,1.5,19.4c0,25.1,0,50.1,0,75.2c0,1.1,0,2.1,0.2,3.2
	c1.4,8.6,8,14.2,17,14.2c16.6,0,33.1,0,49.7,0c1.9,0,2.2,0.6,2.2,2.3c-0.1,10.7,0,21.4,0,32c0,2.9,0.9,3.8,3.8,3.8
	c12.7,0,25.3,0,38,0c2.8,0,3.7-0.9,3.7-3.6c0-4.7,0.1-9.4,0-14c0-1.5,0.4-1.9,1.9-1.8c3.2,0.1,6.5,0.1,9.7,0c2.5,0,3.4-1,3.4-3.5
	c0-4.5,0-9,0-13.5c0-1.2,0.2-1.7,1.6-1.7c10.4-0.3,17-7.1,17-17.5c0-24.9,0-49.9,0-74.8C149.5,8.9,142.6,2,131.8,2z M69.6,106.4
	c-2.4,0-4.8,0-7.1,0c2.7-2.7,5.3-5.3,8-8c0,2.3,0,4.6,0,7C70.5,106.1,70.3,106.4,69.6,106.4z M123.7,125.1c-1.9-0.1-3.8-0.1-5.7,0
	c-1.6,0.1-2.1-0.3-2.1-2c0.1-9.3,0-18.6,0-27.9c0-3-0.9-4.4-2.8-4.3c-1.9,0-2.8,1.4-2.8,4.4c0,15.8,0,31.5,0,47.3c0,1.7-0.4,2-2.1,2
	c-10.2-0.1-20.4-0.1-30.7,0c-1.4,0-1.8-0.3-1.8-1.7c0.1-8.5,0-17,0-25.5c0-8.2,0-16.5,0-24.7c0-1.6,0.1-3.2-1.8-4
	c-1.8-0.7-2.8,0.5-3.9,1.6c-3.9,3.9-7.7,7.8-11.6,11.6c-3.5,3.4-7.4,3.5-10.8,0.1c-6.7-6.7-13.4-13.4-20.2-20.1
	c-0.9-0.9-0.9-1.4,0-2.2c1.6-1.4,3.1-2.9,4.5-4.5c0.9-1,1.4-0.8,2.3,0.1c5.2,5.3,10.4,10.5,15.6,15.7c2.7,2.7,3.5,2.7,6.2,0
	c4.5-4.6,9.1-9.2,13.6-13.8c3-3.1,6.4-4.6,10.7-4.5c8.7,0.1,17.4,0,26.1,0c11.1,0,18.6,7.5,18.6,18.6c0,10.7,0,21.5,0,32.2
	C125.4,124.6,125.2,125.2,123.7,125.1z M143.9,95.4c0,6.4-5,11-11.5,11c-1.2,0-1.6-0.3-1.5-1.6c0.1-4.7,0-9.4,0-14
	c0-13.9-10.1-23.9-23.9-24c-8.8,0-17.7,0-26.5,0c-5.7,0-10.4,2-14.3,6c-3.9,4-7.8,7.9-11.6,11.9c-0.9,0.9-1.4,1.2-2.4,0.1
	c-4.6-4.7-9.3-9.4-14-14c-0.8-0.8-1.1-1.7-1.1-2.8c0-9.8,0-19.5,0-29.3c0-0.7,0.1-1.4-0.2-2.1c-0.6-1.3-1.5-2-3-1.8
	c-1.3,0.2-2.1,1-2.3,2.3c-0.1,0.6,0,1.2,0,1.8c0,9,0,18.1,0,27.1c0,1.4-0.4,2.3-1.4,3.2c-2.9,2.8-5.7,5.7-8.6,8.5
	c-2.2,2.2-2.2,3.3,0,5.5c7.1,7.1,14.3,14.3,21.4,21.4c0.5,0.5,0.9,0.9,1.6,1.7c-9.3,0-18.2,0.2-27.1-0.1
	c-6.2-0.2-10.5-4.9-10.5-11.1c0-25.5,0-51,0-76.6c0-6.3,4.7-11.1,11-11.1c38.3,0,76.6,0,115,0c6.2,0,10.9,4.7,11,10.9
	C144,44.1,144,69.7,143.9,95.4z"/>
<path d="M93.9,27.5c-9.2,0-16.8,7.6-16.9,16.8C77,53.8,84.4,61.4,94,61.4c9.3,0,17-7.6,17-16.9C111,35.1,103.3,27.5,93.9,27.5z
	 M94,55.9c-6.4,0-11.4-5-11.5-11.4c0-6.3,5.1-11.5,11.4-11.5c6.3,0,11.5,5.2,11.5,11.4C105.5,50.7,100.3,55.9,94,55.9z"/>
</svg>
