<?xml version="1.0" encoding="utf-8"?>
<!-- Generator: Adobe Illustrator 23.0.0, SVG Export Plug-In . SVG Version: 6.00 Build 0)  -->
<svg version="1.1" id="Layer_1" xmlns="http://www.w3.org/2000/svg" xmlns:xlink="http://www.w3.org/1999/xlink" x="0px" y="0px"
	 viewBox="0 0 150 150" style="enable-background:new 0 0 150 150;" xml:space="preserve">
<style type="text/css">
	.st0{display:none;fill:#FEFEFE;}
	.st1{fill:#444444;}
	.st2{fill:#8C8C8C;}
	.st3{fill:#666666;}
	.st4{fill:#4A4A4A;}
	.st5{fill:#020202;}
	.st6{fill:#010101;}
</style>
<path class="st0" d="M90.6-129.4c62.4,0,124.8,0,187.2-0.1c2.7,0,3.3,0.5,3.3,3.3c-0.1,134.7-0.1,269.3,0,404c0,2.7-0.5,3.3-3.3,3.3
	c-134.7-0.1-269.3-0.1-404,0c-2.7,0-3.3-0.5-3.3-3.3c0.1-61.9,0.1-123.7,0.1-185.6c2.3,0.4,1.8,2.4,2,3.7c1.1,8.6,2.4,17.1,4.3,25.6
	c7.2,31.4,21.2,59.4,41.8,84.1c17.6,21,38.4,38.1,62.7,50.7c22,11.4,45.3,18.6,70,21.3c9.7,1.1,19.4,1.8,29.1,1.5
	c26.8-0.9,52.6-6.5,77.2-17.2c19.1-8.4,36.5-19.5,52-33.3c17.5-15.5,32.2-33.3,43.6-53.8c12.6-22.5,20.6-46.6,24-72
	c5.1-38.7-0.1-76-16.4-111.6c-18.7-41-48.1-72.3-87.3-94.3c-23.3-13.1-48.4-20.9-74.9-23.8c-2-0.2-3.9-0.6-5.9-0.8
	C91.8-127.8,90.5-127.8,90.6-129.4z"/>
<path class="st0" d="M59.4-129.4c-2.6,1.7-5.6,1.1-8.3,1.5c-51.9,6.5-95.1,29.5-129.7,68.5C-105.7-28.8-121.8,7-127.5,47.5
	c-0.5,3.7-0.2,7.6-1.9,11.1c0-61.5,0-123.1-0.1-184.6c0-2.9,0.6-3.5,3.5-3.5C-64.2-129.4-2.4-129.4,59.4-129.4z"/>
<path class="st1" d="M72.8,0.9c-0.3,0.4-0.8,0.3-1.2,0.3C71.5,1.1,71.5,1,71.5,1c0-0.1,0.1-0.1,0.1-0.1C72,0.9,72.4,0.9,72.8,0.9z"
	/>
<path class="st1" d="M0.8,78c0.4,0.3,0.3,0.8,0.2,1.2c-0.1,0.1-0.2,0.1-0.2,0C0.8,78.8,0.8,78.4,0.8,78z"/>
<path class="st2" d="M71,1.1c-0.2,0-0.5,0.1-0.6-0.2c0.2,0,0.4,0,0.6,0c0.1,0.1,0.1,0.1,0.1,0.2C71.1,1.1,71,1.1,71,1.1z"/>
<path class="st3" d="M71,1.1C71,1,71,1,71,0.9c0.2,0,0.4,0,0.6,0c0,0.1,0,0.2,0,0.3C71.4,1.1,71.2,1.1,71,1.1z"/>
<path class="st4" d="M79.2,1.1c-0.3,0-0.5,0-0.6-0.2c0.2,0,0.4,0,0.6,0C79.3,0.9,79.3,1,79.2,1.1C79.2,1.1,79.2,1.1,79.2,1.1z"/>
<path class="st3" d="M79.2,1.1c0-0.1,0-0.2,0-0.2c0.2,0,0.4,0,0.6,0c0.1,0,0.1,0.1,0.1,0.2c0,0.1-0.1,0.1-0.1,0.1
	C79.6,1.1,79.4,1.1,79.2,1.1z"/>
<path class="st2" d="M79.8,1.1c0-0.1,0-0.2,0-0.2c0.2,0,0.4,0,0.6,0C80.3,1.3,80,1.2,79.8,1.1z"/>
<path class="st2" d="M0.8,70.5c0.4,0.1,0.3,0.3,0.2,0.6c-0.1,0.1-0.2,0.2-0.2,0C0.8,70.9,0.8,70.7,0.8,70.5z"/>
<path class="st3" d="M0.8,71.1c0.1,0,0.2,0,0.2,0c0,0.2,0,0.4,0,0.6c-0.1,0.1-0.1,0.2-0.2,0C0.8,71.4,0.8,71.3,0.8,71.1z"/>
<path class="st4" d="M0.8,71.6c0.1,0,0.2,0,0.2,0c0,0.3,0,0.5-0.2,0.6C0.8,72,0.8,71.8,0.8,71.6z"/>
<path class="st3" d="M0.8,79.2c0.1,0,0.2,0,0.2,0c0,0.2,0,0.4,0,0.6c-0.1,0.1-0.2,0.1-0.2,0C0.8,79.6,0.8,79.4,0.8,79.2z"/>
<path class="st2" d="M0.8,79.8c0.1,0,0.2,0,0.2,0c0,0.2,0.1,0.5-0.2,0.6C0.8,80.2,0.8,80,0.8,79.8z"/>
<path d="M148.2,59.4c-6.6-30.9-32.8-54.5-64.1-58c-1.1-0.1-2.2,0.1-3.2-0.5c-0.2,0-0.4,0-0.6,0C80.2,1.1,79.9,1,79.7,1
	c-0.2,0-0.3,0-0.5,0c-0.2,0-0.4,0-0.6-0.2c-1.9,0-3.9,0-5.8,0C72.4,1.2,72,1,71.7,1c-0.2,0-0.4,0-0.6,0c-0.2,0-0.5,0.1-0.7-0.2
	c-0.3,0-0.6,0-0.9,0c-1.5,0.3-3,0.1-4.5,0.3c-8.5,1.1-16.7,3.7-24.3,7.7c-8.9,4.7-16.6,10.9-23,18.7C9.3,37.7,3.9,49.4,1.6,62.4
	c-0.4,2.3-0.3,4.6-0.7,6.9c0,0.4,0,0.8,0,1.2C1,70.6,1,70.9,1,71.1c0,0.2,0,0.3,0,0.5c0,0.2,0,0.4-0.2,0.6c0,1.9,0,3.9,0,5.8
	c0.3,0.3,0.1,0.7,0.2,1.1c0,0.2,0,0.4,0,0.6c0,0.2,0.1,0.5-0.2,0.7c0,0.4,0,0.8,0,1.2c0.4,0.1,0.3,0.4,0.3,0.7
	C2.7,98,8.5,111.9,18.8,124c20.8,24.4,55.6,32.7,85.2,20.4C137.4,130.3,155.8,94.9,148.2,59.4z M75.3,145.6
	C36.5,145.5,5.1,114,5.2,75.3C5.3,36.5,36.8,5.1,75.5,5.3c38.8,0.1,70.2,31.7,70,70.4C145.4,114.4,114,145.7,75.3,145.6z"/>
<path d="M73.7,135.9c-10-0.3-19.3-2.9-28-7.7c-3.3-1.8-6.3-4-9.2-6.4c-1.2-1-1.5-2.3-0.7-3.3c0.8-1,2.1-1.2,3.3-0.2
	c3.5,2.8,7.1,5.3,11,7.2c11.3,5.6,23.1,7.3,35.5,5c13.3-2.5,24.2-9,32.9-19.3c6.4-7.6,10.5-16.5,12.1-26.3c2.5-15-0.7-28.9-9.2-41.5
	c-0.9-1.4-2.1-2.7-3.1-4c-1.1-1.4-1-2.6,0-3.5c1-0.8,2.3-0.5,3.4,0.8c7.2,8.7,11.8,18.7,13.4,30c2.2,16.4-1.4,31.4-11.3,44.7
	c-8.8,11.9-20.6,19.5-34.9,23C84,135.6,78.9,136.1,73.7,135.9z"/>
<path d="M14.9,75.8c0.4-19.9,8.1-36.3,24-48.6c9.5-7.4,20.4-11.4,32.4-12.1c16.1-1,30.4,3.7,42.9,13.9c1.3,1.1,1.6,2.4,0.7,3.4
	c-0.9,1.1-2.1,1.1-3.5,0c-4.8-3.9-10-7.1-15.8-9.3c-9.9-3.8-20-4.7-30.4-2.8c-13.3,2.5-24.2,9-32.9,19.3
	C25.8,47.2,21.7,56,20.1,65.9c-2.5,15.1,0.7,29,9.2,41.6c0.9,1.4,2.1,2.7,3.1,4c1,1.4,1,2.6-0.1,3.5c-1,0.8-2.3,0.5-3.3-0.8
	c-7.3-8.8-11.8-18.8-13.5-30.1C15.1,81.4,14.8,78.6,14.9,75.8z"/>
<path class="st5" d="M77.6,119.8c0,1.5,0,2.9,0,4.4c-0.1,1.5-0.9,2.4-2.1,2.5c-1.3,0-2.2-0.9-2.2-2.5c0-2.9-0.1-5.8,0-8.7
	c0-1.6,0.8-2.4,2.1-2.4c1.3,0,2.2,0.8,2.2,2.5C77.6,116.9,77.6,118.3,77.6,119.8z"/>
<path class="st5" d="M31.1,73.2c1.5,0,2.9,0,4.4,0c1.5,0.1,2.4,0.9,2.4,2.2c0,1.3-0.8,2.1-2.4,2.1c-2.9,0.1-5.9,0.1-8.9,0
	c-1.5,0-2.4-1-2.4-2.2c0-1.2,0.9-2.1,2.4-2.2C28.1,73.2,29.6,73.2,31.1,73.2z"/>
<path class="st5" d="M73.2,30.9c0-1.4,0-2.8,0-4.2c0.1-1.6,1-2.5,2.2-2.5c1.2,0,2.1,1,2.1,2.5c0,2.9,0.1,5.8,0,8.7
	c0,1.6-0.9,2.5-2.2,2.5c-1.3,0-2-0.9-2.1-2.5C73.2,33.9,73.2,32.4,73.2,30.9z"/>
<path class="st5" d="M119.7,77.6c-1.5,0-2.9,0-4.4,0c-1.6-0.1-2.5-0.9-2.5-2.2c0-1.3,0.9-2.1,2.4-2.1c2.9-0.1,5.8,0,8.7,0
	c1.6,0,2.5,1,2.5,2.2c0,1.2-1,2.1-2.5,2.1C122.7,77.6,121.2,77.6,119.7,77.6z"/>
<path class="st6" d="M53.2,111.7c1.5,0,2.6,1.5,2,2.9c-0.7,1.6-1.7,3.2-2.7,4.6c-0.6,0.9-1.6,1.1-2.6,0.6c-1-0.5-1.5-1.4-1.1-2.5
	c0.7-1.7,1.7-3.3,2.8-4.9C52,111.9,52.6,111.7,53.2,111.7z"/>
<path class="st6" d="M102.1,117.5c-0.1,1.3-0.5,2.1-1.5,2.4c-0.9,0.3-1.9,0.1-2.4-0.8c-0.9-1.4-1.8-2.9-2.5-4.4
	c-0.5-0.9-0.3-1.9,0.6-2.6c0.8-0.6,1.7-0.7,2.4-0.1C100.4,113.6,101.1,115.7,102.1,117.5z"/>
<path class="st6" d="M55.3,36.6c0,1.3-0.4,2.1-1.3,2.4c-0.9,0.3-1.9,0.2-2.5-0.7c-1-1.5-1.8-3-2.7-4.6c-0.5-0.9-0.1-1.8,0.7-2.4
	c0.8-0.6,1.7-0.7,2.4-0.1C53.6,32.8,54.5,34.9,55.3,36.6z"/>
<path class="st6" d="M114.3,55.4c-1.3,0-2.1-0.4-2.5-1.3c-0.3-0.9-0.3-1.9,0.6-2.5c1.5-1.1,3.1-2,4.7-2.7c0.9-0.4,1.7-0.1,2.3,0.7
	c0.6,0.7,0.8,1.7,0.2,2.4C118.1,53.7,115.9,54.4,114.3,55.4z"/>
<path class="st6" d="M97.4,39.2c-1.5,0-2.5-1.6-1.8-3.1c0.7-1.5,1.6-3,2.5-4.4c0.7-1,1.7-1.2,2.8-0.6c1.1,0.6,1.4,1.7,0.9,2.7
	c-0.7,1.5-1.7,2.9-2.5,4.4C98.9,39,98.2,39.1,97.4,39.2z"/>
<path class="st6" d="M33.4,102.1c-1.2-0.1-2.1-0.4-2.4-1.4c-0.3-1-0.2-1.9,0.7-2.4c1.5-0.9,2.9-1.8,4.5-2.6c0.9-0.4,1.8-0.2,2.5,0.6
	c0.7,0.8,0.8,1.8,0.1,2.5C37.2,100.4,35.1,101.1,33.4,102.1z"/>
<path class="st6" d="M113.8,95.5c0.5,0,0.9,0.1,1.2,0.4c1.3,0.8,2.7,1.5,4,2.4c1,0.7,1.2,1.7,0.6,2.8c-0.6,1.1-1.7,1.4-2.7,0.9
	c-1.5-0.7-3-1.6-4.4-2.5c-0.9-0.6-1.1-1.6-0.8-2.6C112.1,95.9,112.9,95.5,113.8,95.5z"/>
<path class="st6" d="M33.1,48.8c0.2,0.1,0.6,0.1,1,0.3c1.3,0.7,2.7,1.5,4,2.3c1.1,0.7,1.4,2,0.8,3c-0.6,1-1.9,1.3-3.1,0.7
	c-1.4-0.8-2.8-1.6-4.1-2.4c-0.9-0.6-1.1-1.5-0.7-2.4C31.2,49.3,32,48.8,33.1,48.8z"/>
<path d="M107.9,70.5c-0.2-1.5-1.3-2-3.6-1.7c-7.2,1.1-14.4,2.2-21.5,3.3c-0.9,0.2-1.5,0-2-0.8c-1.6-2.2-4.6-3.3-7.2-2.4
	c-0.9,0.3-1.4,0.1-2.1-0.5C64.2,61.2,57,54,49.8,46.8c-0.3-0.3-0.6-0.6-0.9-0.9c-1-0.8-2.2-0.8-3,0c-0.8,0.8-0.8,2,0,3
	c0.3,0.3,0.6,0.6,0.9,0.9c7.2,7.2,14.4,14.4,21.6,21.6c0.7,0.7,0.8,1.2,0.5,2.1c-1.4,4.2,1.9,8.5,6.4,8.7c2.9,0.1,5.6-1.7,6.6-4.6
	c0.3-0.9,0.7-1.2,1.6-1.3c7.2-1.1,14.4-2.2,21.5-3.3C107.1,72.8,108.1,71.9,107.9,70.5z M75.3,77.9c-1.3,0-2.4-1.1-2.4-2.4
	c0-1.4,1.1-2.5,2.5-2.4c1.3,0,2.4,1.1,2.4,2.4C77.8,76.8,76.7,77.9,75.3,77.9z"/>
</svg>
