<?xml version="1.0" encoding="utf-8"?>
<!-- Generator: Adobe Illustrator 23.0.0, SVG Export Plug-In . SVG Version: 6.00 Build 0)  -->
<svg version="1.1" id="Layer_1" xmlns="http://www.w3.org/2000/svg" xmlns:xlink="http://www.w3.org/1999/xlink" x="0px" y="0px"
	 viewBox="0 0 150 150" style="enable-background:new 0 0 150 150;" xml:space="preserve">
<path d="M144,48.8c-19.1-9.3-38.1-18.6-57.2-27.9c-7.1-3.4-14.2-3.5-21.3-0.1c-14.6,6.9-29.1,13.9-43.7,20.8
	c-5.6,2.7-11.2,5.4-16.7,8.1c-1.9,0.9-3.4,2.3-4,4.4c-0.9,2.8,0.3,5.6,3.4,7.5c1.7,1,3.5,1.9,5.3,2.7c0.6,0.3,0.9,0.6,0.9,1.4
	c0,8.5,0,17,0,25.5c0,0.7-0.2,1-0.8,1.3c-5.9,3.3-6,11-0.3,14.5c0.8,0.5,0.8,0.8,0.5,1.6c-1.1,3.3-2.1,6.6-3.2,10
	c-1.4,4.4-2.8,8.9-4.2,13.4c7.2,0,14.3,0,21.5,0c-0.1-0.5-0.3-1-0.4-1.4c-2.3-7.3-4.6-14.6-6.9-21.9c-0.2-0.8-0.3-1.1,0.5-1.6
	c2.8-1.6,4.2-4.1,4.2-7.3c0-3.2-1.5-5.6-4.3-7.1c-0.8-0.4-1-0.8-1-1.7c0-7.4,0-14.8,0-22.2c0-0.3-0.2-0.7,0.3-1
	c2.5,1.2,5.1,2.5,7.6,3.7c0.9,0.4,1.2,0.9,1.2,1.8c0,11.1,0,22.2,0,33.2c0,1.3,0.3,2.4,1.2,3.5c4.6,5.4,10,9.9,16.2,13.4
	c14.5,8.2,30,10.2,46.1,7c13.7-2.7,25.1-9.5,34.3-20c1.1-1.2,1.6-2.5,1.6-4.2c-0.1-10.8,0-21.7-0.1-32.5c0-1.2,0.4-1.8,1.5-2.3
	c6.1-2.9,12.1-5.9,18.1-8.9c2.5-1.2,4.6-2.8,5.6-5.6c0-0.7,0-1.4,0-2C149.1,51.9,146.8,50.2,144,48.8z M118.6,107.7
	c-7.6,8.4-16.8,14.2-27.8,16.9c-18.3,4.5-35.4,1.7-50.8-9.5c-3-2.2-5.7-4.7-8.1-7.5c-0.5-0.5-0.7-1.1-0.7-1.8c0-10.3,0-20.7,0-31.3
	c3.1,1.5,6.1,2.9,9.1,4.3c8.5,4.1,17,8.2,25.6,12.2c6.7,3.1,13.6,3.2,20.4-0.1c10.6-5.2,21.2-10.4,31.8-15.6
	c0.4-0.2,0.8-0.4,1.4-0.6c0,0.6,0,1,0,1.5c0,9.8,0,19.6,0,29.4C119.4,106.4,119.2,107.1,118.6,107.7z M142,57.9
	c-6.3,3.1-12.6,6.2-18.9,9.3c-13,6.3-26,12.7-39,19c-5.4,2.6-10.9,2.6-16.3,0c-14.3-6.8-28.6-13.7-43-20.6c-0.4-0.2-0.9-0.4-1.7-0.8
	c9.7-1.1,18.9-2.2,28.2-3.3c7.8-0.9,15.5-1.8,23.3-2.7c2.5-0.3,3.6-1.4,3.4-3.1c-0.3-1.8-1.7-2.4-4.2-2.1c-8.6,1-17.3,2-25.9,3.1
	c-9.5,1.1-19,2.2-28.5,3.4c-1.5,0.2-3,0.3-4.5,0.5c-0.3,0-0.6,0.1-0.8,0c-2.3-1.1-4.7-2.1-6.9-3.4c-1.2-0.6-1.1-1.2,0.1-2
	c0.4-0.3,0.9-0.5,1.4-0.8c19.9-9.5,39.7-19.1,59.6-28.6c5.2-2.5,10.6-2.5,15.7,0c19.4,9.4,38.7,18.9,58.1,28.4
	c0.9,0.5,2.4,0.7,2.3,1.9C144.3,57,142.9,57.4,142,57.9z"/>
</svg>
