<?xml version="1.0" encoding="utf-8"?>
<!-- Generator: Adobe Illustrator 23.0.0, SVG Export Plug-In . SVG Version: 6.00 Build 0)  -->
<svg version="1.1" id="Layer_1" xmlns="http://www.w3.org/2000/svg" xmlns:xlink="http://www.w3.org/1999/xlink" x="0px" y="0px"
	 viewBox="0 0 150 150" style="enable-background:new 0 0 150 150;" xml:space="preserve">
<style type="text/css">
	.st0{display:none;fill:#FEFEFE;}
	.st1{fill:#F7C708;}
</style>
<path class="st0" d="M280.8,103.6c0,57.9,0,115.7,0.1,173.6c0,2.7-0.5,3.3-3.3,3.3c-134.7-0.1-269.3-0.1-404,0
	c-2.7,0-3.3-0.5-3.3-3.3c0.1-134.4,0.1-268.8,0-403.2c0-2.7,0.5-3.3,3.3-3.3c134.7,0.1,269.3,0.1,404,0c2.7,0,3.3,0.5,3.3,3.3
	c-0.1,65.9-0.1,131.7-0.1,197.6c-2.3-0.4-1.8-2.4-1.9-3.7c-1.8-16.1-5.1-31.9-10.5-47.1c-8.6-24.3-21.1-46.2-38-65.7
	c-18.4-21.3-40.1-38.2-65.4-50.5c-20.9-10.2-43-16.4-66.1-19.2c-28-3.3-55.3-0.6-82.2,7.5c-27.5,8.2-52,21.9-73.7,40.6
	c-28.6,24.8-48.9,55-60.7,91c-5.2,15.8-8.2,31.9-9.5,48.5c-0.9,12.2-0.6,24.2,0.6,36.3c0.1,0.9,0,1.9,1.1,3.1
	c3.9-3.8,8.1-7.5,13.1-9.3c7.7-2.8,11.3-8.1,13.6-15.5c1.6-5.5,5.3-10.2,9.5-14.1c3-2.7,4.4-5.8,4.9-9.7c2.3-17.5,7.8-34,15.9-49.7
	C-53.3-15-31.6-37.7-3-53.7c19.8-11.1,41-17.7,63.6-19.8c33.4-3.1,64.7,3.4,94,19.6c29.6,16.4,51.7,39.9,66.8,70.1
	c7.5,15,12.7,30.8,14.8,47.5c0.5,3.9,2,6.9,4.9,9.7c6,5.7,10,12.8,12.2,20.8c0.6,2.3,1.3,4.3,3.8,5.2c7,2.7,13.3,6.7,18.9,11.7
	c0.5,0.4,1,0.9,1.8,0.8c0.7-1.8,0.7-3.9,1.1-5.8C279.2,105.1,279,103.6,280.8,103.6z"/>
<path class="st1" d="M149.8,85.2c-0.6,1.2-0.4,2.6-0.7,3.9c-0.4,0.1-0.6-0.2-0.8-0.5c-2.2-2-4.7-3.6-7.5-4.7
	c-0.7-0.3-1.1-0.7-1.3-1.4c-0.7-3.3-2.3-6.1-4.8-8.3c-1-0.9-1.4-2-1.6-3.2c-3.2-19.9-13.8-34.6-31.6-43.9
	c-11.2-5.9-23.3-7.7-35.8-5.4c-21.2,3.8-36,15.9-44.7,35.6c-2.1,4.7-3.2,9.7-3.9,14.8c-0.1,0.6-0.3,1.1-0.8,1.5
	c-2.7,2.5-4.7,5.4-5.4,9c-0.1,0.5-0.2,0.9-0.8,1.1c-3.2,1.2-6,3-8.6,5.6C1,84.8,0.8,80.3,1,75.9c0.6-10.6,3.1-20.7,8-30.2
	C20,25.1,36.8,11.9,59.6,6.8c35.3-8,71.7,11.6,85,45.3c2.6,6.8,4.3,13.7,4.9,20.9c0,0.2,0,0.5,0.3,0.6c0,0.4,0,0.8,0,1.2
	c-0.2,0.2-0.1,0.5-0.1,0.7c0,0.3,0,0.7,0,1c0.1,0.4-0.1,0.8,0.1,1.2c0,1.3,0,2.5,0,3.8c-0.2,0.2-0.1,0.6-0.1,0.8c0,0.2,0,0.4,0,0.5
	c0,0.2-0.1,0.5,0.1,0.7C149.8,84,149.8,84.6,149.8,85.2z"/>
<path class="st1" d="M149.5,76.5c0-0.4,0-0.8,0-1.2c0.1-0.1,0.2-0.1,0.3,0c0,0.4,0,0.8,0,1.2C149.7,76.6,149.6,76.6,149.5,76.5z"/>
<path class="st1" d="M149.5,76.5c0.1,0,0.2,0,0.3,0c0,0.4,0,0.8,0,1.2C149.3,77.3,149.5,76.9,149.5,76.5z"/>
<path class="st1" d="M149.5,82.3c0-0.3-0.1-0.7,0.3-0.9c0,0.3,0,0.6,0,0.9C149.7,82.4,149.6,82.4,149.5,82.3z"/>
<path class="st1" d="M149.8,75.3c-0.1,0-0.2,0-0.3,0c0-0.2-0.1-0.5,0.3-0.6C149.8,74.9,149.8,75.1,149.8,75.3z"/>
<path class="st1" d="M149.5,82.3c0.1,0,0.2,0,0.3,0c0,0.2,0,0.4,0,0.6c-0.1,0.1-0.2,0.1-0.2,0C149.5,82.7,149.5,82.5,149.5,82.3z"/>
<path class="st1" d="M149.5,82.9c0.1,0,0.2,0,0.2,0c0,0.2,0,0.4,0,0.6C149.4,83.4,149.5,83.1,149.5,82.9z"/>
<path class="st1" d="M39.5,111.4c0,8.1-0.1,16.3,0,24.4c0.1,5.5-4.1,8.4-8,9c-5.3,0.9-10.3-1.6-11.8-6c-0.6-1.6-0.4-3.3-0.5-5
	c0-2,0-1.9-1.9-2.1c-4.7-0.6-8.6-2.5-11.1-6.7c-1.1-1.8-1.6-3.7-1.6-5.8c0-5.2,0-10.4,0-15.5c0-5.1,2.6-8.5,6.9-10.9
	c2.1-1.1,4.3-1.7,6.7-1.8c0.8,0,1.1-0.3,1.1-1.1c-0.1-0.9,0-1.8,0-2.8c0-4.2,2-7.1,6-8.7c4.8-1.9,10.6-0.2,13.1,3.9
	c0.9,1.5,1.1,3.2,1.1,4.9C39.5,95.3,39.5,103.3,39.5,111.4z"/>
<path class="st1" d="M111.3,111.4c0-7.8,0.3-15.6-0.1-23.4c-0.4-8.3,7.4-11.3,12.9-9.9c4.9,1.3,7.3,4.4,7.3,9.4
	c0,1.1-0.3,2.3,0.1,3.1c0.5,0.9,1.9,0.3,2.9,0.6c5.2,1.2,9.2,3.7,11.1,8.9c0.4,1.2,0.5,2.5,0.5,3.7c0,4.9-0.2,9.8,0,14.7
	c0.3,6.4-4.3,11-9.8,12.6c-1.3,0.4-2.5,0.7-3.8,0.6c-0.8,0-1.1,0.2-1.1,1.1c0.1,1.4,0.1,2.7,0,4.1c-0.4,4-3,6.7-7.3,7.8
	c-4.6,1.2-9.5-0.7-11.7-4.3c-0.9-1.5-1.1-3.2-1.1-4.9C111.3,127.4,111.3,119.4,111.3,111.4z"/>
</svg>
