<?xml version="1.0" encoding="utf-8"?>
<!-- Generator: Adobe Illustrator 23.0.0, SVG Export Plug-In . SVG Version: 6.00 Build 0)  -->
<svg version="1.1" id="Layer_1" xmlns="http://www.w3.org/2000/svg" xmlns:xlink="http://www.w3.org/1999/xlink" x="0px" y="0px"
	 viewBox="0 0 150 150" style="enable-background:new 0 0 150 150;" xml:space="preserve">
<style type="text/css">
	.st0{display:none;fill:#FEFEFE;}
	.st1{fill:#FBFBFB;}
	.st2{fill:#181818;}
	.st3{fill:#707070;}
	.st4{fill:#797979;}
	.st5{fill:#4A4A4A;}
	.st6{fill:#424242;}
	.st7{fill:#5F5F5F;}
	.st8{fill:#414141;}
	.st9{fill:#030303;}
</style>
<path class="st0" d="M-116.5,124.8c0-79.5,0-159-0.1-238.5c0-2.6,0.5-3.1,3.1-3.1c126.2,0.1,252.5,0.1,378.7,0
	c2.6,0,3.1,0.5,3.1,3.1c-0.1,126.2-0.1,252.5,0,378.7c0,2.6-0.5,3.1-3.1,3.1c-80-0.1-160-0.1-240-0.1c0.4-2.1,2.2-1.6,3.5-1.8
	c15.2-2.2,30-6,43.5-13.4c39.6-21.7,63.2-54.7,69-99.7c3.2-24.8-1-48.6-11.9-71.1c-5.4-11.1-12.3-21.1-20.6-30.3
	C98.3,40.1,86.3,30.8,72.5,23.6c-13.2-6.9-27.2-11.3-42-13.2C7,7.4-16,9.9-37.6,19.9c-42.6,19.5-68.3,52.5-76.4,98.8
	C-114.4,120.8-113.7,123.5-116.5,124.8z"/>
<path class="st0" d="M-116.5,151c1.8,4.6,1.8,9.6,2.9,14.4c4.6,20.9,13.6,39.7,27.5,56c2.1,2.4,2.2,4.1,0.7,6.8
	c-6,10.7-14.4,18.7-25.5,23.7c-2.2,1-4.1,2.2-5.5,4.1C-116.5,221-116.5,186-116.5,151z"/>
<path class="st0" d="M-79.7,267.3c11.2-1.3,21.3-5.6,30.4-12.3c1.5-1.1,2.6-1.8,4.6-0.8c13.8,7,28.4,11.2,43.7,13
	c0.6,0.1,1.3,0,1.5,0.8c-26.7,0-53.5,0-80.3,0c-0.3-0.2-0.3-0.3-0.2-0.5C-79.9,267.4-79.8,267.3-79.7,267.3z"/>
<path class="st1" d="M1.6,146.8c0.9,1.6,2.5,1.7,4,2.2c1.1,0.4,2.4,0.3,3.5,0.9c-2.3,0-4.5,0-6.8,0c-0.6,0-0.8-0.1-0.7-0.7
	C1.6,148.4,1.6,147.6,1.6,146.8z"/>
<path class="st2" d="M12.8,150c0.4-0.5,1-0.3,1.5-0.3c0.1,0.1,0.1,0.2-0.1,0.3C13.8,150,13.3,150,12.8,150z"/>
<path class="st3" d="M14.3,150c0-0.1,0-0.2,0.1-0.3c0.5,0,0.9,0,1.4,0c-0.1,0.1-0.1,0.2,0,0.3C15.2,150,14.7,150,14.3,150z"/>
<path class="st4" d="M1.6,96c0.5,0.2,0.2,0.5,0.2,0.8c-0.1,0.2-0.1,0.2-0.2,0C1.6,96.6,1.6,96.3,1.6,96z"/>
<path class="st5" d="M1.6,96.9c0.1,0,0.2,0,0.2,0c0.1,0.3,0,0.5-0.2,0.6C1.6,97.2,1.6,97.1,1.6,96.9z"/>
<path class="st6" d="M1.6,102.3c0.3,0.2,0.4,0.4,0,0.6C1.6,102.7,1.6,102.5,1.6,102.3z"/>
<path class="st7" d="M48,150c0.1-0.3,0.3-0.3,0.6-0.2c0.1,0,0.1,0.1,0.1,0.2c0,0.1-0.1,0.1-0.1,0.1C48.4,150,48.2,150,48,150z"/>
<path class="st8" d="M48.6,150c0-0.1,0-0.2,0-0.2c0.3,0,0.5,0,0.6,0.2C49,150,48.8,150,48.6,150z"/>
<path d="M141.3,97.6c-4.1-3-7-6.6-8.8-11.1c-0.6-1.4-0.4-2.4,0.6-3.5c8.4-9.3,12.4-20.3,11.9-32.9c-0.7-20-15.6-38-35.3-42.4
	c-24.9-5.6-49.1,9.5-54.9,34.4c-0.1,0.6-0.2,1.1-0.4,1.7c-0.4,1.4-1.3,2.1-2.5,1.9c-1.3-0.2-2-1.3-1.7-2.8c1-5.8,3-11.2,6.1-16.2
	C67,9.9,82.2,1.6,101.9,2.3c23.1,0.8,42.8,18.3,46.7,41c2.6,15.3-1.1,29-10.9,41c-0.7,0.9-0.8,1.5-0.2,2.5c2.3,4.2,5.6,7.3,10,9.2
	c1.1,0.5,2,1,2,2.3c0,1.4-1,1.9-2.2,2.3c-8.4,2.8-16.3,1.7-23.5-3.4c-0.8-0.6-1.4-0.6-2.3-0.2c-4,2-8.1,3.4-12.5,4.2
	c-1.6,0.3-2.6-0.3-2.9-1.6c-0.3-1.3,0.5-2.3,2-2.6c4.8-1,9.3-2.6,13.6-5c1.2-0.7,2.2-0.4,3.1,0.5c4.6,4,9.9,5.7,16,5.2
	C140.8,97.7,140.9,97.7,141.3,97.6z"/>
<path class="st9" d="M90.7,54.5c-1.2,0-2.1-1-2.1-2.1c0-1.2,1.1-2.2,2.2-2.2c1.2,0,2.1,1.1,2.1,2.3C92.8,53.7,91.9,54.5,90.7,54.5z"
	/>
<path class="st9" d="M99.4,54.5c-1.2,0-2.2-1-2.2-2.2c0-1.1,1-2.1,2.1-2.1c1.2,0,2.2,1,2.2,2.2C101.5,53.6,100.6,54.5,99.4,54.5z"/>
<path class="st9" d="M108.1,54.5c-1.2,0-2.2-1-2.2-2.2c0-1.1,1-2.1,2.1-2.1c1.2,0,2.2,1,2.1,2.2C110.1,53.6,109.3,54.5,108.1,54.5z"
	/>
<path d="M100.9,92.3c-4.4-28.6-32.3-47.5-60.5-41C20.9,55.7,5.9,71.4,2.3,91.1c-0.2,1.2,0,2.6-0.8,3.7c0,0.4,0,0.8,0,1.2
	c0.2,0.2,0.1,0.5,0.1,0.8c0,0.2,0,0.5-0.1,0.6c0,1.6,0,3.3,0,4.9c0.2,0.2,0.2,0.4,0,0.6c0,0.7,0,1.3,0,2c0.3,1.5,0.3,3.1,0.6,4.7
	c1.7,8.4,5.2,15.9,10.6,22.4c0.8,0.9,0.8,1.7,0.2,2.7c-2.2,3.9-5.3,6.8-9.4,8.6c-0.9,0.4-1.8,0.9-2.1,2c0,0.5,0,1,0,1.4
	c0.3,1.1,1,1.6,2,2c1.8,0.7,3.7,0.9,5.5,1.2c1.3,0,2.5,0,3.8,0c0.5-0.3,1-0.1,1.5-0.1c0.5,0,0.9,0,1.4,0c0.5,0,1,0,1.4-0.1
	c3.5-0.4,6.6-1.8,9.4-3.7c1.4-1,2.5-1.1,3.9-0.4c1.3,0.7,2.8,1.2,4.3,1.7c3.8,1.4,7.8,2.2,11.9,2.5c0.5,0,1,0,1.4,0
	c0.2-0.2,0.4-0.1,0.6-0.1c0.2,0,0.4,0,0.6,0.1c1.7,0,3.5,0,5.2,0c0.1-0.3,0.3-0.3,0.6-0.2c0,0,0,0,0,0c0.2,0,0.5-0.1,0.6,0.2
	c0.2,0,0.4,0,0.6,0c1.7-0.6,3.4-0.6,5.1-0.9C87.4,143.9,105,118.8,100.9,92.3z M60.8,144.7c-10.7,2.2-21,0.7-30.7-4.4
	c-2-1.1-2.4-1-4.1,0.4c-4.3,3.6-9.2,5.2-14.8,5c-0.3,0-0.6,0-0.9-0.1c-0.1,0-0.3-0.1-0.6-0.2c3.9-2.9,6.7-6.5,8.6-10.8
	c0.7-1.6,0.5-2.6-0.6-3.9c-8.1-9-12-19.5-11.8-31.6c0.3-20.6,15.2-39,35.4-43.5c23.5-5.3,46.8,8.1,53.9,30.9
	C103.1,112.1,87.2,139.3,60.8,144.7z"/>
<path d="M73.8,110.8c-4.5,0-8.6-2.8-10.2-7c-1.6-4.3-0.4-9,3.1-12.1c3.3-2.9,8.2-3.4,12.1-1.3c0.2,0.1,0.4,0.2,0.6,0.4
	c1.2,0.8,1.6,2,1,3.1c-0.6,1.1-1.9,1.4-3.1,0.7c-1.6-0.9-3.2-1.3-5-0.9c-3.4,0.7-5.7,4.2-5,7.6c0.7,3.4,4.2,5.8,7.6,5.1
	c1-0.2,1.8-0.8,2.6-1.5c1.1-1,2.3-1.1,3.2-0.2c0.9,0.9,0.9,2.1-0.1,3.2C79.1,109.7,76.5,110.8,73.8,110.8z"/>
<path d="M56.9,99.2c-0.4-0.5-0.4-0.8-0.2-1.4c1.8-4.4-1-8.6-5.8-8.7c-1.4,0-2.9,0-4.3,0c-1.9,0-2.6,0.8-2.6,2.6c0,2.7,0,5.5,0,8.2
	c0,2.8,0,5.6,0,8.4c0,1.6,0.8,2.4,2.4,2.4c1.8,0,3.6,0,5.3,0c3,0,5.2-1.2,6.5-3.9C59.4,104.1,58.9,101.5,56.9,99.2z M49.9,93.4
	c2,0.2,3,0.6,3,1.9c0,1.3-0.9,1.7-3.1,1.9c-1.6,0.1-1.7-0.7-1.5-1.9C48,94,48.3,93.3,49.9,93.4z M52.2,106.4c-0.4,0-0.9,0-1.3,0
	c-2.6,0-2.6,0-2.6-2.6c0-2.4,0-2.4,2.4-2.4c0.5,0,1.1,0,1.6,0c1.4,0.2,2.3,1.2,2.2,2.5C54.4,105.3,53.5,106.3,52.2,106.4z"/>
<path d="M39.4,107.5c-2-5.4-4.1-10.8-6.2-16.2c-0.4-1.2-1.2-2-2.5-2c-1.1,0-2,0.5-2.4,1.5c-2.2,5.7-4.4,11.4-6.6,17.2
	c-0.4,1.2,0.2,2.4,1.2,2.8c1.1,0.5,2.5,0,2.8-1.3c0.6-2.7,2.3-3.2,4.6-2.8c0.3,0,0.6,0,0.9,0c2.2-0.3,3.9,0.1,4.3,2.7
	c0,0.2,0.1,0.4,0.2,0.5c0.6,0.9,1.5,1.2,2.5,0.9c1-0.3,1.4-1.1,1.4-2.3C39.7,108.2,39.6,107.8,39.4,107.5z M32.1,102.3
	c0,0-0.1,0-0.1,0c-3.5,0.3-3.5,0.3-2.3-3c0.3-0.7,0.5-1.4,1-2.6c0.7,1.9,1.3,3.4,1.9,4.8C32.8,102.1,32.7,102.3,32.1,102.3z"/>
</svg>
