<?xml version="1.0" encoding="utf-8"?>
<!-- Generator: Adobe Illustrator 23.0.0, SVG Export Plug-In . SVG Version: 6.00 Build 0)  -->
<svg version="1.1" id="Layer_1" xmlns="http://www.w3.org/2000/svg" xmlns:xlink="http://www.w3.org/1999/xlink" x="0px" y="0px"
	 viewBox="0 0 150 150" style="enable-background:new 0 0 150 150;" xml:space="preserve">
<style type="text/css">
	.st0{display:none;fill:#FEFEFE;}
	.st1{fill:#0774CC;}
</style>
<path class="st0" d="M73.5,223.2c-47.5,0-95.1,0-142.6,0c-1.9,0-2.4-0.3-2.4-2.3c0.1-96.8,0.1-193.6,0-290.4c0-2.2,0.6-2.5,2.5-2.5
	c96.7,0.1,193.4,0.1,290.1,0c2,0,2.5,0.3,2.5,2.5c-0.1,96.7-0.1,193.4,0,290.1c0,2.2-0.6,2.6-2.7,2.6c-47.6-0.1-95.3-0.1-142.9-0.1
	c-0.1-1.1,0.8-1.2,1.5-1.4c3.7-1.4,6.4-4,8.6-7.3c18.2-27.5,36.4-55,54.5-82.6c7.4-11.3,15.2-22.4,22.2-33.9
	c10.4-16.9,16.9-35.2,18.7-55c0.7-7.5-0.1-14.9-1.2-22.3c-3-19.7-11.1-37.3-23.8-52.5c-14.7-17.5-33.2-29.3-55.4-35.1
	c-9.6-2.5-19.4-3.9-29.3-3.6C51.4-69.9,30.8-63.2,12.5-50C-3.6-38.3-15.4-23.3-23.4-5.2c-4.7,10.7-7.3,21.9-8.3,33.6
	c-2,23.1,4.5,44.1,15.3,64.2c3.6,6.8,7.9,13.1,12.1,19.5c17.4,26.1,34.5,52.3,51.8,78.4c5,7.6,10.1,15.1,15,22.8
	c2.5,3.9,5.4,7.2,10,8.7C73.1,222.2,73.7,222.4,73.5,223.2z"/>
<path class="st1" d="M128.9,48.9c-1.8-12.1-6.9-22.6-15.6-31C99.7,4.7,83.2-0.3,64.5,3C55.8,4.5,48,8.1,41.1,13.6
	c-9.2,7.3-15.6,16.6-18.8,27.9c-2.2,7.5-2.8,15.1-1.4,22.9c1.7,9.6,5.6,18.2,10.9,26.3c12,18.1,24,36.3,35.9,54.5
	c1.5,2.3,3.3,4.1,5.9,4.9c0.8,0,1.5,0,2.3,0c2.7-0.8,4.4-2.6,5.9-4.9c8.3-12.6,16.6-25.1,24.9-37.7c5-7.6,10.4-15,14.8-23.1
	C127.6,73.3,130.7,61.6,128.9,48.9z M120.9,69.5c-1.8,6.3-4.8,12-8.3,17.4c-12.1,18.4-24.3,36.8-36.4,55.2c-1.4,2.1-1.4,2.1-2.8,0
	C61.2,123.6,49.1,105.2,37,86.8c-4.6-7-8.1-14.6-9.7-23c-1.4-7.5-0.7-14.9,1.6-22.1c3.3-10,9.3-18.2,17.9-24.4
	c6.4-4.6,13.5-7.6,21.3-8.5c17.6-2.1,32.2,3.6,43.8,17c5.9,6.8,9.4,14.9,10.6,23.9c0.1,0.9,0.2,1.8,0.3,2.7c0.1,0.9,0.1,1.7,0.2,2.6
	C123.1,60,122.2,64.8,120.9,69.5z"/>
<path class="st1" d="M74.8,27.7c-15.9-0.1-28.9,12.9-29,28.9c0,15.9,12.9,28.9,28.9,29c15.9,0.1,29-12.9,29-28.9
	C103.7,40.8,90.8,27.7,74.8,27.7z M75.7,79.1c-12.7,0.4-23-9.3-23.4-22c-0.4-12.3,9.5-22.6,22.2-23c12.1-0.4,22.5,9.6,22.9,22
	C97.7,68.2,87.8,78.7,75.7,79.1z"/>
</svg>
