<?xml version="1.0" encoding="utf-8"?>
<!-- Generator: Adobe Illustrator 23.0.0, SVG Export Plug-In . SVG Version: 6.00 Build 0)  -->
<svg version="1.1" id="Layer_1" xmlns="http://www.w3.org/2000/svg" xmlns:xlink="http://www.w3.org/1999/xlink" x="0px" y="0px"
	 viewBox="0 0 150 150" style="enable-background:new 0 0 150 150;" xml:space="preserve">
<style type="text/css">
	.st0{fill:#0774CC;}
</style>
<g>
	<path class="st0" d="M2,104.9c0.7-1.4,0.7-3,1.1-4.6c3.7-13,15.5-22.1,28.9-22.1c18.3-0.1,36.7,0,55,0c3.3,0,6.5,0.6,9.5,1.7
		c0.4,0.2,1.2,0,1.1,0.9c-0.2,0.8-0.6,1.1-1.5,1c-4.8-0.4-8.9,1.1-12.4,4.4c-0.5,0.5-1,1-1.4,1.6c-2.8,4.2-5.6,8.5-7.6,13.2
		c-2.1,5-1.4,10,1.6,14.6c0.5,0.8,0.5,1.3,0,2.1c-3.4,5.3-3.7,10.8-0.8,16.5c0.3,0.5,0.6,1,0.9,1.7c-0.7,0-1.3,0-1.8,0
		c-22.2,0-44.4,0-66.6,0c-2.9,0-5-0.9-6.2-3.6C2,123.1,2,114,2,104.9z"/>
	<path class="st0" d="M62.9,1.3c1.7,0.4,3.4,0.7,5,1.1c14.2,3.9,24,16.8,23.7,31.2c-0.3,14.9-10.4,27.5-24.8,30.9
		C48,69,29.3,55.3,27.8,36.1C26.4,18.8,38.3,4,55.6,1.6c0.2,0,0.4,0,0.5-0.3C58.3,1.3,60.6,1.3,62.9,1.3z"/>
	<path class="st0" d="M146.5,123.8c-1.6-1.2-3.2-2.4-4.8-3.6c-0.5-0.4-0.8-0.8-0.6-1.5c0.3-1.3,0.3-2.7,0-4c-0.2-0.7,0-1.2,0.7-1.6
		c1.5-1.1,3-2.3,4.6-3.4c1.9-1.5,2.2-2.9,1-4.9c-1.6-2.7-3.1-5.5-4.7-8.2c-1.1-1.9-2.5-2.4-4.5-1.5c-1.7,0.7-3.3,1.4-5,2.1
		c-0.9,0.4-1.6,0.5-2.4-0.2c-0.9-0.7-2-1.3-3.1-1.8c-0.8-0.4-1.2-0.9-1.3-1.8c-0.2-1.8-0.4-3.6-0.6-5.4c-0.3-2.1-1.4-3.2-3.4-3.3
		c-3.3-0.1-6.7-0.1-10.1,0c-1.9,0-3.1,1.2-3.3,3c-0.2,1.8-0.5,3.6-0.6,5.4c-0.1,1.1-0.5,1.7-1.5,2.1c-1.1,0.5-2.1,1.2-3.1,1.9
		c-0.6,0.5-1.1,0.6-1.9,0.2c-1.8-0.8-3.6-1.5-5.4-2.3c-2-0.8-3.4-0.3-4.4,1.5c-1.6,2.8-3.2,5.5-4.8,8.3c-1.1,2-0.8,3.4,1,4.8
		c1.5,1.2,3.1,2.4,4.7,3.5c0.6,0.4,0.8,0.8,0.6,1.5c-0.3,1.3-0.3,2.7,0,4c0.2,0.8-0.1,1.3-0.8,1.7c-1.6,1.1-3.1,2.3-4.7,3.5
		c-0.9,0.7-1.5,1.5-1.4,2.6c0,0.8,0.2,1.4,0.6,2.1c1.6,2.8,3.2,5.5,4.8,8.3c1.2,2,2.5,2.4,4.7,1.5c1.8-0.7,3.6-1.5,5.4-2.3
		c0.6-0.3,1-0.2,1.5,0.1c1.4,1.1,3.5,1.5,4.3,2.8c0.9,1.4,0.7,3.5,0.9,5.2c0.1,0.4,0.1,0.9,0.2,1.3c0.3,1.9,1.4,3.1,3.4,3.1
		c3.3,0.1,6.7,0.1,10.1,0c1.9,0,3.1-1.1,3.3-3c0.2-1.7,0.5-3.5,0.6-5.2c0.1-1.2,0.5-1.9,1.6-2.3c1.1-0.4,2-1.1,2.9-1.8
		c0.7-0.5,1.3-0.5,2-0.2c1.7,0.8,3.5,1.5,5.2,2.2c2,0.8,3.4,0.3,4.4-1.5c1.6-2.8,3.3-5.6,4.9-8.4
		C148.4,126.6,148.1,125.1,146.5,123.8z M117.2,129.4c-7,0-12.8-5.8-12.8-12.8c0-7,5.7-12.8,12.8-12.8c7-0.1,12.9,5.8,12.9,12.9
		C130,123.7,124.3,129.4,117.2,129.4z"/>
</g>
</svg>
