<?xml version="1.0" encoding="utf-8"?>
<!-- Generator: Adobe Illustrator 23.0.0, SVG Export Plug-In . SVG Version: 6.00 Build 0)  -->
<svg version="1.1" id="artwork" xmlns="http://www.w3.org/2000/svg" xmlns:xlink="http://www.w3.org/1999/xlink" x="0px" y="0px"
	 viewBox="0 0 40 40" style="enable-background:new 0 0 40 40;" xml:space="preserve">
<style type="text/css">
	.st0{fill:url(#SVGID_1_);}
	.st1{fill:url(#SVGID_2_);}
	.st2{fill:url(#SVGID_3_);}
	.st3{fill:url(#SVGID_4_);}
	.st4{opacity:0.2;enable-background:new    ;}
	.st5{opacity:0.12;enable-background:new    ;}
	.st6{opacity:0.25;fill:#FFFFFF;enable-background:new    ;}
</style>
<g>
	
		<linearGradient id="SVGID_1_" gradientUnits="userSpaceOnUse" x1="20.4376" y1="-147.5597" x2="-5.659" y2="-121.463" gradientTransform="matrix(1 0 0 1 0 150)">
		<stop  offset="0" style="stop-color:#00A0FF"/>
		<stop  offset="6.599999e-03" style="stop-color:#00A1FF"/>
		<stop  offset="0.2601" style="stop-color:#00BEFF"/>
		<stop  offset="0.5122" style="stop-color:#00D2FF"/>
		<stop  offset="0.7604" style="stop-color:#00DFFF"/>
		<stop  offset="1" style="stop-color:#00E3FF"/>
	</linearGradient>
	<path class="st0" d="M2.8,0.6C2.3,1.1,2,1.8,2,2.8v34.4c0,1,0.3,1.7,0.7,2.2l0.1,0.1l19.3-19.3V20v-0.2L2.9,0.5L2.8,0.6z"/>
	
		<linearGradient id="SVGID_2_" gradientUnits="userSpaceOnUse" x1="39.1523" y1="-129.999" x2="1.5243" y2="-129.999" gradientTransform="matrix(1 0 0 1 0 150)">
		<stop  offset="0" style="stop-color:#FFE000"/>
		<stop  offset="0.4087" style="stop-color:#FFBD00"/>
		<stop  offset="0.7754" style="stop-color:#FFA500"/>
		<stop  offset="1" style="stop-color:#FF9C00"/>
	</linearGradient>
	<path class="st1" d="M28.6,26.7l-6.4-6.4V20v-0.2l6.4-6.4l0.1,0.1l7.6,4.3c2.2,1.2,2.2,3.3,0,4.5l-7.6,4.3L28.6,26.7z"/>
	
		<linearGradient id="SVGID_3_" gradientUnits="userSpaceOnUse" x1="25.1469" y1="-126.4322" x2="-10.2425" y2="-91.0427" gradientTransform="matrix(1 0 0 1 0 150)">
		<stop  offset="0" style="stop-color:#FF3A44"/>
		<stop  offset="1" style="stop-color:#C31162"/>
	</linearGradient>
	<path class="st2" d="M28.7,26.6L22.1,20L2.8,39.4c0.7,0.8,1.9,0.9,3.2,0.1L28.7,26.6"/>
	
		<linearGradient id="SVGID_4_" gradientUnits="userSpaceOnUse" x1="-2.1135" y1="-160.831" x2="13.6898" y2="-145.0276" gradientTransform="matrix(1 0 0 1 0 150)">
		<stop  offset="0" style="stop-color:#32A071"/>
		<stop  offset="6.850000e-02" style="stop-color:#2DA771"/>
		<stop  offset="0.4762" style="stop-color:#15CF74"/>
		<stop  offset="0.8009" style="stop-color:#06E775"/>
		<stop  offset="1" style="stop-color:#00F076"/>
	</linearGradient>
	<path class="st3" d="M28.7,13.4L6,0.5C4.7-0.2,3.5-0.1,2.8,0.6L22.1,20L28.7,13.4z"/>
	<g>
		<path class="st4" d="M28.6,26.4L6,39.2c-1.3,0.7-2.4,0.7-3.1,0l0,0l-0.1,0.1l0,0l0.1,0.1l0,0c0.7,0.7,1.9,0.7,3.1,0l22.7-12.9
			L28.6,26.4z"/>
		<path class="st5" d="M2.8,39.2C2.3,38.7,2,37.9,2,37v0.2c0,1,0.3,1.7,0.7,2.2l0.1-0.1L2.8,39.2z"/>
	</g>
	<path class="st5" d="M36.3,22l-7.8,4.4l0.1,0.1l7.6-4.3c1.1-0.6,1.6-1.4,1.6-2.2l0,0C37.9,20.7,37.3,21.5,36.3,22z"/>
	<path class="st6" d="M6,0.7L36.3,18c1,0.6,1.5,1.3,1.6,2l0,0c0-0.8-0.5-1.6-1.6-2.2L6,0.5C3.8-0.7,2,0.3,2,2.8V3
		C2,0.5,3.8-0.5,6,0.7z"/>
</g>
</svg>
