<?xml version="1.0" encoding="utf-8"?>
<!-- Generator: Adobe Illustrator 23.0.0, SVG Export Plug-In . SVG Version: 6.00 Build 0)  -->
<svg version="1.1" id="Layer_1" xmlns="http://www.w3.org/2000/svg" xmlns:xlink="http://www.w3.org/1999/xlink" x="0px" y="0px"
	 viewBox="0 0 150 150" style="enable-background:new 0 0 150 150;" xml:space="preserve">
<style type="text/css">
	.st0{display:none;fill:#FEFEFE;}
	.st1{fill:#696969;}
	.st2{fill:#171717;}
	.st3{fill:#252525;}
</style>
<path class="st0" d="M19.3,268c-44.2,0-88.5,0-132.7,0.1c-2.5,0-3.1-0.4-3.1-3c0.1-126.2,0.1-252.4,0-378.7c0-2.8,0.8-3.2,3.3-3.2
	c126.1,0.1,252.2,0.1,378.3,0c2.6,0,3.3,0.4,3.3,3.2c-0.1,126.2-0.1,252.4,0,378.7c0,2.6-0.6,3-3.1,3c-49-0.1-98-0.1-147-0.1
	c0-1.7,1.4-1.6,2.4-1.7c11.7-1.4,21.9-6.5,31.7-12.8c32.4-20.7,65-41.2,97.5-61.9c14.4-9.2,14.2-29.8-0.2-39
	c-5.2-3.3-10.8-3.5-16.6-2.3c-4.1,0.9-7.8,2.8-11.6,4.2c-1,0.4-2.2,1.1-3.2,0.2c-1-1-0.2-2.1,0.3-3.1c3.9-9.2,6.4-18.7,7.6-28.5
	c1.9-16.1,0.7-31.9-3.4-47.6c-7.2-27.5-21.7-50.9-40.1-72.1c-1.2-1.4-2.5-2.8-4-3.9c-2-1.5-4.3-1.7-6.1,0.1
	c-1.8,1.7-1.6,3.9-0.2,5.8c1.8,2.6,4.1,4.7,6.1,7.1C192,29,203.4,46.8,210.4,67.2c9.2,26.9,10.6,53.8-0.4,80.6
	c-0.1,0.2-0.2,0.5-0.3,0.7c-3.6,9.5-9.3,16.2-19.4,20.1c-17.8,6.9-35.1,15.1-52.6,22.9c-6,2.7-7.6,3.7-7.9-4.6
	c-0.7-17.4-13.6-30.6-31.1-32.6c-20-2.3-39.9-4.6-59.9-6.9C27.4,146,17.4,140.8,7.8,135c-8.6-5.2-17.7-9.3-27.3-12.2
	c-5.4-1.6-6.2-2.7-6.4-8.1c-0.5-11,0.4-22,2.9-32.7c6-25.8,18.7-48,35.4-68.3c11.4-13.9,24.5-26,38.4-37.2c2.3-1.9,4.3-2.2,7.1-0.9
	c7.7,3.6,16.2,4.3,24.5,4.8c13.7,0.7,27.5,1,41-2.7c2.9-0.8,5.8-1.6,8.4-3.2c2.3-1.5,4.3-1.4,6.4,0.4c3.8,3.2,7.9,6.1,11.6,9.5
	c1.4,1.3,2.9,2.4,4.5,3.4c2.1,1.3,4.1,1.3,5.8-0.6c1.7-2,1.7-4.2-0.1-6.1c-2.3-2.5-5.1-4.5-7.6-6.7c-3.2-2.8-6.6-5.3-9.9-8
	c-1.8-1.4-2.8-3.2-2.6-5.5c0.5-5.7-1.2-10.6-5-14.9c-1.9-2.2-1-4.1,0.3-6.1c4.6-7,8.8-14.3,12-22c1.9-4.6,3.4-9.4,4.3-14.3
	c0.5-3.2,0.1-6.2-1-9.2c-2.2-6-6.8-8.3-12.4-5.6c-5.5,2.7-10.1,2-15.2-1c-6.3-3.7-12.9-3.6-19.2,0.3c-5.2,3.2-10,3.4-15.4-0.1
	c-6-3.8-12.7-4.2-18.8-0.3c-5.3,3.3-10.2,3.5-15.9,0.9c-5.6-2.6-10.1-0.3-12,5.6c-2,6.1-1.1,12.1,0.9,18c2.6,7.6,6.4,14.6,10.3,21.6
	c1.1,2,2.4,3.8,3.3,5.9c0.5,1.2,0.8,2.4-0.4,3.4c-1.1,0.8-2.3,1-3.5,0.4c-0.6-0.3-1.1-0.6-1.5-1.1C41.7-66.3,30.9-68.5,19-67.7
	c-9,0.7-17.4-1-25.1-5.7c-1-0.6-1.9-1.1-3.1-1.4c-2.1-0.5-3.7,0.1-4.9,1.9c-1.2,1.8-0.9,3.6,0.5,5.2c1.1,1.3,2.5,2.1,3.9,2.9
	c8.9,5,18.5,7.4,28.8,6.4c9.9-0.9,19,0.7,26,8.5c0.2,0.2,0.4,0.3,0.5,0.5c0.8,1.1,2.2,2,1.5,3.6c-0.6,1.3-2.1,1.2-3.3,1.2
	c-4.7,0-9.2,0.8-13.8,1.7C17.9-40.6,7-35.7-1.7-26.5c-1.9,2-3.5,4.2-4.7,6.7c-1.1,2.4-0.7,4.4,1.5,5.9c2.1,1.4,4,0.7,5.7-0.9
	c0.4-0.4,0.7-0.7,1-1.1c8-11.9,20.1-16.2,33.4-18.4c2.8-0.5,5.7-1.1,8.6-0.8c1.1,0.1,2.5,0,3,1.1c0.6,1.4-0.6,2.3-1.6,3.1
	c-4.7,3.9-9.5,7.8-14,11.9C5.2,4.2-15.9,31.1-27.6,64.5c-4.8,13.8-7.7,27.9-7.6,42.6c0,1.7,0,3.5,0,5.2c0,6.4,0,6.4-6.5,6
	c-2.2-0.2-4.5,0.1-6.7-0.2c-2.7-0.3-4.1-1.6-4.6-4.5C-55,102.2-60.2,98-71.7,98c-6.9,0-13.7,0-20.6,0c-11.1,0.1-17.1,6.2-17.1,17.2
	c0,42.5,0,85,0,127.5c0,10.9,5.8,16.7,16.6,16.7c8,0,16,0,24,0c7.9,0,13.2-4.1,15.3-11.8c0.1-0.4,0.2-0.7,0.3-1.1
	c1.1-4.2,1.7-4.6,5.7-3.1c8.5,3.1,16.9,6.2,25.3,9.4c9.5,3.6,19,6.9,28.5,10.6c4.2,1.6,8.8,1.8,13,3.5
	C19.5,267.3,19.5,267.6,19.3,268z"/>
<path class="st1" d="M53.8,149.7c0.5,0,1,0,1.4,0c0.1,0,0.2,0.1,0.1,0.1c0,0.1-0.1,0.1-0.1,0.1c-0.5,0-1,0-1.4,0
	C53.8,149.9,53.8,149.8,53.8,149.7z"/>
<path class="st2" d="M55.3,150c0-0.1,0-0.2-0.1-0.3c0.5,0,1.1-0.2,1.5,0.3C56.2,150,55.8,150,55.3,150z"/>
<path class="st3" d="M90,150c0.5-0.4,1-0.5,1.4,0C91,150,90.5,150,90,150z"/>
<path d="M147.1,111.3c-1.3-6-6.9-8.8-13-6.4c-1.1,0.4-2.2,0.9-3.6,1.5c0.3-0.7,0.4-1.1,0.6-1.5c3.1-7.6,3.8-15.5,2.6-23.5
	c-1.4-9.6-5.3-18.1-10.8-26c-2.2-3.1-4.5-6.1-7.1-8.9c-1-1.1-2.2-1.2-3.2-0.4c-1,0.8-1,2.2,0,3.3c0.2,0.3,0.5,0.6,0.8,0.9
	c8.6,9.8,14.9,20.7,16.3,33.9c0.9,8.7-0.6,16.9-5.3,24.4c-0.4,0.7-1,1.1-1.7,1.5c-8.1,3.5-16.2,7.1-24.3,10.7
	c-1.7,0.7-1.6,0.7-1.6-1c0.1-6.8-4.4-12.4-11.1-13.5c-6.3-1-12.6-1.7-18.9-2.3c-6.2-0.5-12.1-2-17.4-5.5c-3.3-2.2-7-3.8-10.9-4.8
	c-1.3-0.3-1.7-1-1.7-2.1c0-0.5,0-1.1-0.1-1.6c-0.3-8.7,2-16.9,6-24.6c5.3-10.4,13.1-18.8,22-26.2c1.6-1.3,3-2.7,5.2-1.1
	c0.3,0.2,0.7,0.2,1.1,0.3c5.6,1.3,11.3,1.5,17,1c3.5-0.3,7.1-0.7,10.2-2.7c0.5-0.3,0.8,0.1,1.1,0.4c1.9,1.6,3.9,3.2,5.8,4.8
	c1.3,1.1,2.5,1.2,3.4,0.2c1-1.1,0.8-2.3-0.6-3.5c-2.1-1.7-4.1-3.5-6.3-5.1c-0.6-0.5-0.9-0.9-0.8-1.8c0.3-2.2-0.4-4.2-1.9-5.8
	c-0.7-0.7-0.6-1.2-0.1-1.9c2.4-3.6,4.5-7.4,5.8-11.5c0.6-1.9,1-3.9,0.5-6c-0.8-3-3.1-4.2-5.8-2.9c-1.8,0.9-3.3,0.8-5-0.3
	c-2.6-1.7-5.4-1.7-8-0.1c-1.9,1.3-3.7,1.2-5.6,0c-2.6-1.6-5.3-1.7-7.9,0c-1.8,1.1-3.4,1.2-5.3,0.3C65,2.1,63,3,62,5.6
	c-0.7,1.7-0.6,3.4-0.2,5.1c1,4.5,3.3,8.5,5.6,12.4c0.2,0.4,1.1,0.7,0.2,1.4c-0.7,0.6-1,0-1.4-0.4c-3.2-2.9-6.9-4.4-11.2-4
	c-4.1,0.4-7.9-0.3-11.5-2.5c-1.1-0.7-2.3-0.3-2.9,0.6c-0.7,1-0.5,2.3,0.7,3c0.8,0.6,1.7,1,2.6,1.5c3.3,1.5,6.7,2.2,10.3,1.8
	c3.9-0.4,7.1,0.6,9.8,3.5c0.2,0.3,0.7,0.5,0.4,1c-4.1,0.1-8.2,0.7-12.1,2.4c-3.6,1.6-6.7,3.8-8.7,7.3c-0.7,1.2-0.4,2.4,0.6,3
	c1,0.6,2.2,0.5,2.9-0.6c3.1-4.9,7.9-6.6,13.3-7.4c1.3-0.2,2.7-0.4,4.2-0.2c-0.5,0.4-0.8,0.7-1.1,0.9c-5.8,4.6-11.2,9.6-15.8,15.4
	c-9.7,12.1-16,25.5-15.2,41.4c0,0.7-0.1,0.9-0.8,0.8c-1.3-0.2-2.7-0.3-4-0.3c-1,0-1.4-0.3-1.4-1.4c-0.1-3.6-2.7-6.2-6.2-6.3
	c-3.4-0.1-6.7-0.1-10.1,0c-3.5,0.1-6.2,2.7-6.2,6.2c0,16.9,0,33.8,0,50.8c0,3.4,2.7,6.1,6,6.1c3.5,0.1,6.9,0.1,10.4,0
	c2.9-0.1,5.3-2.1,5.9-5c0.1-0.6,0.2-1.1,0.3-1.8c0.4,0.1,0.7,0.2,1,0.3c5.6,2.1,11.2,4.2,16.9,6.3c3.1,1.1,6.2,2.5,9.5,2.8
	c0.4,0.2,0.9,0.1,1.4,0.1c0.5,0.1,1.1-0.2,1.6,0.1c11.1,0,22.2,0,33.3,0c0.5-0.2,1-0.2,1.4,0c0.2,0,0.4,0,0.6,0
	c0.1-0.1,0.2-0.2,0.3-0.2c4.2-0.3,7.9-1.8,11.4-4.1c13.2-8.3,26.3-16.7,39.5-25C146.3,118.8,147.9,114.8,147.1,111.3z M94.3,33.8
	c-3.9,1.1-7.8,1.5-12.9,1.5c-2.8,0-6.5-0.5-10.2-1.4c-2.2-0.5-3.2-2.7-2.1-4.7c0.6-1.2,1.6-1.7,3-1.4c5,1.2,10.2,1.7,15.3,1
	c1.9-0.2,3.7-0.6,5.5-1c1.8-0.3,3,0.4,3.4,2C96.8,31.7,96,33.3,94.3,33.8z M66.5,11.3c-0.1-0.3-0.2-0.6-0.3-1
	c-0.2-0.8-0.7-1.9-0.2-2.5c0.6-0.8,1.4,0.2,2.1,0.4c2.1,0.5,4.2,0.2,5.9-1c1.8-1.2,3.4-1.2,5.2,0C82,9,85,8.9,87.9,7.1
	c1.2-0.8,2.5-1.2,3.8-0.4c2.9,1.9,5.9,2.6,9.1,0.7c0.4,1.2,0.1,2.1-0.2,3c-1.4,4.6-3.8,8.6-6.4,12.5c-0.2,0.3-0.5,0.4-0.8,0.5
	c-6.3,1.5-12.5,1.9-18.9,0.5c-1.1-0.2-1.9-0.7-2.5-1.7C69.9,18.7,67.7,15.2,66.5,11.3z M140.8,117.1c-13.2,8.4-26.5,16.8-39.7,25.2
	c-3.6,2.3-7.6,3.4-11.9,3.4c-10.6,0-21.2,0-31.8,0c-3.1,0-6.1-0.7-9-1.8c-6.9-2.6-13.8-5.2-20.8-7.7c-1-0.4-1.2-0.9-1.2-1.9
	c0-7,0-14,0-21c0-0.5,0-1.1-0.1-1.6c-0.3-1.1-1.1-1.7-2.3-1.6c-1.1,0.1-1.9,0.8-1.9,2c-0.1,1.9,0,3.9,0,5.8c0,7.3,0,14.7,0,22
	c0,2.4-0.5,2.9-2.9,2.9c-2.8,0-5.7,0-8.5,0c-1.9,0-2.5-0.6-2.5-2.5c0-8.2,0-16.5,0-24.7c0-8.1,0-16.3,0-24.4c0-2.1,0.6-2.7,2.8-2.7
	c2.8,0,5.6,0,8.4,0c2.1,0,2.7,0.6,2.7,2.8c0,3.5,0,6.9,0,10.4c0,1.7,0.8,2.7,2.1,2.7c1.4,0,2.2-1,2.2-2.6c0-1.5,0.1-3,0-4.5
	c-0.1-1,0.3-1.2,1.2-1.1c7,0.1,13.3,2.3,19.3,5.7c4,2.3,7.9,4.6,12.5,5.4c4,0.6,8.1,1,12.2,1.5c4.4,0.5,8.7,0.9,13.1,1.5
	c4.6,0.6,8,4.5,8,9.2c0,3.1,0,3.1-3.2,3.1c-6.2,0-12.4,0-18.7,0c-1,0-1.9,0.1-2.5,1.1c-0.6,1.2-0.1,2.6,1.2,3.1
	c0.6,0.2,1.1,0.2,1.7,0.2c7.5,0,14.9,0,22.4,0c1,0,2-0.2,2.9-0.6c12.7-5.6,25.4-11.2,38.1-16.8c0.8-0.4,1.7-0.7,2.6-0.9
	c2.4-0.6,4.5,0.5,5.4,2.7C143.5,113.4,142.8,115.8,140.8,117.1z"/>
<path d="M95.8,80.9c-0.4-5-3.4-8-7.9-9.6c-0.6-0.2-1.2-0.5-1.8-0.7c-0.5-0.2-0.8-0.4-0.8-1c0-4.1,0-8.2,0-12.3c0-0.9,0.4-0.8,1-0.6
	c1.2,0.4,2.2,0.9,3.2,1.6c1.2,0.9,2.4,0.8,3.2-0.2c0.8-1,0.6-2.3-0.6-3.3c-1.1-0.8-2.2-1.7-3.5-1.9c-2.4-0.4-3.7-1.3-3.2-4
	c0.2-1.2-1-2.1-2.2-2c-1.2,0-2,0.9-2.1,2.1c0,0.2,0,0.5,0,0.7c0,2.3,0,2.3-2.2,3.2c-3.9,1.6-6.1,4.6-6.6,8.7c-0.5,4.1,1,7.4,4.7,9.4
	c1,0.6,2.1,1.2,3.2,1.7c0.8,0.3,1.1,0.7,1,1.6c-0.1,2.5,0,4.9,0,7.4c0,2.5,0,5,0,7.5c0,0.9-0.2,1.2-1.2,1.1
	c-2.1-0.3-3.8-1.2-5.6-2.2c-1.2-0.7-2.4-0.4-3,0.6c-0.7,1-0.4,2.2,0.7,3c1.8,1.2,3.8,2.2,6,2.7c1,0.2,2.3-0.1,2.8,0.6
	c0.5,0.7,0.1,1.9,0.2,3c0,1.5,0.8,2.4,2.1,2.4c1.3,0,2.1-0.9,2.2-2.4c0-0.8,0-1.6,0-2.5c0-0.7,0.2-1,0.9-1.1
	c1.1-0.2,2.1-0.6,3.1-1.2C93.9,90.4,96.2,86.3,95.8,80.9z M81,67.9c0,0.1,0,0.2-0.1,0.5c-2.2-1.2-4.4-2-4.5-4.8
	c-0.2-2.7,0.8-4.8,3.1-6.2c1.4-0.8,1.5-0.7,1.5,0.9C81,61.4,81,64.6,81,67.9z M85.4,90c0-5,0-10,0-14.9c3.5,0.6,5.9,3,6.1,6.3
	C91.7,85.4,89.4,88.8,85.4,90z"/>
</svg>
