<?xml version="1.0" encoding="utf-8"?>
<!-- Generator: Adobe Illustrator 23.0.0, SVG Export Plug-In . SVG Version: 6.00 Build 0)  -->
<svg version="1.1" id="Layer_1" xmlns="http://www.w3.org/2000/svg" xmlns:xlink="http://www.w3.org/1999/xlink" x="0px" y="0px"
	 viewBox="0 0 150 150" style="enable-background:new 0 0 150 150;" xml:space="preserve">
<style type="text/css">
	.st0{display:none;fill:#FEFEFE;}
</style>
<path class="st0" d="M-116.5,70.8c0-61.5,0-123-0.1-184.5c0-2.6,0.5-3.1,3.1-3.1c126.2,0.1,252.5,0.1,378.7,0c2.6,0,3.1,0.5,3.1,3.1
	c-0.1,126.2-0.1,252.5,0,378.7c0,2.6-0.5,3.1-3.1,3.1c-126.2-0.1-252.5-0.1-378.7,0c-2.6,0-3.2-0.5-3.1-3.1
	c0.2-7.2,0.1-14.5,0.1-21.7c5.4,3.4,11.4,2.6,17.4,2.6c118.4,0,236.7,0,355.1,0c2,0,4,0.2,6-0.2c2.3-0.5,4-1.7,4-4.2
	c0-2.5-1.6-3.8-3.9-4.3c-0.5-0.1,0.1,0-0.4-0.1c-7.3-1.4-7.3-1.4-7.3-8.9c0-47.5,0-95,0-142.5c0-0.9,0-1.7,0-2.6
	c0.1-5.1,0.6-5.7,5.9-6c5.5-0.4,7.1-2.8,4.8-7.9c-7.2-16.2-14.5-32.4-21.5-48.7c-2.1-4.8-5.1-6.4-10.1-6.4
	c-30.1,0.1-60.2,0.1-90.4,0.1c-6.5,0-13-0.1-19.5,0c-3.2,0-5.7-1.1-8-3.3C105,0.2,94.4-10.4,83.7-21c-2.3-2.3-3.4-4.8-3.4-8
	c0.1-6.6,0-13.2,0-19.9c0.1-5.2,0.8-6,6.2-6c9.4-0.1,18.7,0,28.1,0c5.9,0,7.5-1.6,7.6-7.6c0.1-7.9,0.1-15.7,0-23.6
	c-0.1-5.8-1.9-7.7-7.6-7.7c-12-0.1-24-0.1-36,0c-5.8,0-7.7,1.7-7.9,7.6c-0.3,7.2-0.1,14.5-0.1,21.7c0,11.5-0.1,23,0,34.5
	c0,3.9-1.2,6.9-4,9.6C56.5-10.3,46.3-0.2,36.2,10.1c-2.8,2.9-5.9,4.1-10,4.1c-35.4-0.1-70.7-0.1-106.1-0.1c-1.5,0-3,0-4.5,0
	c-3.6,0-6,1.6-7.5,5c-6.9,15.5-13.8,31.1-20.7,46.6C-113.4,67.7-113.7,70.3-116.5,70.8z"/>
<path d="M148,138c-0.2,0-0.5,0-0.7,0c-1.9,0-1.9,0-1.9-2c0-19.1,0-38.1,0-57.2c0-1.4,0.2-1.9,1.8-1.8c2.7,0.1,3.5-1.3,2.4-3.7
	c-2.8-6.4-5.7-12.8-8.5-19.2c-0.8-1.8-1.8-2.4-3.8-2.4c-14.4,0.1-28.8,0-43.2,0.1c-0.9,0-1.6-0.3-2.3-0.9
	c-4.4-4.4-8.8-8.8-13.2-13.2c-0.7-0.7-1-1.4-0.9-2.3c0.1-2.7,0.1-5.4,0-8.2c0-1.1,0.2-1.5,1.4-1.5c4,0.1,8.1,0,12.1,0
	c2.2,0,2.9-0.7,2.9-2.9c0-3.4,0-6.8,0-10.2c0-2.3-0.7-3-2.9-3c-4.9,0-9.8,0-14.7,0c-2.4,0-3.1,0.7-3.1,3.1c0,7.5,0,14.9,0,22.4
	c0,1-0.3,1.7-1,2.4c-4.4,4.3-8.8,8.7-13.1,13.1c-0.7,0.7-1.4,1-2.4,1c-14.5,0-29,0-43.5,0c-1.6,0-2.6,0.6-3.2,2.1
	c-2.2,5.2-4.5,10.4-6.9,15.5C2.5,70.8,2,72.5,0.9,74c0,0.6,0,1.2,0,1.7C1.8,76.9,3,77.2,4.4,77c1-0.1,1.3,0.3,1.3,1.3
	c0,19.5,0,39,0,58.5c0,1.1-0.3,1.4-1.4,1.3c-1.4-0.2-2.6,0.1-3.3,1.5c0,0.5,0,1,0,1.5c0.7,1.2,1.8,1.5,3.2,1.5
	c47.6,0,95.1,0,142.7,0c0.4,0,0.9,0,1.3,0c1.2-0.2,1.9-1,1.9-2.2C150,138.9,149.2,138.2,148,138z M78.6,14c3.4,0,6.8,0,10.2,0
	c0.7,0,0.9,0.2,0.9,0.9c0,1.8,0,3.7,0,5.5c0,0.7-0.3,0.9-0.9,0.9c-1.7,0-3.5,0-5.2,0c-1.6,0-3.3,0-4.9,0c-0.7,0-0.9-0.2-0.9-0.9
	c0-1.8,0-3.7,0-5.5C77.6,14.1,77.9,14,78.6,14z M6.7,72.6c-0.2-0.6,0.2-1,0.4-1.4c2.1-4.7,4.2-9.5,6.3-14.2c0.3-0.6,0.5-1,1.3-1
	c12.9,0,25.8,0,38.8,0c-0.1,0.6-0.5,0.9-0.8,1.2C47.9,62,43,66.9,38.1,71.8c-0.5,0.5-1,0.9-1.9,0.9c-9.6,0-19.2,0-28.8,0
	C7.2,72.6,7,72.6,6.7,72.6z M88.6,138c-4.4,0-8.7,0-13.1,0c-5.1,0-10.2,0-15.3,0c-1,0-1.4-0.3-1.3-1.3c0.1-1.2-0.5-2.8,0.3-3.5
	c0.7-0.6,2.2-0.2,3.4-0.2c9.3,0,18.6,0,27.9,0c1.2,0,1.5,0.3,1.5,1.5C91.9,138,92,138,88.6,138z M73.3,127.8c0,0.8-0.3,1-1,1
	c-2.6,0-5.1,0-7.7,0c-0.8,0-1-0.3-1-1c0-2.4,0-4.9,0-7.3c0-2.4,0-4.8,0-7.1c0-0.9,0.1-1.3,1.2-1.3c2.5,0.1,4.9,0,7.4,0
	c0.7,0,1.1,0.1,1.1,1C73.3,118,73.3,122.9,73.3,127.8z M87.3,127.5c0,0.9-0.1,1.3-1.2,1.3c-2.5-0.1-4.9-0.1-7.4,0
	c-1,0-1.1-0.3-1.1-1.2c0-2.4,0-4.9,0-7.3c0-2.3,0-4.7,0-7c0-0.9,0.1-1.3,1.2-1.2c2.5,0.1,4.9,0.1,7.4,0c0.9,0,1.1,0.3,1.1,1.2
	C87.3,118,87.3,122.7,87.3,127.5z M143.3,72.7c-1.5,0-2.9,0-4.4,0c-1.7,0-2.7,0.9-2.6,2.2c0,1.3,0.9,2.1,2.6,2.1
	c2.1,0.1,2.1,0.1,2.1,2.2c0,19.1,0,38.2,0,57.4c0,1.2-0.3,1.5-1.5,1.5c-13.9,0-27.9,0-41.8,0c-1.2,0-1.5-0.3-1.4-1.4
	c0.1-1.7,0-3.4,0-5.1c0-2.1-0.7-2.8-2.8-2.8c-1.9,0-1.9,0-1.9-1.9c0-5.3,0-10.7,0-16c0-2.4-0.6-3-3-3c-8.8,0-17.6,0-26.4,0
	c-2.4,0-3.1,0.6-3.1,3.1c0,5.5,0,11.1,0,16.6c0,1-0.2,1.3-1.3,1.3c-3,0-3.4,0.5-3.4,3.5c0,1.6-0.1,3.1,0,4.7c0.1,1-0.3,1.2-1.2,1.2
	c-8.4,0-16.8,0-25.2,0c-5.7,0-11.4,0-17,0c-1,0-1.3-0.3-1.3-1.3c0-19.5,0-38.9,0-58.4c0-1.2,0.4-1.4,1.5-1.4c8.5,0,17.1,0,25.6,0
	c1.4,0,2.5-0.4,3.5-1.4c11.3-11.4,22.6-22.7,33.9-34c0.8-0.8,1.2-0.9,2.1,0c11.3,11.4,22.6,22.7,33.9,34c1,1,2,1.4,3.5,1.4
	c4.9-0.1,9.9,0,14.8,0c1,0,1.9-0.3,2.4-1.3c0.4-0.8,0.2-1.5-0.3-2.2c-0.6-0.9-1.6-0.9-2.5-0.9c-4.5,0-9,0-13.5,0
	c-0.6,0-1.2,0-1.7-0.6c-5.1-5.2-10.3-10.3-15.4-15.5c-0.1-0.1-0.2-0.3-0.5-0.6c13.1,0,26,0,38.8,0c0.7,0,1.1,0.3,1.4,0.9
	c2.2,4.9,4.3,9.8,6.5,14.7C144.4,72.5,144.2,72.7,143.3,72.7z"/>
<path d="M133.1,107.7c-5.2,0-10.4,0-15.6,0c-5.2,0-10.5,0-15.7,0c-2.2,0-2.9,0.7-2.9,2.8c0,4.2,0,8.4,0,12.7c0,2.2,0.7,2.9,2.9,2.9
	c10.4,0,20.8,0,31.3,0c2.2,0,2.9-0.7,2.9-2.9c0-4.2,0-8.4,0-12.7C136,108.4,135.3,107.7,133.1,107.7z M114.4,121.7
	c-1.7-0.1-3.4,0-5.1,0c-1.6,0-3.3,0-4.9,0c-0.8,0-1-0.2-1-1c0-2.6,0-5.2,0-7.9c0-0.6,0.2-0.8,0.8-0.8c3.4,0,6.9,0,10.3,0
	c0.8,0,0.9,0.3,0.9,1c0,2.6,0,5.1,0,7.7C115.4,121.5,115.1,121.7,114.4,121.7z M131.7,120.7c0,0.7-0.1,1-0.9,1c-3.4,0-6.8,0-10.2,0
	c-0.8,0-0.9-0.3-0.9-0.9c0-2.6,0-5.2,0-7.9c0-0.8,0.3-0.9,0.9-0.9c1.7,0,3.4,0,5.1,0c1.6,0,3.2,0,4.8,0c0.8,0,1.2,0.1,1.2,1.1
	C131.6,115.6,131.6,118.2,131.7,120.7z"/>
<path d="M49.1,84.4c-5.2,0-10.4,0-15.6,0c-5.3,0-10.6,0-15.8,0c-2,0-2.7,0.8-2.7,2.7c0,4.3,0,8.5,0,12.8c0,2.1,0.8,2.8,2.9,2.8
	c10.4,0,20.8,0,31.3,0c2.1,0,2.8-0.7,2.8-2.9c0-4.2,0-8.3,0-12.5C52,85,51.3,84.4,49.1,84.4z M31.3,97.5c0,0.7-0.2,0.9-0.9,0.9
	c-1.7,0-3.4,0-5.1,0c-1.6,0-3.3,0-4.9,0c-0.7,0-1.1-0.1-1-0.9c0.1-2.6,0-5.2,0-7.9c0-0.7,0.2-0.9,0.9-0.9c3.4,0,6.8,0,10.2,0
	c0.7,0,0.9,0.2,0.9,0.9C31.2,92.2,31.2,94.9,31.3,97.5z M47.6,97.4c0,0.7-0.2,1-1,1c-3.3,0-6.7,0-10,0c-0.7,0-1-0.2-1-1
	c0-2.6,0-5.1,0-7.7c0-0.8,0.2-1,1-1c1.7,0,3.4,0,5.1,0c1.6,0,3.3,0,4.9,0c0.7,0,1,0.1,1,0.9C47.6,92.2,47.6,94.8,47.6,97.4z"/>
<path d="M133.1,84.4c-5.2,0-10.4,0-15.6,0c-5.3,0-10.6,0-15.9,0c-1.9,0-2.6,0.7-2.6,2.6c0,4.3,0,8.6,0,13c0,2.1,0.7,2.8,2.8,2.8
	c10.4,0,20.9,0,31.3,0c2.1,0,2.9-0.8,2.9-2.9c0-4.2,0-8.3,0-12.5C136,85.1,135.4,84.4,133.1,84.4z M114.2,98.4c-1.6,0-3.3,0-4.9,0
	c-1.6,0-3.3,0-4.9,0c-0.7,0-1-0.2-1-1c0-2.6,0-5.1,0-7.7c0-0.7,0.2-1,1-1c3.3,0,6.7,0,10,0c0.7,0,1,0.1,1,0.9c0,2.6-0.1,5.1,0,7.7
	C115.4,98.3,115,98.4,114.2,98.4z M131.7,97.5c0,0.7-0.3,0.9-0.9,0.9c-3.4,0-6.8,0-10.2,0c-0.7,0-0.9-0.3-0.9-0.9c0-2.6,0-5.2,0-7.9
	c0-0.7,0.3-0.9,0.9-0.9c1.7,0,3.4,0,5.1,0c1.6,0,3.3,0,4.9,0c0.7,0,1.1,0,1,0.9C131.6,92.3,131.6,94.9,131.7,97.5z"/>
<path d="M51.9,109.8c0-1.3-0.8-2-2.1-2.1c-0.8,0-1.6,0-2.5,0c-9.9,0-19.8,0-29.7,0c-1.7,0-2.7,0.7-2.7,2.1c-0.1,4.7,0,9.3,0,14
	c0,1.2,0.7,2.1,1.9,2.2c1.7,0.1,3.5,0.1,5.2,0c1.2-0.1,1.9-1,1.8-2.2c-0.1-1.2-0.8-1.9-2-2.1c-0.5,0-1.1-0.1-1.6,0
	c-0.7,0.1-1-0.1-1-0.9c0.1-2.6,0-5.2,0-7.9c0-0.6,0.1-0.9,0.8-0.9c3.5,0,7,0,10.5,0c0.6,0,0.7,0.2,0.7,0.8c0,2.7,0,5.4,0,8.2
	c0,0.3,0,0.6-0.4,0.7c-1.3,0.3-2,1.2-1.8,2.5c0.2,1.2,1.1,1.8,2.9,1.8c2.9,0,5.7,0,8.6,0c3,0,6,0,9,0c1.5,0,2.4-0.7,2.4-2.1
	C52,119.2,52,114.5,51.9,109.8z M47.6,120.7c0,0.8-0.2,1-1,1c-3.3,0-6.7,0-10,0c-0.8,0-1-0.2-1-1c0-2.6,0-5.1,0-7.7c0-0.8,0.3-1,1-1
	c1.7,0,3.4,0,5.1,0c1.6,0,3.3,0,4.9,0c0.8,0,1,0.2,1,1C47.6,115.6,47.6,118.2,47.6,120.7z"/>
<path d="M91.7,79.3c-0.3-9.1-7.6-16.2-16.4-16c-9,0.3-16.2,7.6-16,16.4c0.3,9,7.7,16.2,16.4,16C84.7,95.4,91.9,88,91.7,79.3z
	 M75.6,91.3c-6.4,0.1-11.7-5-12-11.6c-0.2-6.4,5-11.9,11.6-12.1c6.4-0.2,11.9,5,12,11.6C87.5,85.8,82.2,91.2,75.6,91.3z"/>
<path d="M73.3,81.8c0-0.5,0-1.1,0-1.6c-0.1-1.4,0.5-2.4,1.8-3c1.3-0.6,2.6-1.3,3.9-1.9c1.3-0.6,2.5-0.3,3,0.8c0.6,1.1,0.2,2.4-1,3.1
	c-0.1,0-0.2,0.1-0.3,0.1c-2.3,0.7-3.6,2-3.2,4.7c0.2,1.4-0.8,2.3-2.1,2.3c-1.3,0-2.2-0.9-2.2-2.3C73.3,83.3,73.3,82.6,73.3,81.8
	C73.3,81.8,73.3,81.8,73.3,81.8z"/>
</svg>
