<?xml version="1.0" encoding="utf-8"?>
<!-- Generator: Adobe Illustrator 23.0.0, SVG Export Plug-In . SVG Version: 6.00 Build 0)  -->
<svg version="1.1" id="Layer_1" xmlns="http://www.w3.org/2000/svg" xmlns:xlink="http://www.w3.org/1999/xlink" x="0px" y="0px"
	 viewBox="0 0 150 150" style="enable-background:new 0 0 150 150;" xml:space="preserve">
<style type="text/css">
	.st0{display:none;fill:#FEFEFE;}
	.st1{fill:#010101;}
</style>
<path class="st0" d="M-116.5,229c0-114.1,0-228.3-0.1-342.4c0-2.8,0.6-3.4,3.4-3.4c126,0.1,252,0.1,378,0c2.8,0,3.4,0.6,3.4,3.4
	c-0.1,126-0.1,252,0,378c0,2.8-0.6,3.4-3.4,3.4c-126-0.1-252-0.1-378,0c-2.8,0-3.5-0.6-3.5-3.4c0.2-9.6,0.1-19.2,0.1-28.9
	c1.6,0,2,1.4,2.5,2.5c2.9,6.1,8,8.9,14.4,9.1c10.2,0.3,20.5,0.1,30.7,0.1c0.5,0,1,0,1.5-0.2c2.6-0.6,4.4-1.9,4.2-4.8
	c-0.2-2.8-2.1-3.8-4.6-3.9c-3.5-0.1-7,0-10.5-0.1c-6.2,0-12.5,0-18.7,0c-1.6,0-3.3,0-4.8-0.7c-3-1.2-4.6-3.7-4.2-6.4
	c0.5-2.9,2.5-4.6,5.8-4.9c1.4-0.1,2.7-0.1,4.1-0.1c114.4,0,228.7,0,343.1,0c1.6,0,3.3-0.1,4.9,0.1c2.8,0.3,4.5,2,5.1,4.7
	c0.5,2.7-0.8,4.5-3,5.9c-1.3,0.8-2.8,1.1-4.3,1.2c-1.9,0.1-3.7,0.1-5.6,0.1c-93,0-186,0-279,0c-1.9,0-3.8-0.1-5.6,0.1
	c-2.2,0.3-3.8,1.3-4,3.7c-0.3,2.5,1.1,4,3.4,4.8c2.1,0.7,4.2,0.4,6.3,0.4c59.1,0,118.2,0,177.4,0c34.6,0,69.2,0,103.9,0
	c2.6,0,5.2,0,7.8-0.6c7.7-1.7,12.8-8.3,12.1-15.7c-0.7-7.8-6.8-13.6-14.8-13.6c-16.9-0.2-33.7,0-50.6-0.1c-1.5,0-3,0.1-4.5-0.2
	c-0.8-0.2-1.9-0.2-2.1-1.2c-0.2-1.1,0.9-1.4,1.6-1.8c1.2-0.7,2.6-1,3.9-1.3c10.7-3.1,21.4-6.1,32.1-9.2c1.9-0.5,3.8-1.1,5.7-1.8
	c4.2-1.6,5.2-3.4,4-7.8c-3.1-11.2-6.5-22.3-9.6-33.5c-11.5-40.3-23.2-80.5-34.6-120.7c-1.1-3.7-2.2-7.4-3.3-11.1
	c-0.4-1.2-0.7-2.4-1.5-3.4c-1.2-1.7-2.9-2.3-4.9-1.7c-2,0.6-2.7,2.1-2.7,4c-0.1,1.8,0.5,3.5,1,5.1c10.3,35.9,20.6,71.9,31,107.7
	c3.5,12,3.1,10.8-7.7,13.9c-19.5,5.6-38.9,11.3-58.4,16.8c-7,2-7.3,1.8-9.3-5.3c-13.9-48.7-28-97.3-41.9-146
	c-2.4-8.3-2.4-8.3,6-10.8c20.6-6.2,41.3-11.9,62-17.8c5.1-1.5,6-0.9,7.6,4.1c0.8,2.6,1.4,5.3,2.3,7.9c1.1,3.2,3.1,4.5,5.5,3.9
	c2.5-0.6,3.9-3,3-6.3c-2.4-9.1-5-18.1-7.7-27.1C172.4-46,166.9-66,161.1-85.9c-0.5-1.6-0.8-3.1-1.4-4.7c-1.5-3.8-3.6-5-7.6-3.9
	C125.2-86.8,98.3-79,71.4-71.3c-5.4,1.6-6.2,3.4-4.8,8.9c0.1,0.2,0.1,0.5,0.2,0.7c2.5,9,2.5,9-7,9c-15.7,0-31.5,0-47.2,0
	c-5.8,0-6.4-0.6-6.4-6.5c0-5.5,0.1-11,0-16.5c-0.1-5-1.7-6.7-6.8-6.9c-4.2-0.2-8.5-0.1-12.7-0.1c-22.6,0-45.2,0-67.9,0
	c-1.6,0-3.3-0.1-4.9,0.2c-3,0.5-4.7,2.1-5.1,5.2c-0.2,2-0.2,4-0.2,6c0,93.1,0,186.2,0,279.3c0,9.2,0.3,9.3-8.9,9.3
	c-6.5,0-11.1,3.2-14,9C-114.7,227.5-114.8,228.9-116.5,229z"/>
<path d="M97,56.9c1.5,0.1,2,1.1,2.4,2.4c2,7.2,4.1,14.3,6.2,21.5c1.7,5.9,3.4,11.8,5.1,17.7c0.1,0.3,0.2,0.6,0.2,0.8
	c0.3,1.4-0.3,2.5-1.5,2.9c-1.1,0.3-2.2-0.3-2.6-1.7c-0.9-3.2-1.8-6.3-2.7-9.5c-2.9-10.2-5.9-20.4-8.8-30.6
	C94.5,58.4,95.3,56.9,97,56.9z"/>
<path d="M118.9,90.7c-0.1,1.2-0.7,2-1.8,2.2c-1.3,0.2-2.1-0.4-2.5-1.7c-1-3.2-1.9-6.5-2.8-9.7c-1.6-5.7-3.3-11.4-4.9-17.1
	c-0.1-0.3-0.2-0.6-0.2-0.8c-0.3-1.3,0.2-2.4,1.4-2.8c1.2-0.4,2.4,0.3,2.8,1.6c0.9,2.9,1.7,5.8,2.5,8.6c1.8,6.2,3.6,12.4,5.3,18.5
	C118.7,89.9,118.8,90.3,118.9,90.7z"/>
<path d="M150.1,135.9c-0.5-3-2.9-5.3-6-5.3c-7.4,0-14.8,0-22.1,0c0.4-0.3,0.8-0.5,1.2-0.6c5-1.4,10.1-2.9,15.1-4.3
	c2.4-0.7,2.8-1.5,2.2-3.8c-6.2-21.5-12.4-43.1-18.6-64.6c-0.5-1.8-1.5-2.5-2.9-2.1c-1.3,0.4-1.8,1.5-1.3,3.2c1,3.7,2.1,7.4,3.2,11
	c3.3,11.5,6.6,23,9.9,34.5c0.2,0.7,0.5,1.2-0.6,1.5c-9,2.5-18,5.1-26.9,7.8c-0.8,0.2-1.1,0-1.3-0.8c-0.6-2.5-1.4-4.9-2.1-7.4
	c-5-17.5-10-34.9-15.1-52.3c-0.2-0.8-0.3-1.2,0.7-1.5c8.9-2.5,17.9-5.1,26.8-7.7c0.7-0.2,1-0.2,1.2,0.6c0.3,1.3,0.7,2.6,1.1,3.9
	c0.5,1.7,1.6,2.5,2.9,2c1.3-0.4,1.8-1.5,1.3-3.2c-0.5-2-1.1-3.9-1.7-5.9c-2.8-9.8-5.6-19.6-8.5-29.5c-0.5-1.9-1.4-2.5-3.1-2
	c-10.8,3.1-21.7,6.2-32.5,9.3c-1.5,0.4-2,1.4-1.6,3c0.3,1.3,0.7,2.6,1.1,3.9c-0.2,0-0.3,0.1-0.5,0.1c-7.4,0-14.8,0-22.1,0
	c-0.9,0-0.9-0.4-0.9-1c0-2.4,0-4.9,0-7.3c0-2.7-0.6-3.4-3.3-3.4c-10.6,0-21.3,0-31.9,0c-2.9,0-3.5,0.6-3.5,3.5
	c0,37.2,0,74.3,0,111.5c0,1.3-0.3,1.6-1.6,1.6c-4.6-0.1-6.1,0.9-7.8,5c0,0.9,0,1.7,0,2.6c1.4,3.8,4.2,5.1,8.1,4.9
	c3.5-0.2,7.1,0,10.6,0c1.7,0,2.7-0.8,2.7-2.2c0-1.4-0.9-2.2-2.7-2.2c-3.7,0-7.5,0-11.2,0c-2.2,0-3.1-0.6-3.1-2
	c0-1.3,0.9-1.8,3.1-1.8c44.8,0,89.6,0,134.3,0c0.4,0,0.9,0,1.3,0c1,0.1,1.6,0.7,1.7,1.7c0.1,1.1-0.5,1.8-1.5,2
	c-0.6,0.1-1.2,0.1-1.7,0.1c-36.9,0-73.8,0-110.7,0c-0.6,0-1.2,0-1.7,0c-1,0.1-1.6,0.8-1.8,1.8c-0.1,1,0.3,1.8,1.2,2.3
	c0.5,0.2,1,0.2,1.6,0.2c2.5,0,5,0,7.4,0c34.8,0,69.5,0,104.3,0c1.1,0,2.1,0,3.2-0.4C148.7,141.7,150.5,138.8,150.1,135.9z
	 M110.3,32.8c0.4,1.6,0.8,3.1,1.3,4.6c0.4,1.1,0.2,1.6-1,1.9c-8.3,2.3-16.5,4.7-24.8,7.1c-0.7,0.2-1.4,0.4-2.1,0.6
	c-0.4,0.1-0.6-0.1-0.7-0.5c-0.5-1.9-1.1-3.8-1.7-5.7c-0.3-1,0.6-0.9,1-1c7.6-2.2,15.1-4.4,22.7-6.5c1.3-0.4,2.6-0.7,3.9-1.1
	C109.8,31.9,110.1,31.9,110.3,32.8z M76.8,22.1c9.2-2.6,18.3-5.3,27.5-7.9c0.1,0,0.2-0.1,0.3-0.1c0.5-0.1,0.5,0.4,0.5,0.6
	c1.2,4,2.3,8.1,3.5,12.1c0.3,1-0.4,0.9-0.9,1.1c-7.8,2.3-15.6,4.5-23.4,6.7c-1.2,0.3-2.3,0.6-3.5,1c-0.6,0.2-0.8,0.1-1-0.5
	c-1.1-4.1-2.3-8.1-3.5-12.1C76.2,22.5,76.2,22.3,76.8,22.1z M49,31.2c0-0.9,0.2-1.1,1.1-1.1c7.3,0,14.6,0,21.8,0
	c0.9,0,1.2,0.2,1.2,1.2c-0.1,4-0.1,8,0,11.9c0,0.9-0.3,1.1-1.2,1.1c-3.6,0-7.3,0-10.9,0c-3.6,0-7.3,0-10.9,0c-0.9,0-1.2-0.2-1.2-1.2
	C49,39.2,49,35.2,49,31.2z M73.2,55c0,0.8-0.3,1-1,1c-7.4,0-14.9,0-22.3,0c-0.7,0-0.9-0.2-0.9-0.9c0-1.8,0.1-3.6,0-5.4
	c0-0.8,0.2-1,1.1-1c3.7,0,7.5,0,11.2,0c3.6,0,7.2,0,10.8,0c0.9,0,1.2,0.2,1.2,1.1C73.1,51.5,73.1,53.3,73.2,55z M15.9,18.4
	c4.6,0,9.2,0,13.8,0c4.5,0,9,0,13.5,0c1.1,0,1.4,0.3,1.3,1.4c-0.1,3.9-0.1,7.8,0,11.6c0,0.9-0.2,1.2-1.2,1.2c-9.2,0-18.4,0-27.7,0
	c-1,0-1.2-0.3-1.2-1.2c0.1-3.9,0.1-7.9,0-11.8C14.6,18.6,15,18.4,15.9,18.4z M14.6,42.9c0.1-1.6,0.1-3.3,0-5c0-0.7,0.1-1,0.9-1
	c9.4,0,18.7,0,28.1,0c0.8,0,1,0.3,0.9,1c0,1.7-0.1,3.5,0,5.2c0,1-0.3,1.1-1.2,1.1c-4.6,0-9.2,0-13.8,0c-4.6,0-9.1,0-13.7,0
	C14.8,44.3,14.5,44,14.6,42.9z M43.5,130.5c-4.6,0-9.2,0-13.8,0c-4.6,0-9.1,0-13.7,0c-1,0-1.4-0.1-1.4-1.3c0.1-3.5,0.1-7.1,0-10.6
	c0-0.9,0.2-1.1,1.1-1.1c9.3,0,18.5,0,27.8,0c1,0,1.1,0.3,1.1,1.2c0,3.6,0,7.2,0,10.8C44.6,130.3,44.4,130.6,43.5,130.5z M72,130.5
	c-3.7-0.1-7.4,0-11.1,0c-3.6,0-7.2,0-10.8,0c-0.9,0-1.3-0.1-1.2-1.2c0.1-3.6,0.1-7.2,0-10.8c0-0.9,0.2-1.1,1.1-1.1
	c7.3,0,14.6,0,22,0c0.9,0,1.1,0.3,1.1,1.2c0,3.6,0,7.2,0,10.8C73.2,130.3,72.9,130.6,72,130.5z M101.1,130.5c-7.3,0-14.7,0-22,0
	c-1.2,0-1.6-0.2-1.6-1.6c0.1-14.7,0-29.4,0-44.1c0-0.6,0.1-1.3-0.2-1.9c-0.5-1-1.3-1.5-2.3-1.3c-1,0.2-1.7,0.8-1.8,1.8
	c-0.1,0.5,0,1,0,1.5c0,8.9,0,17.9,0,26.8c0,1.2-0.3,1.4-1.5,1.4c-7.1,0-14.3-0.1-21.4,0c-1.1,0-1.4-0.2-1.3-1.3c0.1-3,0-6,0-9
	c0-1.7-0.8-2.7-2.2-2.7c-1.3,0-2.2,1-2.2,2.7c0,3.1,0,6.2,0,9.3c0,0.9-0.3,1.1-1.1,1.1c-9.2,0-18.5,0-27.7,0c-0.9,0-1.2-0.2-1.2-1.2
	c0-20.7,0-41.4,0-62.1c0-1,0.3-1.3,1.3-1.3c9.1,0,18.2,0,27.2,0c1.2,0,1.5,0.2,1.5,1.5c-0.1,13.6,0,27.3,0,40.9c0,0.4,0,0.9,0,1.3
	c0.1,1.2,0.9,2,2.1,2c1.2,0,2-0.7,2.2-1.9c0.1-0.4,0-0.9,0-1.3c0-9.8,0-19.6,0-29.4c0-1.1,0.3-1.4,1.4-1.4c7.1,0.1,14.2,0.1,21.3,0
	c1.2,0,1.6,0.2,1.5,1.5c-0.1,3.8,0,7.6,0,11.4c0,1.8,0.8,2.9,2.1,2.9c1.4,0,2.2-1.1,2.2-3c0-9.2,0-18.4,0-27.5c0-0.5,0-1.1,0-1.6
	c0.1,0,0.2,0,0.3-0.1c8.3,28.8,16.6,57.7,24.9,86.7C102,130.5,101.6,130.5,101.1,130.5z M108,129.7c-0.8,0.2-1,0-1.2-0.7
	c-1-3.6-2-7.2-3.1-10.7c-0.2-0.8,0-0.9,0.6-1.1c9.1-2.6,18.1-5.2,27.2-7.8c0.5-0.1,0.8-0.2,0.9,0.4c1.1,3.8,2.2,7.5,3.3,11.3
	c0,0,0,0.1,0.1,0.2c-0.1,0.7-0.8,0.5-1.2,0.7c-6.1,1.8-12.3,3.5-18.4,5.3C113.4,128.1,110.7,128.9,108,129.7z"/>
<path d="M22.4,80.9c0-6.7,0-13.4,0-20.1c0-0.5,0-1,0-1.5c0.1-1.1,0.8-1.8,1.9-1.9c1.1-0.1,1.9,0.4,2.2,1.5c0.1,0.4,0.2,1,0.2,1.4
	c0,13.7,0,27.4,0,41.1c0,0.5,0,1.1-0.2,1.6c-0.4,1.1-1.2,1.5-2.3,1.4c-1-0.1-1.7-0.7-1.8-1.8c-0.1-0.5,0-1,0-1.5
	C22.4,94.4,22.4,87.6,22.4,80.9z"/>
<path d="M63.3,86.7c0,5,0,10,0,15c0,1.8-0.7,2.7-2.1,2.7c-1.4,0-2.3-0.9-2.3-2.8c0-9.9,0-19.9,0-29.8c0-1.7,0.8-2.7,2.1-2.7
	c1.4,0,2.2,1,2.2,2.8C63.3,76.8,63.3,81.8,63.3,86.7z"/>
<path class="st1" d="M36.9,80.9c0,4.7,0,9.4,0,14.1c0,1-0.2,1.8-1.1,2.4c-1.2,0.7-2.7,0.2-3.1-1.1c-0.2-0.5-0.2-1.1-0.2-1.7
	c0-9,0-18.1,0-27.1c0-0.3,0-0.6,0-0.9c0.1-1.5,1-2.4,2.2-2.4c1.2,0,2.1,1,2.1,2.4C36.9,71.4,36.9,76.1,36.9,80.9z"/>
</svg>
