<?xml version="1.0" encoding="utf-8"?>
<!-- Generator: Adobe Illustrator 23.0.0, SVG Export Plug-In . SVG Version: 6.00 Build 0)  -->
<svg version="1.1" id="Layer_1" xmlns="http://www.w3.org/2000/svg" xmlns:xlink="http://www.w3.org/1999/xlink" x="0px" y="0px"
	 viewBox="0 0 150 150" style="enable-background:new 0 0 150 150;" xml:space="preserve">
<style type="text/css">
	.st0{display:none;fill:#FEFEFE;}
	.st1{fill:#0774CC;}
</style>
<path class="st0" d="M-180,176c0-117.1,0-234.2-0.1-351.4c0-3.5,0.4-4.8,4.4-4.8c167.8,0.1,335.5,0.1,503.3,0c4.1,0,4.4,1.3,4.4,4.8
	C332-48.9,332,77.6,332,204c-2.1,0-2.1-1.8-2.5-3.1c-5.3-16.9-17-25.7-34.4-27.3c-7.2-0.7-7.5-1-7.5-8.2c0-8.3,0-16.7,0-25
	c0-22.4-14.2-42.3-35-49.1c-21.9-7.2-45,0.3-58.6,19c-6.4,8.8-9.7,18.5-9.6,29.4c0.1,8.8,0.1,17.7,0,26.5c-0.1,6.2-0.6,6.8-6.8,7.4
	c-9.3,0.9-17.9,3.3-24.9,10.2c-7.7,7.6-11.4,16.6-11.3,27.4c0,23.8,0,47.7,0,71.5c0,22,14.9,37.6,37.3,37.9
	c38.2,0.5,76.3,0.4,114.5,0c17.6-0.2,29.9-9,36-25.9c0.5-1.4,0.5-3.5,2.8-3.5c0,12.8-0.1,25.7,0.1,38.5c0,2.2-0.4,2.9-2.6,2.5
	c-0.6-0.1-1.3,0-2,0c-167.7,0-335.3,0-503,0.1c-3.7,0-4.6-0.8-4.6-4.6c0.2-20.2,0.1-40.3,0.1-60.5c2.2,0,2.6,1.9,3.4,3.2
	c3.2,4.8,7.7,7.3,13.4,7.3c1.5,0,3,0,4.5,0c85.5,0,170.9,0,256.4,0c8.8,0,8.8,0,8.8-8.8c0-19,0-38,0-57c0-29.2,13.2-50.6,38.4-64.8
	c3.1-1.8,4.8-3.8,4.6-7.5c-0.5-10.2,1.7-19.9,5.5-29.2c1.6-4,0.9-6.4-2.9-8.6c-14.8-8.4-30.7-13.1-47.7-13.1
	c-62-0.2-124-1-185.9,0.3c-40,0.8-69.2,21.2-87.4,57c-4,7.8-6.4,16.1-8.1,24.6C-177.3,172.5-176.9,175.3-180,176z"/>
<path class="st1" d="M0.3,104.7c0.6-1.4,0.7-3,1.1-4.4C5,87.6,16.5,78.8,29.6,78.7c17.8-0.1,35.6,0,53.3,0c5.6,0,10.7,1.5,15.5,4.4
	c0.7,0.4,0.9,0.7,0.5,1.6c-1.4,3.1-2.1,6.5-2,9.9c0,0.9-0.2,1.3-1.1,1.8c-7.3,3.8-11.2,9.9-11.4,18.1c-0.1,6.3-0.1,12.7,0,19
	c0,1.1-0.2,1.4-1.3,1.4c-25.9,0-51.7,0-77.6,0c-2.7,0-4.2-1.3-5.3-3.5C0.3,122.4,0.3,113.6,0.3,104.7z"/>
<path class="st1" d="M56.4,66.2c-17.2,0-31.2-14-31.2-31.2C25.3,17.8,39.3,3.8,56.6,3.9c17.1,0,31.1,14,31.1,31.2
	C87.7,52.2,73.7,66.2,56.4,66.2z"/>
<path class="st1" d="M149.9,112.8c-0.9-5.4-5.6-9.4-11.4-9.2c-1,0-1-0.4-1-1.2c0-3,0.1-5.9,0-8.9c-0.3-7.8-6.5-14.2-14.2-14.8
	c-7.8-0.6-15,4.7-16.5,12.4c-0.7,3.7-0.2,7.4-0.3,11.1c0,1-0.1,1.4-1.3,1.4c-6.7,0.1-11.2,4.7-11.2,11.4c0,6.8,0,13.6,0,20.4
	c0,7.3,4.6,11.8,11.9,11.8c10.8,0,21.6,0,32.4,0c6.1,0,9.8-2.9,11.6-8.7c0-0.1,0.2-0.2,0.3-0.3c0-8.5,0-17,0-25.4
	C150,112.9,149.9,112.8,149.9,112.8z M127.2,103.6c-1.7-0.1-3.5,0-5.3,0c-1.8,0-3.5,0-5.3,0c-0.8,0-1-0.2-1-1c0-2.9,0-5.7,0-8.6
	c0.1-3.4,2.9-6,6.3-6c3.3,0,6,2.6,6.1,6c0.1,2.9,0,5.7,0,8.6C128.2,103.4,128,103.6,127.2,103.6z"/>
</svg>
